<svg viewBox="0 0 144 48" fill="none" xmlns="http://www.w3.org/2000/svg">
  <g clipPath="url(#clip0)">
    <path d="M8.05641 20.856L11.0724 22.788C11.3564 22.968 11.7324 22.88 11.9044 22.592L21.6444 6.304C21.7604 6.112 22.0404 6.112 22.1564 6.304L31.8964 22.592C32.0684 22.88 32.4484 22.968 32.7284 22.788L35.7444 20.856C36.0164 20.684 36.1004 20.324 35.9364 20.048L24.2964 0.58C24.0804 0.22 23.6924 0 23.2724 0H20.5284C20.1084 0 19.7204 0.22 19.5044 0.58L7.86441 20.048C7.70041 20.324 7.78441 20.684 8.05641 20.856Z" fill="#2AE7A8"/>
    <path d="M43.6322 32.924L38.9962 25.172C38.8242 24.884 38.4442 24.796 38.1642 24.976L35.1482 26.908C34.8762 27.08 34.7922 27.44 34.9562 27.716L37.6042 32.144C37.6882 32.284 37.6442 32.46 37.5082 32.548L22.0602 42.448C21.9602 42.512 21.8362 42.512 21.7402 42.448L6.29223 32.548C6.15623 32.46 6.11623 32.28 6.19623 32.144L8.84423 27.716C9.00823 27.44 8.92423 27.08 8.65223 26.908L5.63623 24.976C5.35223 24.796 4.97623 24.884 4.80423 25.172L0.168226 32.924C-0.163774 33.476 0.00422635 34.192 0.548226 34.54L21.2562 47.812C21.6482 48.064 22.1522 48.064 22.5442 47.812L43.2522 34.54C43.7922 34.192 43.9602 33.476 43.6322 32.924Z" fill="white"/>
    <path fillRule="evenodd" clipRule="evenodd" d="M66.888 14.2881C68.108 14.8441 69.048 15.6041 69.704 16.5761C70.36 17.5481 70.688 18.6481 70.688 19.8841V32.4721C70.688 32.8761 70.484 33.0761 70.084 33.0761H66.908C66.504 33.0761 66.304 32.8761 66.304 32.4721V31.5281C66.304 31.4281 66.28 31.3721 66.228 31.3561C66.176 31.3441 66.116 31.3641 66.04 31.4121C64.68 32.7241 62.864 33.3761 60.596 33.3761C58.732 33.3761 57.2 32.8961 56.004 31.9401C54.808 30.9841 54.208 29.5601 54.208 27.6681C54.208 25.7041 54.896 24.1721 56.268 23.0761C57.64 21.9801 59.576 21.4321 62.072 21.4321H66.08C66.232 21.4321 66.308 21.3561 66.308 21.2041V20.3361C66.308 19.3521 66.012 18.5921 65.42 18.0481C64.828 17.5081 63.952 17.2361 62.792 17.2361C61.908 17.2361 61.18 17.3921 60.6 17.7081C60.02 18.0241 59.628 18.4601 59.428 19.0121C59.328 19.3641 59.1 19.5281 58.748 19.5041L55.348 19.0881C55.144 19.0641 54.996 19.0081 54.896 18.9161C54.796 18.8281 54.756 18.7201 54.784 18.5961C55.012 17.0841 55.848 15.8481 57.296 14.8921C58.744 13.9361 60.54 13.4561 62.684 13.4561C64.26 13.4561 65.668 13.7361 66.888 14.2881ZM64.98 28.9161C65.86 28.2601 66.304 27.4281 66.304 26.4201V24.6801C66.304 24.5281 66.228 24.4521 66.076 24.4521H62.94C61.604 24.4521 60.544 24.7041 59.764 25.2081C58.984 25.7121 58.592 26.4321 58.592 27.3641C58.592 28.1721 58.896 28.7961 59.5 29.2361C60.104 29.6761 60.872 29.8961 61.804 29.8961C63.04 29.9001 64.096 29.5721 64.98 28.9161ZM86.208 13.7601H89.344C89.748 13.7601 89.948 13.9641 89.948 14.3641V32.4721C89.948 32.8761 89.744 33.0761 89.344 33.0761H86.208C85.804 33.0761 85.604 32.8761 85.604 32.4721V31.4881C85.604 31.3881 85.572 31.3241 85.508 31.3001C85.444 31.2761 85.388 31.3121 85.336 31.4121C84.328 32.6961 82.792 33.3401 80.724 33.3401C78.808 33.3401 77.204 32.7841 75.904 31.6761C74.604 30.5681 73.9561 28.9921 73.9561 26.9521V14.3641C73.9561 13.9601 74.156 13.7601 74.56 13.7601H77.736C78.14 13.7601 78.3401 13.9641 78.3401 14.3641V25.7041C78.3401 26.8881 78.648 27.8321 79.268 28.5401C79.884 29.2441 80.748 29.6001 81.856 29.6001C82.988 29.6001 83.896 29.2481 84.576 28.5401C85.256 27.8361 85.596 26.8881 85.596 25.7041V14.3641C85.604 13.9601 85.804 13.7601 86.208 13.7601ZM108.896 13.76H105.72C105.316 13.76 105.116 13.96 105.108 14.372V15.052C105.108 15.152 105.084 15.216 105.032 15.24C104.984 15.264 104.92 15.24 104.844 15.164C103.708 14.032 102.172 13.464 100.232 13.464C98.568 13.464 97.12 13.924 95.884 14.844C94.648 15.764 93.78 16.992 93.276 18.528C92.872 19.636 92.672 21.236 92.672 23.328C92.672 25.192 92.836 26.716 93.164 27.9C93.696 29.612 94.64 30.884 96 31.716C97.364 32.548 98.86 32.964 100.5 32.964C102.364 32.964 103.816 32.424 104.848 31.34C104.924 31.264 104.984 31.24 105.036 31.264C105.088 31.288 105.112 31.352 105.112 31.452V31.68C105.112 33.444 104.668 34.696 103.772 35.44C102.876 36.184 101.472 36.556 99.556 36.556C99.228 36.556 98.636 36.532 97.78 36.48C97.576 36.452 97.412 36.492 97.288 36.592C97.164 36.692 97.1 36.832 97.1 37.008L96.988 39.804C96.988 40.232 97.164 40.46 97.516 40.484C98.248 40.56 98.968 40.596 99.672 40.596C102.596 40.596 104.968 39.92 106.78 38.556C108.592 37.192 109.5 34.936 109.5 31.788V14.364C109.5 13.964 109.3 13.76 108.896 13.76ZM105.116 23.284C105.116 24.268 105.096 24.98 105.06 25.42C105.02 25.86 104.952 26.272 104.852 26.652C104.652 27.456 104.248 28.112 103.644 28.616C103.04 29.12 102.248 29.372 101.264 29.372C100.332 29.372 99.532 29.112 98.864 28.596C98.196 28.08 97.736 27.42 97.484 26.612C97.232 25.984 97.108 24.888 97.108 23.324C97.108 21.812 97.256 20.7 97.56 19.996C97.836 19.164 98.288 18.496 98.92 17.992C99.548 17.488 100.316 17.236 101.224 17.236C102.184 17.236 102.972 17.488 103.588 17.992C104.204 18.496 104.612 19.164 104.816 19.996C104.94 20.4 105.024 20.808 105.06 21.224C105.096 21.64 105.116 22.328 105.116 23.284ZM125.02 13.7601H128.156C128.56 13.7601 128.76 13.9641 128.76 14.3641V32.4721C128.76 32.8761 128.556 33.0761 128.156 33.0761H125.02C124.616 33.0761 124.416 32.8761 124.416 32.4721V31.4881C124.416 31.3881 124.384 31.3241 124.32 31.3001C124.256 31.2761 124.2 31.3121 124.148 31.4121C123.14 32.6961 121.604 33.3401 119.536 33.3401C117.62 33.3401 116.016 32.7841 114.716 31.6761C113.416 30.5681 112.768 28.9921 112.768 26.9521V14.3641C112.768 13.9601 112.968 13.7601 113.372 13.7601H116.548C116.952 13.7601 117.152 13.9641 117.152 14.3641V25.7041C117.152 26.8881 117.46 27.8321 118.08 28.5401C118.696 29.2441 119.56 29.6001 120.668 29.6001C121.8 29.6001 122.708 29.2481 123.388 28.5401C124.068 27.8361 124.408 26.8881 124.408 25.7041V14.3641C124.416 13.9601 124.62 13.7601 125.02 13.7601ZM143.376 14.7041C143.452 14.3521 143.34 14.1001 143.036 13.9481C142.432 13.6721 141.764 13.5321 141.032 13.5361C139.168 13.5361 137.708 14.3281 136.648 15.9161C136.596 16.0161 136.548 16.0521 136.496 16.0281C136.444 16.0041 136.42 15.9401 136.42 15.8401V14.3641C136.42 13.9641 136.22 13.7601 135.816 13.7601H132.64C132.236 13.7601 132.036 13.9601 132.036 14.3641V32.4681C132.036 32.8721 132.236 33.0721 132.64 33.0721H135.816C136.216 33.0721 136.42 32.8721 136.42 32.4681V21.9201C136.42 20.8121 136.776 19.9081 137.48 19.2161C138.184 18.5241 139.064 18.1521 140.124 18.1001C140.3 18.0761 140.54 18.0641 140.844 18.0641C141.348 18.0641 141.748 18.1161 142.052 18.2161C142.28 18.2681 142.452 18.2681 142.564 18.2161C142.676 18.1681 142.748 18.0441 142.772 17.8401L143.376 14.7041Z" fill="white"/>
  </g>
  <defs>
    <clipPath id="clip0">
      <rect fill="white"/>
    </clipPath>
  </defs>
</svg>
