<svg width="115px" height="48px" viewBox="0 0 115 48" version="1.1">
    <g id="Design" stroke="none" strokeWidth="1" fill="none" fillRule="evenodd">
        <g id="01-Network-Dropdown-menu" transform="translate(-24.000000, -24.000000)">
            <rect fill="#231A3A" x="0" y="0" width="340" height="829"></rect>
            <g id="Logo" transform="translate(24.000000, 24.000000)" fill="#FFFFFF">
                <path d="M29.7164489,26.4043355 L29.7922721,26.8559484 L29.8176354,27.034529 C30.1380149,29.5209806 31.103158,30.2476903 33.4966595,31.3073032 C33.5017322,31.3093677 33.5068048,31.3083355 33.5118775,31.3104 L42.1949616,35.1436903 L22.590409,46.3313032 L22.590409,39.9279484 C22.590409,37.578529 22.7316429,37.1571097 24.8173132,36.0045935 C25.2271319,35.7787871 25.6414893,35.5424 26.0953602,35.2851097 L26.378629,35.122529 C27.6769667,34.4296258 28.7350199,33.4043355 29.5156778,32.1891097 C29.543978,32.1444645 29.7524916,31.8298839 29.7802578,31.7849806 C29.6446305,31.7196903 29.5012607,31.6066581 29.3322606,31.4593032 C29.2206617,31.362271 29.0548654,31.1736258 28.9734356,31.018529 C28.2902264,32.3473032 27.252731,33.4714323 25.9250251,34.2027871 L25.6035777,34.3867871 C25.1558474,34.6412387 24.6993067,34.890529 24.2908229,35.1147871 C21.733127,36.5282065 21.529686,37.394271 21.529686,39.9279484 L21.529686,46.338271 L1.74385205,34.9470452 L10.21068,31.2461419 L10.7614657,31.0089806 C10.9769209,30.9039484 11.6539894,30.6275613 12.1767419,30.6115613 C12.7104407,30.5787871 13.5199328,30.6131097 13.9556488,31.1687226 C14.5745151,31.9524645 15.1666831,32.7013677 15.1666831,32.7013677 C16.1000553,33.9114323 17.320701,34.9013677 18.7789614,35.4954323 C18.7789614,35.4954323 18.786704,35.5003355 18.7917766,35.5024 C18.7928446,35.5024 18.7928446,35.5029161 18.7928446,35.5029161 L18.7928446,35.5026581 C19.1772999,35.6598194 19.5908564,35.7501419 20.001476,35.8458839 C20.0858426,35.6838194 20.2190671,35.4951742 20.3408113,35.3421419 C20.4289156,35.2316903 20.5608052,35.0956903 20.6838843,34.9682065 C20.064217,34.8464 19.3508388,34.6497548 18.7949804,34.3831742 L18.7928446,34.3818839 C17.6853996,33.8549161 16.727465,33.1171097 15.9913932,32.1682065 C15.9804469,32.1553032 15.9548166,32.1245935 15.9449382,32.1101419 C15.9438703,32.1088516 15.9158371,32.0698839 15.8928766,32.0371097 C15.8186553,31.9377548 15.7436331,31.8420129 15.6744846,31.7393032 C15.4782521,31.4750452 15.1808332,31.0814968 14.764073,30.5555613 C14.4837409,30.1994323 14.092344,29.9651097 13.6755838,29.8144 C13.6766517,29.8146581 13.6766517,29.8151742 13.6766517,29.8154323 C13.2270525,29.6541419 12.7072369,29.5826581 12.1404322,29.586529 C11.2812813,29.6146581 10.3268176,30.0729806 10.3078618,30.0820129 L10.0104428,30.210271 L10.0096419,30.210271 L9.98748232,30.2195613 L9.21643577,30.5516903 C9.2113631,30.5534968 9.2113631,30.5589161 9.20735835,30.5609806 L1.80792794,33.7958194 L21.5117982,2.35762581 L21.5117982,15.6647226 C21.5117982,17.9643355 21.343599,18.466529 19.2395069,19.6291097 C19.0782493,19.7181419 18.9071132,19.7996903 18.7309045,19.8827871 C18.6417322,19.9258839 18.5506911,19.9723355 18.4593829,20.0169806 C18.3902344,20.0476903 18.3253575,20.0840774 18.2580779,20.1168516 C18.2570099,20.1168516 18.255141,20.1173677 18.255141,20.1178839 L18.2540731,20.1184 C15.4934702,21.4433032 13.5666548,24.130529 13.3981886,27.2670452 C13.5797369,27.3163355 13.8539283,27.394271 14.0071765,27.4407226 C14.1193093,27.474271 14.2885765,27.5584 14.4316793,27.6353032 C14.4589115,24.7367226 16.2092513,22.2363355 18.7378461,21.0293677 C18.738914,21.0288516 18.738914,21.0285935 18.738914,21.0278194 C18.7458556,21.0249806 18.7519962,21.026271 18.7578698,21.0234323 C18.91005,20.9449806 19.0571576,20.8747871 19.2023963,20.8056258 C19.3978278,20.7122065 19.5860507,20.6216258 19.7670651,20.5214968 C20.1445789,20.3134968 20.4572158,20.1178839 20.7418196,19.9258839 C20.8187106,19.8755613 20.8838544,19.8216258 20.9540709,19.7713032 C21.1081201,19.6595613 21.2533587,19.5452387 21.3793747,19.4327226 C21.452795,19.3692387 21.5198077,19.3091097 21.5678646,19.250529 C22.4101955,18.3958194 22.575191,17.4337548 22.575191,15.6647226 L22.575191,2.35143226 L42.3402003,34.0812387 L33.6168018,30.2304 C33.6157338,30.2293677 33.613865,30.2306581 33.6119961,30.2304 C31.6771712,29.3744 31.0892749,28.6590452 30.8297675,26.602271 C30.8260298,26.5741419 30.8180203,26.5042065 30.8110787,26.4778839 C30.3126217,23.1885935 27.8550443,20.5493677 24.6269544,19.626529 C24.4064265,19.5635613 24.2328876,19.5119484 24.1912383,19.5005935 C24.1247596,19.7116903 24.0294467,19.8913032 23.9757831,19.9831742 C23.8631164,20.1751742 23.7483137,20.3088516 23.6313752,20.4376258 C23.6807671,20.4487226 23.9885983,20.5153032 24.0374562,20.5271742 C26.939827,21.2376258 29.184619,23.5194323 29.7164489,26.4043355 M43.9754704,34.7176258 L22.5031056,0.247948387 C22.4080597,0.0941419355 22.2355887,-5.1612903e-05 22.0495017,-5.1612903e-05 C21.8631476,-5.1612903e-05 21.6909437,0.0941419355 21.5958978,0.247174194 L0.0762770077,34.5795613 C0.00339068253,34.6956903 -0.0187688962,34.8368516 0.0164728435,34.9689806 C0.0493117372,35.1011097 0.136348155,35.2154323 0.258626312,35.2853677 L21.7782471,47.6747871 C21.8612788,47.7227871 21.9565916,47.7467871 22.0495017,47.7467871 C22.1426787,47.7467871 22.2355887,47.7227871 22.3188874,47.6755613 L43.7912522,35.4234323 C43.9135304,35.3532387 43.9994988,35.2402065 44.0358085,35.1080774 C44.0707833,34.9749161 44.0496916,34.8347871 43.9754704,34.7176258" id="Fill-1"></path>
                <path d="M59.7381241,16.3218203 L55.3844492,27.7218959 L56.3482398,27.7218959 L57.3784988,24.9514 L62.8953693,24.9514 L63.9250744,27.7218959 L64.8894189,27.7218959 L60.535744,16.3218203 L59.7381241,16.3218203 Z M60.1363802,17.4746369 L62.6123251,24.1828556 L57.6609892,24.1828556 L60.1363802,17.4746369 Z" id="Fill-1"></path>
                <path d="M72.4447066,27.8178038 C70.0684642,27.8178038 68.390693,26.2486923 68.390693,24.0231158 L68.390693,16.3216602 L69.2880153,16.3216602 L69.2880153,23.9110364 C69.2880153,25.8003747 70.5503595,27.0492594 72.4447066,27.0492594 C74.3390537,27.0492594 75.6019518,25.8003747 75.6019518,23.9110364 L75.6019518,16.3216602 L76.4992741,16.3216602 L76.4992741,24.0231158 C76.4992741,26.2486923 74.820949,27.8178038 72.4447066,27.8178038" id="Fill-2"></path>
                <path d="M88.3039369,26.5048738 C87.5229341,27.3374636 86.3929727,27.8178038 85.196543,27.8178038 C84.0831986,27.8178038 83.0197055,27.401509 82.2387027,26.6489759 C81.1591464,25.6082386 81.1419755,24.5995241 81.1419755,22.021698 C81.1419755,19.4444056 81.1591464,18.4351573 82.2387027,17.3949538 C83.0197055,16.6424207 84.0831986,16.2261258 85.196543,16.2261258 C87.2736779,16.2261258 88.8689176,17.5390559 89.2344934,19.5559513 L88.3371711,19.5559513 C87.9882124,17.9873735 86.7917826,16.9946703 85.196543,16.9946703 C84.3490719,16.9946703 83.551452,17.2983521 82.9532372,17.8752941 C82.10632,18.6913388 82.0392978,19.5719626 82.0392978,22.021698 C82.0392978,24.4714333 82.10632,25.3520572 82.9532372,26.1686356 C83.551452,26.7450439 84.3490719,27.0492594 85.196543,27.0492594 C86.1270994,27.0492594 87.0410388,26.6649872 87.6558708,25.9444768 C88.1710003,25.3360458 88.3704052,24.6635694 88.3704052,23.6868776 L88.3704052,22.6621517 L85.196543,22.6621517 L85.196543,21.8936073 L89.2671736,21.8936073 L89.2671736,23.7509229 C89.2671736,24.9357623 89.0018542,25.7843634 88.3039369,26.5048738" id="Fill-4"></path>
                <path d="M97.8685065,27.8178038 C95.4922641,27.8178038 93.8144929,26.2486923 93.8144929,24.0231158 L93.8144929,16.3216602 L94.7118152,16.3216602 L94.7118152,23.9110364 C94.7118152,25.8003747 95.9741594,27.0492594 97.8685065,27.0492594 C99.7628536,27.0492594 101.025752,25.8003747 101.025752,23.9110364 L101.025752,16.3216602 L101.923074,16.3216602 L101.923074,24.0231158 C101.923074,26.2486923 100.244749,27.8178038 97.8685065,27.8178038" id="Fill-6"></path>
                <path d="M111.325018,17.0906849 L107.835431,17.0906849 L107.835431,21.7019515 L111.325018,21.7019515 C112.836618,21.7019515 113.933899,20.964896 113.933899,19.3957845 C113.933899,17.8272067 112.836618,17.0906849 111.325018,17.0906849 Z M113.917282,27.7216824 L111.092379,22.4699622 L107.835431,22.4699622 L107.835431,27.7216824 L106.938109,27.7216824 L106.938109,16.3221405 L111.441337,16.3221405 C113.368365,16.3221405 114.830668,17.3949004 114.830668,19.3803069 C114.830668,21.0769754 113.767175,22.1822918 112.106021,22.4539509 L114.963604,27.7216824 L113.917282,27.7216824 Z" id="Fill-8"></path>
            </g>
        </g>
    </g>
</svg>