<svg width="16px" height="16px" viewBox="0 0 16 16" version="1.1" xmlns="http://www.w3.org/2000/svg" xmlns:xlink="http://www.w3.org/1999/xlink">
    <g id="Design" stroke="none" strokeWidth="1" fill="none" fillRule="evenodd">
        <g id="06-Add-New-Network---Add-connection-screen---Error-Sates" transform="translate(-292.000000, -433.000000)">
            <g id="endpoint01" transform="translate(0.000000, 400.000000)">
                <g id="input" transform="translate(24.000000, 25.000000)">
                    <g id="Icon/Error" transform="translate(268.000000, 8.000000)">
                        <g>
                            <circle id="Oval" fill="#FF0050" cx="8" cy="8" r="8"></circle>
                            <path d="M8.87821659,10.1462941 L6.93119318,10.1462941 L6.62451916,3.05 L9.1848906,3.05 L8.87821659,10.1462941 Z M6.55319962,12.3571998 C6.55319962,12.005355 6.68038486,11.7165137 6.93475916,11.4906674 C7.18913345,11.2648211 7.50650222,11.1518996 7.886875,11.1518996 C8.26724777,11.1518996 8.58461655,11.2648211 8.83899084,11.4906674 C9.09336513,11.7165137 9.22055037,12.005355 9.22055037,12.3571998 C9.22055037,12.7090446 9.09336513,12.9978859 8.83899084,13.2237322 C8.58461655,13.4495785 8.26724777,13.5625 7.886875,13.5625 C7.50650222,13.5625 7.18913345,13.4495785 6.93475916,13.2237322 C6.68038486,12.9978859 6.55319962,12.7090446 6.55319962,12.3571998 Z" id="!" fill="#FFFFFF" transform="translate(7.886875, 8.306250) scale(-1, 1) translate(-7.886875, -8.306250) "></path>
                        </g>
                    </g>
                </g>
            </g>
        </g>
    </g>
</svg>