<?xml version="1.0" encoding="UTF-8"?>
<svg width="191px" height="80px" viewBox="0 0 191 80" version="1.1" xmlns="http://www.w3.org/2000/svg" xmlns:xlink="http://www.w3.org/1999/xlink">
    <!-- Generator: Sketch 50.2 (55047) - http://www.bohemiancoding.com/sketch -->
    <title>Logo</title>
    <desc>Created with Sketch.</desc>
    <defs>
        <polygon id="path-1" points="7.76197612e-05 0 73.048337 0 73.048337 79.5779785 7.76197612e-05 79.5779785"></polygon>
    </defs>
    <g id="Symbols" stroke="none" stroke-width="1" fill="none" fill-rule="evenodd">
        <g id="footer" transform="translate(-160.000000, -91.000000)">
            <g id="Logo">
                <g transform="translate(160.000000, 91.000000)">
                    <g id="mark">
                        <mask id="mask-2" fill="white">
                            <use xlink:href="#path-1"></use>
                        </mask>
                        <g id="Clip-2"></g>
                        <path d="M49.2765045,44.0072258 L49.4022362,44.759914 L49.4442943,45.0575484 C49.9755549,49.2016344 51.5759776,50.4128172 55.5449372,52.1788387 C55.5533489,52.1822796 55.5617605,52.1805591 55.5701721,52.184 L69.9686634,58.5728172 L37.4599398,77.2188387 L37.4599398,66.5465806 C37.4599398,62.6308817 37.6941372,61.9285161 41.152644,60.0076559 C41.8322149,59.6313118 42.5193119,59.2373333 43.2719312,58.8085161 L43.7416541,58.5375484 C45.8945878,57.3827097 47.6490761,55.6738925 48.9435811,53.6485161 C48.9905092,53.5741075 49.3362713,53.0498065 49.3823139,52.9749677 C49.1574136,52.8661505 48.9196744,52.6777634 48.6394344,52.432172 C48.4543786,52.2704516 48.1794513,51.956043 48.0444225,51.6975484 C46.9115092,53.912172 45.1911102,55.7857204 42.9894776,57.0046452 L42.4564461,57.3113118 C41.7140094,57.7353978 40.956963,58.1508817 40.2796057,58.5246452 C36.0383749,60.8803441 35.7010244,62.3237849 35.7010244,66.5465806 L35.7010244,77.2304516 L2.8916959,58.2450753 L16.9315863,52.0769032 L17.8449118,51.6816344 C18.2021846,51.5065806 19.3249154,51.0459355 20.1917557,51.0192688 C21.0767474,50.9646452 22.4190659,51.0218495 23.1415804,51.947871 C24.1677988,53.2541075 25.1497455,54.5022796 25.1497455,54.5022796 C26.6974849,56.5190538 28.7215879,58.1689462 31.1397092,59.1590538 C31.1397092,59.1590538 31.152548,59.1672258 31.1609596,59.1706667 C31.1627305,59.1706667 31.1627305,59.1715269 31.1627305,59.1715269 L31.1627305,59.1710968 C31.8002432,59.4330323 32.4860122,59.5835699 33.1669112,59.7431398 C33.3068098,59.4730323 33.5277257,59.1586237 33.7296048,58.9035699 C33.8757014,58.7194839 34.0944037,58.4928172 34.2984964,58.2803441 C33.2709498,58.0773333 32.0880094,57.7495914 31.1662722,57.3052903 L31.1627305,57.3031398 C29.3263396,56.4248602 27.7378703,55.1951828 26.517299,53.6136774 C26.4991476,53.592172 26.4566467,53.5409892 26.4402662,53.5169032 C26.4384953,53.5147527 26.39201,53.4498065 26.3539363,53.3951828 C26.2308609,53.2295914 26.1064574,53.0700215 25.9917937,52.8988387 C25.6663965,52.4584086 25.1732096,51.8024946 24.482128,50.9259355 C24.017275,50.3323871 23.3682516,49.9418495 22.67717,49.6906667 C22.6789409,49.6910968 22.6789409,49.691957 22.6789409,49.6923871 C21.9334051,49.4235699 21.0714348,49.3044301 20.1315462,49.3108817 C18.7068822,49.3577634 17.1241683,50.1216344 17.0927353,50.1366882 L16.5995484,50.3504516 L16.5982202,50.3504516 L16.5614747,50.3659355 L15.2829074,50.9194839 C15.2744958,50.9224946 15.2744958,50.9315269 15.2678551,50.9349677 L2.99794802,56.3263656 L35.6713624,3.92937634 L35.6713624,26.107871 C35.6713624,29.9405591 35.3924506,30.7775484 31.9033963,32.7151828 C31.6359952,32.8635699 31.3522134,32.9994839 31.0600201,33.1379785 C30.9121525,33.2098065 30.761186,33.2872258 30.6097767,33.3616344 C30.4951129,33.4128172 30.3875327,33.4734624 30.2759679,33.528086 C30.2741971,33.528086 30.271098,33.5289462 30.271098,33.5298065 L30.2693272,33.5306667 C25.6916314,35.7388387 22.4965414,40.2175484 22.2171869,45.4450753 C22.5182345,45.5272258 22.9729051,45.6571183 23.2270248,45.7345376 C23.412966,45.7904516 23.6936487,45.9306667 23.9309451,46.0588387 C23.9761023,41.227871 26.8785562,37.0605591 31.0715307,35.0489462 C31.0733016,35.048086 31.0733016,35.0476559 31.0733016,35.0463656 C31.0848123,35.0416344 31.0949947,35.0437849 31.1047345,35.0390538 C31.3570833,34.9083011 31.6010205,34.7913118 31.8418587,34.676043 C32.1659276,34.5203441 32.4780433,34.3693763 32.7782055,34.2024946 C33.4042076,33.855828 33.9226295,33.5298065 34.394566,33.2098065 C34.5220685,33.1259355 34.6300915,33.036043 34.7465262,32.952172 C35.001974,32.7659355 35.2428121,32.5753978 35.4517747,32.387871 C35.5735219,32.2820645 35.6846439,32.1818495 35.764333,32.0842151 C37.1611057,30.6596989 37.434705,29.0562581 37.434705,26.107871 L37.434705,3.91905376 L70.2095016,56.8020645 L55.74416,50.384 C55.7423891,50.3822796 55.7392901,50.3844301 55.7361911,50.384 C52.5278195,48.9573333 51.5529563,47.7650753 51.1226352,44.3371183 C51.1164371,44.2902366 51.1031556,44.1736774 51.091645,44.1298065 C50.265092,38.6476559 46.1898802,34.2489462 40.8369866,32.7108817 C40.4713022,32.6059355 40.183536,32.519914 40.1144721,32.5009892 C40.0042356,32.8528172 39.8461855,33.152172 39.7571994,33.3052903 C39.5703727,33.6252903 39.3800043,33.848086 39.1860942,34.0627097 C39.2679969,34.0812043 39.7784498,34.192172 39.859467,34.211957 C44.6722457,35.396043 48.3946118,39.1990538 49.2765045,44.0072258 M72.9211444,57.8627097 L37.3151713,0.413247312 C37.157564,0.156903226 36.8715687,-8.60215054e-05 36.5629948,-8.60215054e-05 C36.2539782,-8.60215054e-05 35.9684256,0.156903226 35.8108183,0.411956989 L0.126484302,57.6326022 C0.00562250837,57.8261505 -0.0311230187,58.0614194 0.0273156509,58.2816344 C0.0817698658,58.5018495 0.226095671,58.6923871 0.428860146,58.8089462 L36.1131941,79.4579785 C36.2508792,79.5379785 36.4089292,79.5779785 36.5629948,79.5779785 C36.7175031,79.5779785 36.8715687,79.5379785 37.0096965,79.4592688 L72.6156695,59.0390538 C72.818434,58.9220645 72.9609889,58.7336774 73.0211985,58.5134624 C73.0791944,58.2915269 73.0442198,58.0579785 72.9211444,57.8627097" id="Fill-1" fill="#FFFFFF" mask="url(#mask-2)"></path>
                    </g>
                    <g id="text" opacity="0.847769475" transform="translate(91.000000, 26.000000)" fill="#FFFFFF">
                        <path d="M7.25584793,1.07167026 L-0.000276951331,20.4789418 L1.60604077,20.4789418 L3.32313903,15.7625024 L12.5179232,15.7625024 L14.2340983,20.4789418 L15.8413392,20.4789418 L8.58521433,1.07167026 L7.25584793,1.07167026 Z M7.91960796,3.03420334 L12.0461828,14.454147 L3.79395629,14.454147 L7.91960796,3.03420334 Z" id="Fill-1"></path>
                        <path d="M28.4334854,20.6422137 C24.4730814,20.6422137 21.6767961,17.9709881 21.6767961,14.182209 L21.6767961,1.07139769 L23.1723333,1.07139769 L23.1723333,13.9914071 C23.1723333,17.2077808 25.2762402,19.3338583 28.4334854,19.3338583 C31.5907306,19.3338583 33.6955607,17.2077808 33.6955607,13.9914071 L33.6955607,1.07139769 L35.1910979,1.07139769 L35.1910979,14.182209 C35.1910979,17.9709881 32.3938894,20.6422137 28.4334854,20.6422137" id="Fill-2"></path>
                        <path d="M54.8655358,18.4071066 C53.5638646,19.8244916 51.6805955,20.6422137 49.6865459,20.6422137 C47.830972,20.6422137 46.0584835,19.9335212 44.7568122,18.6524232 C42.9575518,16.880692 42.9289335,15.1634755 42.9289335,10.7750335 C42.9289335,6.38750003 42.9575518,4.66937501 44.7568122,2.89855233 C46.0584835,1.61745435 47.830972,0.908761846 49.6865459,0.908761846 C53.1484376,0.908761846 55.8071704,3.14386897 56.4164633,6.57739328 L54.9209261,6.57739328 C54.3393283,3.90707628 52.3452787,2.21711723 49.6865459,2.21711723 C48.2740942,2.21711723 46.9447278,2.73409933 45.947703,3.71627445 C44.5361743,5.10549347 44.4244706,6.60465068 44.4244706,10.7750335 C44.4244706,14.9454163 44.5361743,16.4445735 45.947703,17.8347011 C46.9447278,18.8159676 48.2740942,19.3338583 49.6865459,19.3338583 C51.2374734,19.3338583 52.7607057,18.6796806 53.7854257,17.4530974 C54.6439748,16.4173161 54.9763164,15.2725051 54.9763164,13.6098035 L54.9763164,11.8653296 L49.6865459,11.8653296 L49.6865459,10.5569742 L56.4709304,10.5569742 L56.4709304,13.7188331 C56.4709304,15.735881 56.0287314,17.1805234 54.8655358,18.4071066" id="Fill-4"></path>
                        <path d="M70.8064852,20.6422137 C66.8460812,20.6422137 64.0497959,17.9709881 64.0497959,14.182209 L64.0497959,1.07139769 L65.5453331,1.07139769 L65.5453331,13.9914071 C65.5453331,17.2077808 67.64924,19.3338583 70.8064852,19.3338583 C73.9637304,19.3338583 76.0685605,17.2077808 76.0685605,13.9914071 L76.0685605,1.07139769 L77.5640977,1.07139769 L77.5640977,14.182209 C77.5640977,17.9709881 74.7668893,20.6422137 70.8064852,20.6422137" id="Fill-6"></path>
                        <path d="M93.234004,2.3805708 L87.4180261,2.3805708 L87.4180261,10.2307031 L93.234004,10.2307031 C95.753338,10.2307031 97.5821399,8.97595396 97.5821399,6.30472838 C97.5821399,3.63441138 95.753338,2.3805708 93.234004,2.3805708 Z M97.5544448,20.4785784 L92.8462722,11.5381499 L87.4180261,11.5381499 L87.4180261,20.4785784 L85.9224889,20.4785784 L85.9224889,1.07221541 L93.42787,1.07221541 C96.6395822,1.07221541 99.076754,2.89846147 99.076754,6.27837956 C99.076754,9.16675579 97.3042654,11.0484252 94.5356753,11.5108925 L99.298315,20.4785784 L97.5544448,20.4785784 Z" id="Fill-8"></path>
                    </g>
                </g>
            </g>
        </g>
    </g>
</svg>