<?xml version="1.0" encoding="UTF-8"?>
<svg width="105px" height="44px" viewBox="0 0 105 44" version="1.1" xmlns="http://www.w3.org/2000/svg" xmlns:xlink="http://www.w3.org/1999/xlink">
    <!-- Generator: Sketch 50.2 (55047) - http://www.bohemiancoding.com/sketch -->
    <title>Logo</title>
    <desc>Created with Sketch.</desc>
    <defs>
        <polygon id="path-1" points="4.30055434e-05 0 40.4727273 0 40.4727273 43.7678882 4.30055434e-05 43.7678882"></polygon>
    </defs>
    <g id="Page-1" stroke="none" stroke-width="1" fill="none" fill-rule="evenodd">
        <g id="Homepage---final" transform="translate(-166.000000, -20.000000)">
            <g id="Nav">
                <g id="Group-13" transform="translate(166.000000, 20.000000)">
                    <g id="Logo">
                        <g id="mark">
                            <mask id="mask-2" fill="white">
                                <use xlink:href="#path-1"></use>
                            </mask>
                            <g id="Clip-2"></g>
                            <path d="M27.3018471,24.2039742 L27.3715092,24.6179527 L27.3948117,24.7816516 C27.6891588,27.0608989 28.5758795,27.7270495 30.7748977,28.6983613 C30.7795581,28.7002538 30.7842186,28.6993075 30.7888791,28.7012 L38.7664216,32.2150495 L20.7548315,42.4703613 L20.7548315,36.6006194 C20.7548315,34.4469849 20.8845896,34.0606839 22.8007892,33.0042108 C23.1773082,32.7972215 23.5579972,32.5805333 23.9749889,32.3446839 L24.2352408,32.1956516 C25.4280824,31.5604903 26.4001638,30.6206409 27.1173896,29.5066839 C27.1433902,29.4657591 27.3349611,29.1773935 27.3604712,29.1362323 C27.2358643,29.0763828 27.1041439,28.9727699 26.9488758,28.8376946 C26.8463449,28.7487484 26.6940203,28.5758237 26.6192071,28.4336516 C25.9915119,29.6516946 25.0383178,30.6821462 23.8184943,31.3525548 L23.5231661,31.5212215 C23.111816,31.7544688 22.6923714,31.9829849 22.3170788,32.1885548 C19.9672077,33.4841892 19.7802973,34.2780817 19.7802973,36.6006194 L19.7802973,42.4767484 L1.60215583,32.0347914 L9.38101402,28.6422968 L9.88704575,28.4248989 C10.0849942,28.3286194 10.7070477,28.0752645 11.1873241,28.0605978 C11.6776573,28.0305548 12.4213743,28.0620172 12.8216864,28.571329 C13.3902669,29.2897591 13.9343185,29.9762538 13.9343185,29.9762538 C14.7918497,31.0854796 15.9133122,31.9929204 17.2530821,32.5374796 C17.2530821,32.5374796 17.2601955,32.5419742 17.264856,32.5438667 C17.2658372,32.5438667 17.2658372,32.5443398 17.2658372,32.5443398 L17.2658372,32.5441032 C17.6190537,32.6881677 17.9990067,32.7709634 18.3762616,32.8587269 C18.453773,32.7101677 18.5761724,32.537243 18.6880243,32.3969634 C18.7689697,32.2957161 18.8901426,32.1710495 19.003221,32.0541892 C18.4339046,31.9425333 17.7784917,31.7622753 17.2677995,31.5179097 L17.2658372,31.5167269 C16.2483773,31.0336731 15.3682795,30.3573505 14.692017,29.4875226 C14.6819601,29.4756946 14.6584124,29.4475441 14.6493367,29.4342968 C14.6483555,29.433114 14.6226001,29.3973935 14.6015053,29.3673505 C14.5333148,29.2762753 14.4643886,29.1885118 14.4008586,29.0943613 C14.220571,28.8521247 13.9473188,28.491372 13.5644223,28.0092645 C13.3068686,27.6828129 12.9472745,27.4680172 12.564378,27.3298667 C12.5653591,27.3301032 12.5653591,27.3305763 12.5653591,27.3308129 C12.152292,27.1829634 11.6747139,27.1174366 11.1539648,27.1209849 C10.3646239,27.1467699 9.48771484,27.5668989 9.47029931,27.5751785 L9.19704707,27.6927484 L9.19631121,27.6927484 L9.1759522,27.7012645 L8.46755683,28.0057161 C8.46289633,28.007372 8.46289633,28.0123398 8.45921699,28.0142323 L1.66102526,30.9795011 L19.7638629,2.16115699 L19.7638629,14.359329 C19.7638629,16.4673075 19.6093307,16.9276516 17.6762061,17.9933505 C17.5280514,18.0749634 17.370821,18.1497161 17.20893,18.2258882 C17.1270034,18.2653935 17.0433598,18.3079742 16.9594709,18.3488989 C16.895941,18.3770495 16.8363357,18.4104043 16.7745228,18.4404473 C16.7735416,18.4404473 16.7718246,18.4409204 16.7718246,18.4413935 L16.7708434,18.4418667 C14.2345525,19.6563613 12.4643,22.1196516 12.3095224,24.9947914 C12.4763191,25.0399742 12.7282312,25.1114151 12.8690272,25.1539957 C12.9720487,25.1847484 13.1275621,25.2618667 13.2590372,25.3323613 C13.2840567,22.675329 14.892173,20.3833075 17.2153076,19.2769204 C17.2162887,19.2764473 17.2162887,19.2762108 17.2162887,19.2755011 C17.2226662,19.2728989 17.2283079,19.2740817 17.2337043,19.2714796 C17.3735191,19.1995656 17.5086735,19.1352215 17.6421109,19.0718237 C17.8216626,18.9861892 17.9945915,18.903157 18.1608977,18.811372 C18.5077367,18.6207054 18.7949704,18.4413935 19.0564487,18.2653935 C19.127092,18.2192645 19.1869426,18.1698237 19.2514537,18.1236946 C19.3929856,18.0212645 19.5264229,17.9164688 19.6421995,17.813329 C19.709654,17.7551355 19.7712216,17.7000172 19.8153737,17.6463183 C20.5892613,16.8628344 20.74085,15.9809419 20.74085,14.359329 L20.74085,2.15547957 L38.899859,31.2411355 L30.8852778,27.7112 C30.8842967,27.7102538 30.8825796,27.7114366 30.8808626,27.7112 C29.1032514,26.9265333 28.5631244,26.2707914 28.3247033,24.3854151 C28.3212692,24.3596301 28.3139105,24.2955226 28.307533,24.2713935 C27.849578,21.2562108 25.5916904,18.8369204 22.625898,17.9909849 C22.4232891,17.9332645 22.263851,17.8859527 22.2255859,17.8755441 C22.1645089,18.0690495 22.0769406,18.2336946 22.0276375,18.3179097 C21.9241254,18.4939097 21.818651,18.6164473 21.7112143,18.7344903 C21.7565929,18.7446624 22.0394114,18.8056946 22.0842993,18.8165763 C24.7508388,19.4678237 26.8132309,21.5594796 27.3018471,24.2039742 M40.4022557,31.8244903 L20.674622,0.227286022 C20.587299,0.0862967742 20.4288421,-4.7311828e-05 20.2578755,-4.7311828e-05 C20.0866636,-4.7311828e-05 19.928452,0.0862967742 19.8411291,0.226576344 L0.0700791405,31.6979312 C0.00311517355,31.8043828 -0.0172438347,31.9337806 0.0151343471,32.0548989 C0.0453049256,32.1760172 0.125269223,32.2808129 0.237611702,32.3449204 L20.0086616,43.7018882 C20.0849466,43.7458882 20.1725148,43.7678882 20.2578755,43.7678882 C20.3434815,43.7678882 20.4288421,43.7458882 20.5053724,43.7025978 L40.2330061,32.4714796 C40.3453486,32.4071355 40.4243317,32.3035226 40.457691,32.1824043 C40.4898239,32.0603398 40.4704461,31.9318882 40.4022557,31.8244903" id="Fill-1" fill="#553580" mask="url(#mask-2)"></path>
                        </g>
                        <g id="text" opacity="0.847769475" transform="translate(50.109091, 14.347826)" fill="#553580">
                            <path d="M3.99071636,0.584547417 L-0.000152323232,11.1703319 L0.883322424,11.1703319 L1.82772646,8.59772858 L6.88485778,8.59772858 L7.82875407,11.1703319 L8.71273657,11.1703319 L4.72186788,0.584547417 L3.99071636,0.584547417 Z M4.35578438,1.65502001 L6.62540054,7.88408018 L2.08667596,7.88408018 L4.35578438,1.65502001 Z" id="Fill-1"></path>
                            <path d="M15.638417,11.2593893 C13.4601947,11.2593893 11.9222378,9.80235715 11.9222378,7.73575035 L11.9222378,0.58439874 L12.7447833,0.58439874 L12.7447833,7.63167662 C12.7447833,9.38606226 13.9019321,10.5457409 15.638417,10.5457409 C17.3749018,10.5457409 18.5325584,9.38606226 18.5325584,7.63167662 L18.5325584,0.58439874 L19.3551038,0.58439874 L19.3551038,7.73575035 C19.3551038,9.80235715 17.8166392,11.2593893 15.638417,11.2593893" id="Fill-2"></path>
                            <path d="M30.1760447,10.0402399 C29.4601255,10.813359 28.4243275,11.2593893 27.3276003,11.2593893 C26.3070346,11.2593893 25.3321659,10.8728297 24.6162467,10.174049 C23.6266535,9.20765016 23.6109134,8.27098664 23.6109134,5.87729099 C23.6109134,3.48409093 23.6266535,2.54693182 24.6162467,1.58102854 C25.3321659,0.882247826 26.3070346,0.49568828 27.3276003,0.49568828 C29.2316407,0.49568828 30.6939437,1.71483762 31.0290548,3.58766906 L30.2065094,3.58766906 C29.8866306,2.13113251 28.7899033,1.20933667 27.3276003,1.20933667 C26.5507518,1.20933667 25.8196003,1.49132691 25.2712366,2.02705879 C24.4948959,2.78481462 24.4334589,3.60253674 24.4334589,5.87729099 C24.4334589,8.15204524 24.4948959,8.96976736 25.2712366,9.72801878 C25.8196003,10.2632551 26.5507518,10.5457409 27.3276003,10.5457409 C28.1806104,10.5457409 29.0183881,10.1889167 29.5819841,9.51987133 C30.0541861,8.95489968 30.236974,8.33045734 30.236974,7.42352917 L30.236974,6.47199798 L27.3276003,6.47199798 L27.3276003,5.75834959 L31.0590117,5.75834959 L31.0590117,7.48299987 C31.0590117,8.58320781 30.8158023,9.37119458 30.1760447,10.0402399" id="Fill-4"></path>
                            <path d="M38.9435669,11.2593893 C36.7653446,11.2593893 35.2273877,9.80235715 35.2273877,7.73575035 L35.2273877,0.58439874 L36.0499332,0.58439874 L36.0499332,7.63167662 C36.0499332,9.38606226 37.207082,10.5457409 38.9435669,10.5457409 C40.6800517,10.5457409 41.8377083,9.38606226 41.8377083,7.63167662 L41.8377083,0.58439874 L42.6602537,0.58439874 L42.6602537,7.73575035 C42.6602537,9.80235715 41.1217891,11.2593893 38.9435669,11.2593893" id="Fill-6"></path>
                            <path d="M51.2787022,1.29849316 L48.0799143,1.29849316 L48.0799143,5.58038352 L51.2787022,5.58038352 C52.6643359,5.58038352 53.670177,4.89597489 53.670177,3.43894275 C53.670177,1.98240621 52.6643359,1.29849316 51.2787022,1.29849316 Z M53.6549446,11.1701337 L51.0654497,6.29353633 L48.0799143,6.29353633 L48.0799143,11.1701337 L47.2573689,11.1701337 L47.2573689,0.58484477 L51.3853285,0.58484477 C53.1517702,0.58484477 54.4922147,1.58097899 54.4922147,3.42457067 C54.4922147,5.00004861 53.517346,6.02641377 51.9946214,6.27866865 L54.6140733,11.1701337 L53.6549446,11.1701337 Z" id="Fill-8"></path>
                        </g>
                    </g>
                </g>
            </g>
        </g>
    </g>
</svg>