<?xml version="1.0" encoding="UTF-8"?>
<svg width="32px" height="42px" viewBox="0 0 32 42" version="1.1" xmlns="http://www.w3.org/2000/svg" xmlns:xlink="http://www.w3.org/1999/xlink">
    <!-- Generator: Sketch 50.2 (55047) - http://www.bohemiancoding.com/sketch -->
    <title>icon/lowTradingFees</title>
    <desc>Created with Sketch.</desc>
    <defs></defs>
    <g id="Designs" stroke="none" stroke-width="1" fill="none" fill-rule="evenodd">
        <g id="Homepage---final" transform="translate(-159.000000, -6871.000000)">
            <g id="Group-11" transform="translate(160.000000, 6871.000000)">
                <g id="icon/lowTradingFees" transform="translate(0.000000, 1.000000)">
                    <path d="M23.6173833,22 L29.3562883,22 C29.6021032,22 29.8393065,22.0905395 30.0226033,22.2543297 C30.4344257,22.6223253 30.4699543,23.2544927 30.1019587,23.666315 L16.0771434,39.3614267 C16.0521979,39.389343 16.0257044,39.4158365 15.997788,39.440782 C15.5859657,39.8087776 14.9537983,39.773249 14.5858027,39.3614267 L0.560987352,23.666315 C0.397197198,23.4830182 0.306657701,23.2458149 0.306657701,23 C0.306657701,22.4477153 0.754372951,22 1.3066577,22 L7.04556268,22 L7.04556268,1 C7.04556268,0.44771525 7.49327793,1.01453063e-16 8.04556268,0 L22.6173833,0 C23.1696681,8.7960173e-16 23.6173833,0.44771525 23.6173833,1 L23.6173833,22 Z" id="Combined-Shape" stroke="#553580"></path>
                    <path d="M18.6145455,17.1818182 L17.0924432,18.1204545 C16.6135795,17.2772727 16.015,16.8954545 15.3138068,16.8954545 C14.5442045,16.8954545 14.0653409,17.4522727 14.0653409,18.1045455 C14.0653409,20.3 19.1960227,19.8704545 19.1960227,23.3068182 C19.1960227,25.0727273 17.9988636,26.3295455 16.2886364,26.6159091 L16.2886364,28 L14.5784091,28 L14.5784091,26.6159091 C12.9536932,26.3136364 11.8591477,25.1204545 11.5,23.5931818 L13.0392045,22.6863636 C13.38125,23.9272727 14.0824432,25.0409091 15.450625,25.0409091 C16.5280682,25.0409091 17.2805682,24.3568182 17.2805682,23.3704545 C17.2805682,21.1909091 12.1840909,21.6681818 12.1840909,18.2318182 C12.1840909,16.8 13.193125,15.6704545 14.5784091,15.3840909 L14.5784091,14 L16.2886364,14 L16.2886364,15.4159091 C17.3660795,15.6704545 18.1185795,16.3545455 18.6145455,17.1818182 Z" id="$" fill="#553580"></path>
                </g>
            </g>
        </g>
    </g>
</svg>