<?xml version="1.0" encoding="UTF-8"?>
<svg width="21px" height="24px" viewBox="0 0 21 24" version="1.1" xmlns="http://www.w3.org/2000/svg" xmlns:xlink="http://www.w3.org/1999/xlink">
    <!-- Generator: Sketch 50.2 (55047) - http://www.bohemiancoding.com/sketch -->
    <title>Discord-Logo-Black</title>
    <desc>Created with Sketch.</desc>
    <defs></defs>
    <g id="Symbols" stroke="none" stroke-width="1" fill="none" fill-rule="evenodd">
        <g id="footer" transform="translate(-1018.000000, -321.000000)" fill="#FFFFFF" fill-rule="nonzero">
            <g id="icons">
                <g transform="translate(1018.000000, 321.000000)">
                    <g id="Discord-Logo-Black">
                        <path d="M8.49068541,10.2 C7.76942004,10.2 7.2,10.8756757 7.2,11.7 C7.2,12.5243243 7.78207381,13.2 8.49068541,13.2 C9.21195079,13.2 9.78137083,12.5243243 9.78137083,11.7 C9.7940246,10.8756757 9.21195079,10.2 8.49068541,10.2 Z M13.1093146,10.2 C12.3880492,10.2 11.8186292,10.8756757 11.8186292,11.7 C11.8186292,12.5243243 12.400703,13.2 13.1093146,13.2 C13.83058,13.2 14.4,12.5243243 14.4,11.7 C14.4,10.8756757 13.83058,10.2 13.1093146,10.2 Z" id="Shape"></path>
                        <path d="M18.54,0 L2.46,0 C1.104,0 0,1.104 0,2.472 L0,18.696 C0,20.064 1.104,21.168 2.46,21.168 L16.068,21.168 L15.432,18.948 L16.968,20.376 L18.42,21.72 L21,24 L21,2.472 C21,1.104 19.896,0 18.54,0 Z M13.908,15.672 C13.908,15.672 13.476,15.156 13.116,14.7 C14.688,14.256 15.288,13.272 15.288,13.272 C14.796,13.596 14.328,13.824 13.908,13.98 C13.308,14.232 12.732,14.4 12.168,14.496 C11.016,14.712 9.96,14.652 9.06,14.484 C8.376,14.352 7.788,14.16 7.296,13.968 C7.02,13.86 6.72,13.728 6.42,13.56 C6.384,13.536 6.348,13.524 6.312,13.5 C6.288,13.488 6.276,13.476 6.264,13.464 C6.048,13.344 5.928,13.26 5.928,13.26 C5.928,13.26 6.504,14.22 8.028,14.676 C7.668,15.132 7.224,15.672 7.224,15.672 C4.572,15.588 3.564,13.848 3.564,13.848 C3.564,9.984 5.292,6.852 5.292,6.852 C7.02,5.556 8.664,5.592 8.664,5.592 L8.784,5.736 C6.624,6.36 5.628,7.308 5.628,7.308 C5.628,7.308 5.892,7.164 6.336,6.96 C7.62,6.396 8.64,6.24 9.06,6.204 C9.132,6.192 9.192,6.18 9.264,6.18 C9.996,6.084 10.824,6.06 11.688,6.156 C12.828,6.288 14.052,6.624 15.3,7.308 C15.3,7.308 14.352,6.408 12.312,5.784 L12.48,5.592 C12.48,5.592 14.124,5.556 15.852,6.852 C15.852,6.852 17.58,9.984 17.58,13.848 C17.58,13.848 16.56,15.588 13.908,15.672 Z" id="Shape"></path>
                    </g>
                </g>
            </g>
        </g>
    </g>
</svg>