<?xml version="1.0" encoding="UTF-8"?>
<svg width="24px" height="24px" viewBox="0 0 24 24" version="1.1" xmlns="http://www.w3.org/2000/svg" xmlns:xlink="http://www.w3.org/1999/xlink">
    <!-- Generator: Sketch 50.2 (55047) - http://www.bohemiancoding.com/sketch -->
    <title>Reddit_Mark_OnWhite</title>
    <desc>Created with Sketch.</desc>
    <defs></defs>
    <g id="Symbols" stroke="none" stroke-width="1" fill="none" fill-rule="evenodd">
        <g id="footer" transform="translate(-1208.000000, -321.000000)" fill="#FFFFFF" fill-rule="nonzero">
            <g id="icons">
                <g transform="translate(1018.000000, 321.000000)">
                    <g id="Reddit_Mark_OnWhite" transform="translate(190.000000, 0.000000)">
                        <path d="M11.9860465,23.9162791 C5.39716101,23.9162791 0.0558139535,18.574932 0.0558139535,11.9860465 C0.0558139535,5.39716101 5.39716101,0.0558139535 11.9860465,0.0558139535 C18.574932,0.0558139535 23.9162791,5.39716101 23.9162791,11.9860465 C23.9162791,18.574932 18.574932,23.9162791 11.9860465,23.9162791 Z M19.9395349,11.9860465 C19.9395349,11.0232558 19.1581395,10.2418605 18.1953488,10.2418605 C17.7209302,10.2418605 17.3023256,10.4232558 16.9953488,10.7302326 C15.8093023,9.87906977 14.1627907,9.32093023 12.3488372,9.25116279 L13.144186,5.5255814 L15.7255814,6.06976744 C15.7534884,6.7255814 16.2976744,7.25581395 16.9674419,7.25581395 C17.6511628,7.25581395 18.2093023,6.69767442 18.2093023,6.01395349 C18.2093023,5.33023256 17.6511628,4.77209302 16.9674419,4.77209302 C16.4790698,4.77209302 16.0604651,5.05116279 15.8651163,5.46976744 L12.9767442,4.85581395 C12.8930233,4.84186047 12.8093023,4.85581395 12.7395349,4.89767442 C12.6697674,4.93953488 12.627907,5.00930233 12.6,5.09302326 L11.7209302,9.25116279 C9.86511628,9.30697674 8.20465116,9.85116279 7.00465116,10.7302326 C6.69767442,10.4372093 6.26511628,10.2418605 5.80465116,10.2418605 C4.84186047,10.2418605 4.06046512,11.0232558 4.06046512,11.9860465 C4.06046512,12.6976744 4.47906977,13.2976744 5.09302326,13.5767442 C5.06511628,13.744186 5.05116279,13.9255814 5.05116279,14.1069767 C5.05116279,16.7860465 8.1627907,18.9488372 12.0139535,18.9488372 C15.8651163,18.9488372 18.9767442,16.7860465 18.9767442,14.1069767 C18.9767442,13.9255814 18.9627907,13.7581395 18.9348837,13.5906977 C19.5069767,13.3116279 19.9395349,12.6976744 19.9395349,11.9860465 Z" id="Combined-Shape"></path>
                        <path d="M8.00930233,13.227907 C8.00930233,12.544186 8.56744186,11.9860465 9.25116279,11.9860465 C9.93488372,11.9860465 10.4930233,12.544186 10.4930233,13.227907 C10.4930233,13.9116279 9.93488372,14.4697674 9.25116279,14.4697674 C8.56744186,14.4697674 8.00930233,13.9116279 8.00930233,13.227907 Z M14.944186,16.5069767 C14.0930233,17.3581395 12.4744186,17.4139535 12,17.4139535 C11.5255814,17.4139535 9.89302326,17.344186 9.05581395,16.5069767 C8.93023256,16.3813953 8.93023256,16.172093 9.05581395,16.0465116 C9.18139535,15.9209302 9.39069767,15.9209302 9.51627907,16.0465116 C10.0465116,16.5767442 11.1906977,16.772093 12.0139535,16.772093 C12.8372093,16.772093 13.9674419,16.5767442 14.5116279,16.0465116 C14.6372093,15.9209302 14.8465116,15.9209302 14.972093,16.0465116 C15.0697674,16.1860465 15.0697674,16.3813953 14.944186,16.5069767 Z M14.7209302,14.4697674 C14.0372093,14.4697674 13.4790698,13.9116279 13.4790698,13.227907 C13.4790698,12.544186 14.0372093,11.9860465 14.7209302,11.9860465 C15.4046512,11.9860465 15.9627907,12.544186 15.9627907,13.227907 C15.9627907,13.9116279 15.4046512,14.4697674 14.7209302,14.4697674 Z" id="Shape"></path>
                    </g>
                </g>
            </g>
        </g>
    </g>
</svg>