<?xml version="1.0" encoding="UTF-8"?>
<svg width="26px" height="24px" viewBox="0 0 26 24" version="1.1" xmlns="http://www.w3.org/2000/svg" xmlns:xlink="http://www.w3.org/1999/xlink">
    <!-- Generator: Sketch 50.2 (55047) - http://www.bohemiancoding.com/sketch -->
    <title>Fill 4</title>
    <desc>Created with Sketch.</desc>
    <defs></defs>
    <g id="Symbols" stroke="none" stroke-width="1" fill="none" fill-rule="evenodd">
        <g id="footer" transform="translate(-1256.000000, -321.000000)" fill="#FFFFFF">
            <g id="icons">
                <g transform="translate(1018.000000, 321.000000)">
                    <path d="M250.520586,0 C243.606898,0 238,5.5085046 238,12.3040642 C238,17.7400586 241.587523,22.3512503 246.563318,23.9781965 C247.189809,24.0914936 247.418113,23.7115707 247.418113,23.385275 C247.418113,23.0937239 247.407351,22.3195271 247.401201,21.2930554 C243.918222,22.0362843 243.183344,19.6434498 243.183344,19.6434498 C242.613738,18.2219489 241.792766,17.8435366 241.792766,17.8435366 C240.655859,17.0806696 241.87886,17.0957758 241.87886,17.0957758 C243.135685,17.1826369 243.796767,18.3639479 243.796767,18.3639479 C244.913688,20.2439244 246.72782,19.7008536 247.441174,19.3858877 C247.554941,18.5912974 247.878564,18.048982 248.23601,17.7415693 C245.455622,17.4311352 242.532255,16.3752063 242.532255,11.6605367 C242.532255,10.3175885 243.02038,9.2186067 243.821365,8.35905943 C243.692224,8.04787008 243.26252,6.79631488 243.944357,5.10290101 C243.944357,5.10290101 244.99517,4.7720735 247.387365,6.3642753 C248.385906,6.09085165 249.457474,5.95489514 250.522123,5.94960794 C251.586004,5.95489514 252.656803,6.09085165 253.656882,6.3642753 C256.047539,4.7720735 257.096815,5.10290101 257.096815,5.10290101 C257.780189,6.79631488 257.350486,8.04787008 257.222113,8.35905943 C258.024636,9.2186067 258.508917,10.3175885 258.508917,11.6605367 C258.508917,16.3872913 255.580938,17.4273587 252.792095,17.7317502 C253.241015,18.1116731 253.641508,18.8624551 253.641508,20.0105323 C253.641508,21.6548508 253.626134,22.9819374 253.626134,23.385275 C253.626134,23.7145919 253.852132,24.0975361 254.487078,23.9774412 C259.45903,22.3467184 263.043478,17.738548 263.043478,12.3040642 C263.043478,5.5085046 257.43658,0 250.520586,0" id="Fill-4"></path>
                </g>
            </g>
        </g>
    </g>
</svg>