<?xml version="1.0" encoding="UTF-8"?>
<svg width="24px" height="14px" viewBox="0 0 24 14" version="1.1" xmlns="http://www.w3.org/2000/svg" xmlns:xlink="http://www.w3.org/1999/xlink">
    <!-- Generator: Sketch 50.2 (55047) - http://www.bohemiancoding.com/sketch -->
    <title>arrow</title>
    <desc>Created with Sketch.</desc>
    <defs></defs>
    <g id="Page-1" stroke="none" stroke-width="1" fill="none" fill-rule="evenodd">
        <g id="Homepage---final" transform="translate(-350.000000, -8055.000000)">
            <g id="Group-7" transform="translate(160.000000, 7784.000000)">
                <g id="arrow" transform="translate(190.000000, 270.000000)">
                    <path d="M1,7 L21,7 C21.5522847,7 22,7.44771525 22,8 L22,8 C22,8.55228475 21.5522847,9 21,9 L1,9 C0.44771525,9 6.76353751e-17,8.55228475 0,8 L0,8 C-6.76353751e-17,7.44771525 0.44771525,7 1,7 Z" id="Rectangle-7" fill="#553580"></path>
                    <g id="Group-3" transform="translate(17.000000, 8.000000) rotate(45.000000) translate(-17.000000, -8.000000) translate(12.000000, 3.000000)">
                        <rect id="Rectangle-7" fill="#553580" x="0" y="0" width="10" height="2" rx="1"></rect>
                        <g id="Rectangle-7"></g>
                        <g id="Rectangle-7" transform="translate(9.000000, 5.000000) rotate(90.000000) translate(-9.000000, -5.000000) translate(4.000000, 4.000000)" fill="#553580">
                            <rect x="0" y="0" width="10" height="2" rx="1"></rect>
                        </g>
                    </g>
                </g>
            </g>
        </g>
    </g>
</svg>