<?xml version="1.0" encoding="UTF-8"?>
<svg width="104px" height="112px" viewBox="0 0 104 112" version="1.1" xmlns="http://www.w3.org/2000/svg" xmlns:xlink="http://www.w3.org/1999/xlink">
    <!-- Generator: Sketch 50.2 (55047) - http://www.bohemiancoding.com/sketch -->
    <title>noun_1473421_cc</title>
    <desc>Created with Sketch.</desc>
    <defs></defs>
    <g id="Page-1" stroke="none" stroke-width="1" fill="none" fill-rule="evenodd">
        <g id="Homepage---final" transform="translate(-976.000000, -5376.000000)" fill="#553580">
            <g id="the-currencies-of-augur" transform="translate(0.000000, 5079.000000)">
                <g id="useCase" transform="translate(740.000000, 242.000000)">
                    <g id="noun_1473421_cc" transform="translate(236.000000, 55.000000)">
                        <path d="M70.0422394,62.9962544 L70.1018693,63.415152 C70.8550891,69.247634 73.1241638,70.9522806 78.7513435,73.4378199 C78.7592941,73.4410484 85.5759334,76.4407259 99.2012613,82.4368524 L53.1104858,108.679692 L53.1104858,93.6593107 C53.1104858,88.1482659 53.4425302,87.1597404 58.3459911,84.4562775 C59.3094848,83.9266021 60.2836491,83.3721077 61.3507105,82.7685805 L62.0166824,82.3872143 C65.0691056,80.7618677 67.5566141,78.356839 69.3919597,75.5062777 C69.4584941,75.4015534 69.9487146,74.66364 70.0139937,74.5583102 C69.6951306,74.4051584 69.3580648,74.1400181 68.9607413,73.7943671 C68.6983697,73.566758 68.3085785,73.1242521 68.1171351,72.7604408 C66.5108939,75.8773531 64.0717171,78.5142283 60.9502486,80.229771 L60.1945181,80.6613807 C59.1418934,81.2582492 58.0685552,81.8430107 57.1081999,82.369054 C51.0949951,85.6845189 50.6167005,87.7160508 50.6167005,93.6593107 L50.6167005,108.696037 L4.09972814,81.9755809 L24.0054447,73.2943536 L25.3003551,72.7380431 C25.8068954,72.4916684 27.3986999,71.8433458 28.6277036,71.8058145 C29.8824422,71.7289359 31.7855776,71.8094466 32.8099566,73.1127506 C34.2649262,74.951178 35.6571274,76.7078841 35.6571274,76.7078841 C37.8515078,79.5463385 40.7212753,81.8684351 44.1496808,83.2619353 C45.0861841,83.6475389 46.0584653,83.859409 47.023842,84.0839914 C47.2221899,83.7038358 47.5354038,83.2613299 47.8216274,82.9023614 C48.0287628,82.6432745 48.3388383,82.3242586 48.6282002,82.025219 C47.1713476,81.739497 45.4941781,81.2782255 44.1873418,80.6529059 C41.5786905,79.4137683 39.3265633,77.683092 37.5960408,75.4572449 C37.4843132,75.318016 37.4184064,75.2266092 37.3644257,75.1497306 C37.1899297,74.9166734 37.0135508,74.6920911 36.8509808,74.4511645 C36.3896337,73.831293 35.6903946,72.9081446 34.7105812,71.6744551 C34.0515139,70.8390814 33.1313303,70.2894297 32.1515169,69.9359093 C31.0970092,69.5599911 29.87491,69.3923111 28.5423386,69.4013912 C26.5224542,69.4673736 24.2784868,70.5424632 24.2339213,70.5636502 L23.5346823,70.8645058 L21.6679525,71.6653749 C21.6600019,71.6681998 15.8541417,74.2047898 4.2503721,79.2751447 L50.5746458,5.5304158 L50.5746458,36.7449397 C50.5746458,42.1391533 50.1792054,43.3171512 45.2324343,46.0442225 C44.8533136,46.2530659 44.4509687,46.4443544 44.0366978,46.6392749 C43.8270516,46.7403672 43.6130117,46.849329 43.398344,46.9540534 C43.2357741,47.0260892 43.0832471,47.1114426 42.9250709,47.1883212 C36.4254116,50.2997854 31.8954222,56.6032245 31.4993541,63.9605662 C31.9261786,64.0761868 32.5708093,64.2590004 32.9310994,64.3679622 C33.1947263,64.4466568 33.5926775,64.6439987 33.9291157,64.824391 C33.9931393,58.0251758 38.1082302,52.1600052 44.0530176,49.3288149 C44.4578732,49.1308676 44.8037267,48.9662143 45.1451863,48.8039823 C45.6046504,48.584848 46.047167,48.3723726 46.4727362,48.1374994 C47.3602802,47.6495927 48.0952972,47.1907426 48.7644075,46.7403672 C48.9451802,46.6223253 49.0983349,46.4958085 49.2634156,46.3777666 C49.6255888,46.115653 49.9670485,45.8474859 50.2633149,45.5835563 C50.4359278,45.4346418 50.5934763,45.2935969 50.7064592,45.156184 C52.6867996,43.1512872 53.0747078,40.8945676 53.0747078,36.7449397 L53.0747078,5.51588756 L99.542721,79.9446543 L79.0338009,70.9117226 C74.4736826,68.9037991 73.0915243,67.2257876 72.4814162,62.401202 C71.2655939,54.3937217 65.4877703,48.2028765 57.898453,46.0381691 C57.3799867,45.8904653 56.9719927,45.7693967 56.8740741,45.7427616 C56.717781,46.2379323 56.4936981,46.6592512 56.3675338,46.8747534 C56.1026515,47.3251288 55.8327477,47.6386966 55.5578225,47.9407628 C55.6739439,47.9667926 56.3976626,48.1229712 56.5125286,48.1508169 C63.3360724,49.8173269 68.6136325,55.1697718 69.8639774,61.9369038 L70.0422394,62.9962544 Z M52.9052334,0.581734849 C52.6817782,0.220950281 52.2762949,0 51.8387997,0 C51.4006768,0 50.9958212,0.220950281 50.772366,0.579918819 L0.179219034,81.1135721 C0.00786152724,81.3859766 -0.0442361763,81.7170993 0.0386180028,82.0270351 C0.115823033,82.3369708 0.320447748,82.6051379 0.607926642,82.7691859 L51.2010736,111.831109 C51.396283,111.943703 51.6203659,112 51.8387997,112 C52.0578611,112 52.2762949,111.943703 52.472132,111.832925 L102.954179,83.0930445 C103.241658,82.9283911 103.443772,82.6632508 103.529137,82.3533151 C103.611363,82.040958 103.561776,81.7122566 103.38728,81.4374308 L52.9052334,0.581734849 Z" id="Fill-1"></path>
                    </g>
                </g>
            </g>
        </g>
    </g>
</svg>