<?xml version="1.0" encoding="UTF-8"?>
<svg width="37px" height="40px" viewBox="0 0 37 40" version="1.1" xmlns="http://www.w3.org/2000/svg" xmlns:xlink="http://www.w3.org/1999/xlink">
    <!-- Generator: Sketch 50.2 (55047) - http://www.bohemiancoding.com/sketch -->
    <title>icon/automatedPayouts</title>
    <desc>Created with Sketch.</desc>
    <defs></defs>
    <g id="Designs" stroke="none" stroke-width="1" fill="none" fill-rule="evenodd">
        <g id="Homepage---final" transform="translate(-736.000000, -6873.000000)">
            <g id="icon/automatedPayouts" transform="translate(736.000000, 6873.000000)">
                <path d="M34.5,8.5 L34.5,2.5 L2.5,2.5 L2.5,8.5 L34.5,8.5 Z" id="Rectangle-30" stroke="#553580"></path>
                <path d="M36.5,10.5 L36.5,0.5 L0.5,0.5 L0.5,10.5 L36.5,10.5 Z" id="Rectangle-30" stroke="#553580"></path>
                <g id="icon/insurancehedging" transform="translate(8.000000, 2.000000)">
                    <g id="Group-17" transform="translate(11.375000, 18.777778) rotate(-90.000000) translate(-11.375000, -18.777778) translate(-6.625000, 8.277778)">
                        <polyline id="Rectangle-13" stroke="#553580" points="34.4444444 20.25 1.989e-13 20.25 2.62043935e-13 1.125"></polyline>
                        <path d="M35.2835538,18.625 L35.4941565,0.5 L1.61111111,0.5 L1.61111111,18.625 L35.2835538,18.625 Z" id="Rectangle-13" stroke="#553580"></path>
                        <path d="M22.7598566,4.9725 L20.7526882,6.20590909 C20.2365591,5.24863636 19.6821983,4.84363636 18.8984468,4.84363636 C18.172043,4.84363636 17.6176822,5.34068182 17.6176822,6.02181818 C17.6176822,8.26772727 23.3333333,7.97318182 23.3333333,11.8022727 C23.3333333,13.9377273 22.1099164,15.3184091 20.1983274,15.705 L20.1983274,17.325 L17.8661888,17.325 L17.8661888,15.6681818 C16.0310633,15.2447727 14.7885305,13.8088636 14.4444444,12.2072727 L16.4516129,10.9922727 C16.8530466,12.3729545 17.655914,13.6063636 19.1087216,13.6063636 C20.1409797,13.6063636 20.8482676,13.1093182 20.8482676,11.9311364 C20.8482676,9.79568182 15.2473118,10.2190909 15.2473118,6.13227273 C15.2473118,4.51227273 16.2986858,3.18681818 17.8661888,2.76340909 L17.8661888,1.125 L20.1983274,1.125 L20.1983274,2.80022727 C21.3452808,3.11318182 22.2246117,3.86795455 22.7598566,4.9725 Z" id="$" fill="#553580" transform="translate(18.888889, 9.225000) rotate(90.000000) translate(-18.888889, -9.225000) "></path>
                    </g>
                </g>
            </g>
        </g>
    </g>
</svg>