<?xml version="1.0" encoding="UTF-8"?>
<svg width="40px" height="40px" viewBox="0 0 40 40" version="1.1" xmlns="http://www.w3.org/2000/svg" xmlns:xlink="http://www.w3.org/1999/xlink">
    <!-- Generator: Sketch 50.2 (55047) - http://www.bohemiancoding.com/sketch -->
    <title>icon/openToAll</title>
    <desc>Created with Sketch.</desc>
    <defs></defs>
    <g id="Designs" stroke="none" stroke-width="1" fill="none" fill-rule="evenodd">
        <g id="Homepage---final" transform="translate(-1024.000000, -6872.000000)" fill="#553580" fill-rule="nonzero">
            <g id="icon/openToAll" transform="translate(1024.000000, 6872.000000)">
                <path d="M19.9995743,40 C17.5765702,40 15.252751,39.5666564 13.1013345,38.7740377 C13.0217313,38.7476454 12.9736288,38.7301925 12.9600068,38.72551 C12.9357427,38.7169964 12.91233,38.7063544 12.8897686,38.694861 C5.36151374,35.8219375 0,28.5253334 0,20.0002128 C0,12.5771814 4.07721942,5.80288825 10.639593,2.32124044 C12.5006917,1.29109155 14.4818339,0.611704109 16.5285316,0.300956719 C17.6668157,0.100886481 18.834472,0 19.9995743,0 C22.1450312,0 24.2560075,0.337990997 26.27461,1.00418232 C26.3631526,1.01439867 26.4499926,1.03695978 26.5325756,1.07101429 C26.6419769,1.11613652 26.7496754,1.16083306 26.8569483,1.20723233 C29.124577,2.0343312 31.2057553,3.25646238 33.0434412,4.83871998 C38.5484111,9.27857652 39.845476,14.8681984 39.963391,18.7793587 C39.9880808,19.1833303 40,19.5941128 40,19.9997872 C40,28.0281375 35.2450886,34.9667436 28.4034651,38.1478604 C28.3719643,38.1665904 28.3383351,38.184469 28.3034289,38.1993679 C28.2195688,38.2359765 28.1357087,38.2721594 28.0514229,38.3070652 C25.5867016,39.3955325 22.8627376,40 19.9995743,40 Z M13.6704766,37.8447753 C14.5597344,38.1133802 17.0406317,38.7663754 20.1468616,38.7672268 C20.1468616,38.7672268 20.1472873,38.7672268 20.147713,38.7672268 C22.8265543,38.7672268 25.33129,38.291315 27.5976417,37.352262 C27.4452462,37.1292049 27.1711044,36.821863 27.0331822,36.668192 C26.9531533,36.5779476 26.880361,36.4970681 26.822042,36.4285334 C26.644531,36.2186725 26.437222,36.1480094 25.9979141,36.1480094 C25.8961752,36.1480094 25.7918822,36.1509892 25.6871634,36.1548203 C25.5679714,36.1586514 25.4470766,36.1629083 25.3253304,36.1629083 C24.4850265,36.1629083 23.8630994,36.1033129 23.1585893,35.7993764 C22.5915757,35.5550353 22.2467701,35.4745815 21.741481,35.758511 C20.6581104,36.3659583 19.6594513,36.8588973 18.2172275,36.7673758 C17.8255965,36.7426863 17.4561011,36.6971384 17.2372986,36.4093778 C17.025307,36.1301308 17.0900113,35.8198091 17.1474789,35.547373 C17.1662091,35.4588313 17.187919,35.3558164 17.2062235,35.2353486 L17.2130345,35.1915034 C17.3156248,34.5112646 17.2526233,34.4904062 17.1385395,34.4516692 C16.8592895,34.3571679 16.4919226,34.5270148 16.2318285,34.8411676 C16.1215759,34.9739802 16.0436754,35.0897656 15.9674776,35.2008684 C15.7452696,35.5260889 15.5354064,35.8342822 14.8619714,36.0786233 C13.8765085,36.4366214 13.6964434,36.7486458 13.6704766,37.8447753 Z M2.95511142,11.7190077 C1.7253049,14.2526632 1.055701,17.0728022 1.055701,20.0002128 C1.055701,27.8336012 5.83572782,34.5717113 12.6313773,37.4522971 C12.7097035,36.3591474 13.0562118,35.6103739 14.5009897,35.0850831 C14.854309,34.9561016 14.9100739,34.8743708 15.0948215,34.6040631 C15.1757018,34.485298 15.2761637,34.3380123 15.4174914,34.1673141 C15.9606666,33.5117648 16.7869229,33.2159162 17.4765341,33.4496153 C18.4917949,33.7931401 18.3393994,34.8049847 18.257242,35.3481541 L18.250431,35.3919993 C18.2325522,35.5099131 18.212545,35.6137793 18.1929634,35.7057265 C18.2202073,35.7082806 18.2500053,35.710409 18.2832088,35.7121117 C19.4410744,35.7836262 20.2179512,35.4005129 21.2242726,34.8360595 C21.6078156,34.6210904 21.9760339,34.5163728 22.3489347,34.5163728 C22.7665326,34.5163728 23.1415618,34.6410974 23.5774642,34.8279715 C24.1172339,35.0608192 24.6067727,35.1046644 25.3214993,35.1046644 C25.4360088,35.1046644 25.5449844,35.1008333 25.6531086,35.0974278 C25.7697465,35.0935967 25.8851074,35.0897656 25.9983398,35.0897656 C26.5312986,35.0897656 27.1417321,35.1680909 27.6291425,35.7448892 C27.6819275,35.8070386 27.7483345,35.8815329 27.8207011,35.962838 C28.1301747,36.308917 28.3911202,36.6132791 28.5579891,36.8972086 C32.4900496,34.8977833 35.6350169,31.566401 37.3948024,27.5002927 C36.6260137,28.2184171 35.8163591,28.873115 35.0462933,29.3988315 C34.6167763,29.6917003 34.1395824,29.8530335 33.7032544,29.8530335 C33.2405338,29.8530335 32.8663559,29.6721189 32.6488304,29.3434929 C32.4764276,29.0816989 32.3350999,28.6160035 32.6462763,27.8838316 C32.7220484,27.7050454 32.8046315,27.5454149 32.8842347,27.3917439 C33.0434412,27.0814222 33.1809378,26.8136686 33.2128642,26.4897251 C33.2477705,26.1423691 33.2358513,25.7754318 33.2235064,25.3872104 C33.2171211,25.1858631 33.2103101,24.9870699 33.2103101,24.7908308 C33.2103101,23.4588739 33.4146393,22.8131152 33.9901667,21.6599444 C34.537173,20.5646663 34.3805206,19.2493109 34.2145031,18.3553801 C33.9863355,17.1247353 33.7862631,16.9616993 32.4359875,16.9025296 C31.1883022,16.8484681 29.9057106,16.6718103 29.1139348,15.193419 C28.770832,14.5527685 28.6435519,14.3922867 28.1403912,13.9649026 C27.4180023,13.3514957 27.4184279,12.8436579 27.4188536,12.1412836 L27.4188536,12.0642353 C27.4188536,11.4031522 27.4184279,10.8531719 27.7640849,10.2044335 C27.8607156,10.0230932 27.9603261,9.86090862 28.0569568,9.7038322 C28.3213077,9.27389403 28.5124407,8.96314664 28.497116,8.51235008 C28.482217,8.07858078 28.2557521,7.70738664 27.9935296,7.27829983 C27.7572739,6.89178116 27.4895175,6.45375504 27.3639401,5.91867358 C27.330311,5.77394192 27.3073239,5.63389275 27.2864653,5.50065449 C27.2140987,5.04049294 27.1898346,5.01835751 26.9931677,4.96174189 C26.8688675,4.92598465 26.6555988,4.93918078 26.4253028,4.96131621 C26.2797182,4.97536369 26.1298768,4.98983686 25.9732244,4.98983686 C25.7259009,4.98983686 25.5130579,4.95195122 25.3240534,4.87405153 C24.599536,4.57437185 24.2747377,3.85156491 24.4556542,2.93890408 C24.5395143,2.51449977 24.7314986,2.07477093 24.9932954,1.72102972 C22.7516336,1.11017698 20.3818402,0.917343323 18.0486559,1.15615056 C18.3994211,1.59162259 18.6816508,2.11989315 18.8314922,2.56813562 C19.1643786,3.56465568 18.995807,4.4066534 18.3687717,4.87830834 C17.9813975,5.16947439 17.4399251,5.20650867 17.0116851,5.20650867 C16.7928825,5.20650867 16.5651406,5.19501527 16.345061,5.18394756 C16.0309048,5.16819735 15.710789,5.15542691 15.540089,5.1784137 C15.0514016,5.24439431 14.7568269,5.50363425 14.3485942,5.86290932 C14.2379158,5.95996467 14.1242577,6.05957411 14.0029372,6.15918354 C13.7760467,6.34563198 13.5555414,6.54740494 13.3214141,6.76194834 C12.9531958,7.0986623 12.5726327,7.44644396 12.1597173,7.7333532 C11.9690101,7.86616578 11.7936275,7.95726159 11.6527255,8.03047879 C11.34836,8.18883225 11.2934466,8.21777858 11.2402358,8.46978194 C11.2087351,8.61706769 11.1951131,8.76179936 11.1814912,8.90142284 C11.1401996,9.32880692 11.0640019,10.1252567 10.0155375,10.1252567 C9.89804823,10.1252567 9.76991678,10.1158917 9.62390652,10.0967361 C9.20886278,10.0413975 8.89726071,9.86729384 8.6473831,9.72724467 C8.38218079,9.57868188 8.22169721,9.49482265 8.00161761,9.49482265 C7.52144393,9.49482265 7.07319669,9.84132727 6.98167422,10.2840359 C6.94463955,10.461545 6.96932933,10.5236945 6.96975502,10.5241202 C7.00593832,10.5530665 7.15705681,10.597763 7.6368048,10.597763 L7.9054126,10.596486 C8.01949641,10.596486 8.13102612,10.5981887 8.23659622,10.6041483 C8.37707256,10.6122362 8.50775813,10.6752371 8.60098333,10.780806 C8.69420854,10.8855236 8.74231105,11.0230187 8.73379733,11.1634936 C8.70314795,11.6811221 8.82787391,12.1557568 9.06029841,12.4022263 C9.25185705,12.605702 9.51450525,12.6393308 9.87420982,12.5239712 C10.0700253,12.4618217 10.2177383,12.3928613 10.3739651,12.3196441 C10.7017432,12.1659732 11.0405891,12.0076197 11.6399549,12.0076197 L11.6403806,12.0076197 C11.997531,12.0076197 12.173765,11.9250375 12.4398187,11.7994615 C12.608816,11.7198591 12.8003746,11.6300403 13.0476981,11.5568231 C13.2235064,11.5044643 13.3950578,11.4784978 13.5585212,11.4784978 C14.3983994,11.4784978 14.8372816,12.1131887 15.1901752,12.6240063 C15.4136603,12.9475241 15.6248005,13.2527377 15.8559479,13.2961572 C15.984505,13.3199953 16.1611647,13.2974342 16.3488922,13.2693392 C16.5051189,13.2459268 16.6668795,13.2212372 16.8422621,13.2212372 C17.1645063,13.2212372 17.4399251,13.3072249 17.6846945,13.483457 C18.0541898,13.7499335 18.2989592,14.2164803 18.5147819,14.6285398 C18.6156695,14.8209478 18.7105975,15.0031394 18.7995658,15.127864 C18.8668242,15.2232167 18.936211,15.3266572 19.0073005,15.4330776 C19.201839,15.725095 19.4223443,16.0554237 19.6415725,16.2312301 C19.8693144,16.4134217 20.0834344,16.4308747 20.472937,16.449179 C20.6874827,16.458544 20.930975,16.4700374 21.1957517,16.52793 C21.7248792,16.6449924 22.592427,17.1221812 22.8469872,17.7151553 C23.2411723,18.6350527 22.6171168,19.2931561 22.2446417,19.6864857 C22.1667412,19.7682165 22.0913948,19.8478189 22.0241364,19.9282727 C21.7440351,20.2666894 21.7457378,20.9179818 21.7470149,21.5471389 C21.7491433,22.3069801 21.7512717,23.0923622 21.2336377,23.5669969 C20.952685,23.8241085 20.5444522,23.9518129 20.1498414,24.0756861 C19.9306132,24.1433695 19.7041483,24.2148839 19.5768682,24.2885268 C19.2601579,24.4728469 18.8468169,24.7861483 18.6739885,25.2331138 C18.6063044,25.4080688 18.5611817,25.5689763 18.5173361,25.72435 C18.4079348,26.1146998 18.2942767,26.5182458 17.8779559,26.9579746 C17.7481217,27.0946183 17.6101994,27.1593219 17.5271907,27.1972075 C17.5195283,27.200613 17.511866,27.2044441 17.503778,27.2074239 C17.4999468,27.2516947 17.4990954,27.3193781 17.4990954,27.3687571 C17.4973927,27.5828748 17.4952642,27.8774463 17.3147734,28.1222131 C17.1087415,28.4018858 16.8311943,28.5495972 16.6081349,28.6679366 C16.3991231,28.7794651 16.2671605,28.8539594 16.1879829,28.978684 C15.95343,29.3473241 15.8487112,29.8445199 15.9334227,30.1876191 C15.961518,30.301276 16.0117489,30.4519672 16.064534,30.611172 C16.2909989,31.2926879 16.5732286,32.1406451 16.1641445,32.7859781 C15.946619,33.1303543 15.5822319,33.335107 15.082051,33.3964051 C14.9854203,33.4074728 14.8938978,33.4134324 14.8062065,33.4134324 C13.2813997,33.4134324 12.9893791,31.8801281 12.7956921,30.8653038 C12.7331162,30.5354007 12.6739459,30.223802 12.5922142,30.0237317 C12.4606773,29.7006396 12.2648618,29.4192642 12.057127,29.1208616 C11.738714,28.6632541 11.3777324,28.1443485 11.2623715,27.4368661 C11.1576528,26.7949386 11.1568014,26.0887333 11.2602431,25.4476572 C11.2951493,25.2309853 11.3696443,25.0092054 11.4411596,24.7942363 C11.5420471,24.4920025 11.6565566,24.1489033 11.6033459,23.9590495 C11.5139519,23.6380857 11.1121044,23.3490481 10.6872699,23.0438345 C10.2024136,22.6947758 9.65200179,22.2984665 9.37019773,21.7025126 C9.28037801,21.5126587 9.21184258,21.3402578 9.15224656,21.1887152 C9.03688568,20.8966978 8.9457889,20.6664042 8.74273673,20.4050358 C8.63972075,20.2726489 8.5205287,20.138985 8.39452568,19.9976588 C8.11016751,19.6779721 7.81644425,19.3476433 7.62148011,18.9428204 C7.39799502,18.4788277 7.17876679,17.5189162 7.39118405,16.8374004 C7.48994317,16.5198421 7.69086691,16.2772037 7.86795224,16.0635117 C7.9535151,15.9600711 8.01949641,15.8770632 8.06717323,15.8064001 C7.50228806,15.6152692 7.15790818,15.4028542 6.64325394,14.7664606 C6.3188813,14.3654687 6.16691144,14.3565294 5.66375072,14.326306 C5.4862397,14.315664 5.28531597,14.3037449 5.04735755,14.2709675 C4.07083413,14.1360265 3.86991039,13.5132547 3.70772407,13.0126534 C3.66132431,12.8679217 3.61279612,12.7185076 3.54511206,12.5690934 C3.40250729,12.2579203 3.18583317,11.9710111 2.95511142,11.7190077 Z M3.49360407,10.7544138 C3.86522785,11.1230538 4.25600749,11.5827897 4.50588511,12.131493 C4.59911032,12.33582 4.65955771,12.5231198 4.71276845,12.6882842 C4.85367048,13.1246076 4.87197497,13.1807975 5.19166507,13.2246427 C5.38918332,13.2518863 5.56116042,13.261677 5.72717792,13.2718933 C6.30355661,13.3067992 6.84715748,13.339151 7.4648277,14.101972 C7.92414278,14.6706823 8.09697124,14.7209127 8.82617117,14.9358817 C9.0181555,14.9924974 9.16203733,15.1529792 9.19694358,15.3500697 C9.30847328,15.9792267 8.94664027,16.4168272 8.68271502,16.7360882 C8.556712,16.8884821 8.43794564,17.0323624 8.40048528,17.1524046 C8.29789498,17.4797535 8.41155311,18.1489246 8.57331375,18.4843615 C8.704425,18.7559462 8.9368495,19.0177403 9.184173,19.2948588 C9.31613562,19.4429959 9.45278079,19.5966669 9.57708107,19.7567231 C9.87335845,20.1377079 10.0065981,20.4744219 10.135581,20.7992167 C10.1909201,20.9396916 10.2492391,21.087403 10.3262882,21.2508647 C10.49188,21.5999234 10.8873422,21.8851299 11.3057915,22.1860866 C11.8600345,22.58495 12.432582,22.9974353 12.6220122,23.6746943 C12.7624886,24.1769983 12.5934913,24.6822821 12.4445012,25.1288218 C12.3836281,25.3118648 12.3261605,25.4842658 12.3044505,25.616227 C12.218462,26.147903 12.2193134,26.7340662 12.3061533,27.2665936 C12.3832024,27.7386742 12.6343571,28.0992263 12.9251006,28.5176711 C13.156248,28.8497026 13.3954835,29.1936531 13.5717174,29.6261453 C13.6926122,29.9228453 13.7615733,30.2851001 13.8347913,30.6673619 C14.0616819,31.8588441 14.2468552,32.3568912 14.8070579,32.3568912 L14.8074836,32.3568912 C14.8538833,32.3568912 14.9032629,32.3534858 14.9547709,32.3475263 C15.0514016,32.3364585 15.2203989,32.3041068 15.2727582,32.2215246 C15.4136603,31.9993189 15.1854926,31.3131206 15.0628951,30.9449062 C15.0028734,30.764843 14.9466828,30.5954218 14.9087968,30.4413251 C14.7219207,29.6878691 15.0011706,28.8773718 15.2970223,28.4112508 C15.5294468,28.0455905 15.8529681,27.8731895 16.1130622,27.7352688 C16.2484303,27.6633286 16.3676223,27.5999021 16.4382862,27.5266849 C16.442543,27.4832654 16.4433944,27.4113253 16.4433944,27.3598178 C16.4450972,27.1563421 16.4467999,26.9034874 16.5842964,26.6740451 C16.751591,26.3926698 16.9678394,26.2926346 17.083626,26.2385731 C17.0989507,26.2313365 17.1138497,26.2262284 17.1287487,26.2168634 C17.3488283,25.9806102 17.4058702,25.7762832 17.5012238,25.4378665 C17.5493264,25.2671683 17.6038141,25.0730576 17.689377,24.8517033 C17.9132878,24.2719253 18.3828193,23.7611076 19.0464636,23.3750146 C19.2767597,23.2417764 19.5606922,23.1523833 19.8352596,23.06597 C20.0791776,22.989773 20.4124896,22.8859068 20.5201882,22.7875744 C20.6942937,22.6275182 20.6925909,22.0298615 20.6917396,21.5488416 C20.6891855,20.7698447 20.6874827,19.8865559 21.211502,19.2535677 C21.2923824,19.1560867 21.3843305,19.05818 21.4779814,18.9594219 C21.8802546,18.5350176 21.9815678,18.3749614 21.8772748,18.131046 C21.8074623,17.9688614 21.3085584,17.6342759 20.9688611,17.5593559 C20.7930528,17.5201933 20.6142647,17.5121053 20.4252602,17.503166 C20.008088,17.484436 19.4891769,17.4601722 18.982185,17.0549235 C18.635251,16.7769536 18.3662176,16.3738334 18.1295362,16.0183894 C18.0644063,15.9209084 18.0009791,15.8255558 17.9388289,15.7378654 C17.8089947,15.5552481 17.6927825,15.3330425 17.5799757,15.1180734 C17.4263031,14.8252046 17.2347445,14.4595443 17.0674499,14.3382251 C17.0159419,14.3011908 16.957623,14.2765013 16.8435392,14.2765013 C16.7469085,14.2765013 16.6306962,14.2935286 16.507673,14.3122586 C16.2582211,14.3492928 15.9389566,14.3846244 15.6626865,14.3331169 C15.0041504,14.2096694 14.6261414,13.6630945 14.3226273,13.2237913 C13.9207799,12.6414592 13.7488028,12.4490513 13.3495094,12.568242 C13.179235,12.6188981 13.0391844,12.6848787 12.8910457,12.7542648 C12.5837005,12.8989965 12.2350637,13.0633095 11.6620905,13.0633095 C11.2764191,13.0633095 11.1057191,13.1433376 10.8230637,13.2752988 C10.6515122,13.3557526 10.4573995,13.4468484 10.1973054,13.5294305 C9.4434157,13.7707919 8.76061554,13.6222291 8.29278675,13.126736 C7.95564353,12.768738 7.74578039,12.2494067 7.68958985,11.6538785 L7.63765617,11.6543042 C7.19621991,11.6543042 6.52959581,11.6543042 6.14775557,11.184352 C5.92001362,10.905105 5.85318094,10.5300797 5.94810889,10.0699182 C6.1409446,9.13937872 7.02381713,8.43785584 8.00204329,8.43785584 C8.50903518,8.43828152 8.87214524,8.64175721 9.16416576,8.80479317 C9.3710491,8.9205785 9.54941149,9.02061362 9.76353149,9.04870859 C9.91124449,9.06828993 10.0389503,9.07084402 10.098972,9.0644588 C10.1125939,8.99634978 10.1232361,8.88609831 10.1313241,8.799685 C10.1462231,8.64729107 10.1645276,8.45658582 10.2079476,8.25055605 C10.3650256,7.50987049 10.7907115,7.28851618 11.1665922,7.09270276 C11.2925952,7.02799919 11.4228551,6.95989017 11.5577975,6.86581459 C11.9123938,6.61934509 12.2508141,6.30987474 12.608816,5.9821001 C12.8425175,5.76840806 13.0847328,5.54747943 13.3333333,5.34315238 C13.4452887,5.25120521 13.5500074,5.15883236 13.6517464,5.06943927 C14.1153183,4.66163653 14.5946406,4.24063767 15.4000383,4.13208892 C15.6494902,4.09803442 16.0108976,4.10952781 16.4004001,4.12953484 C16.6030266,4.13932551 16.811187,4.1508189 17.0125364,4.1508189 C17.5054807,4.1508189 17.6766064,4.07760171 17.7344997,4.03418221 C18.0018304,3.83240925 17.9660728,3.41651857 17.888598,3.10279141 C17.6638359,2.19268467 16.9329332,1.40389711 16.6873124,1.3447274 C14.7487389,1.68654953 12.883809,2.32762566 11.1431794,3.24965147 C6.74243875,5.69008269 4.19002618,9.58464142 3.49360407,10.7544138 Z M26.7790477,3.88221397 C26.9680523,3.88221397 27.1336441,3.90349804 27.2860396,3.9477689 C28.1510334,4.19721817 28.254475,4.85617291 28.3302471,5.33719284 C28.3472745,5.44531591 28.3647277,5.56024987 28.3923973,5.67816361 C28.4796629,6.04893207 28.681438,6.3792608 28.8951323,6.72917088 C29.1918353,7.21529899 29.5281272,7.76613066 29.552817,8.47701853 C29.5792095,9.24665042 29.2629249,9.76129918 28.9572824,10.258495 C28.8704425,10.3998212 28.7806228,10.5445529 28.6971883,10.7016293 C28.475406,11.1179457 28.4758317,11.464876 28.4762574,12.0399715 L28.4762574,12.1425607 C28.475406,12.7674609 28.475406,12.8636649 28.8248941,13.1607905 C29.4263883,13.6720338 29.6439138,13.9444699 30.0453355,14.6957975 C30.5306175,15.6016474 31.2470468,15.794481 32.4828129,15.8481169 C34.1153183,15.9192057 34.9024115,16.2712442 35.2540281,18.1633978 C35.4468638,19.2067428 35.6248005,20.7532432 34.935615,22.1328764 C34.4256433,23.1532346 34.2677139,23.6534102 34.2677139,24.7916822 C34.2677139,24.9764279 34.2732478,25.1650047 34.2796331,25.3540073 C34.2924036,25.7592559 34.3060256,26.1789777 34.2651597,26.5952941 C34.2128004,27.1193078 34.0063427,27.521151 33.8237235,27.8753179 C33.7500798,28.0191982 33.6802673,28.1545649 33.6189686,28.2984452 C33.4899857,28.6023817 33.5172296,28.7437079 33.5308516,28.7620122 C33.5372369,28.7696745 33.5878935,28.7977694 33.7036801,28.7977694 C33.9237597,28.7977694 34.2030096,28.6968829 34.4511845,28.5270361 C35.2067769,28.011536 36.0057893,27.3610949 36.7622331,26.6468015 C37.2138859,26.2198431 37.6212673,25.7507423 38.1125088,25.0854023 C38.2563906,24.6333287 39.0055978,22.1098896 38.9089671,18.827035 C38.5956623,13.698426 36.2731201,9.01891089 32.3678777,5.65006864 C30.7123853,4.317686 28.7278377,3.15302181 26.4699998,2.19013058 C26.355916,2.1484138 26.2409808,2.10839976 26.1251942,2.06838571 C25.9412979,2.16160993 25.5398761,2.6805155 25.4721921,3.27050986 C25.4155758,3.76898273 25.6424664,3.86263263 25.7280293,3.89796418 C25.8459443,3.94649185 26.0736862,3.93457278 26.3256923,3.91030894 C26.4704255,3.89668713 26.621544,3.88221397 26.7790477,3.88221397 Z" id="Shape"></path>
            </g>
        </g>
    </g>
</svg>