<?xml version="1.0" encoding="UTF-8"?>
<svg width="20px" height="39px" viewBox="0 0 20 39" version="1.1" xmlns="http://www.w3.org/2000/svg" xmlns:xlink="http://www.w3.org/1999/xlink">
    <!-- Generator: Sketch 50.2 (55047) - http://www.bohemiancoding.com/sketch -->
    <title>?</title>
    <desc>Created with Sketch.</desc>
    <defs></defs>
    <g id="Page-1" stroke="none" stroke-width="1" fill="none" fill-rule="evenodd">
        <g id="Homepage---final" transform="translate(-1236.000000, -7808.000000)" fill="#553580">
            <path d="M1242.51558,7843.37975 C1242.51558,7841.29536 1244.15864,7839.64979 1246.25496,7839.64979 C1248.40793,7839.64979 1250.10765,7841.29536 1250.10765,7843.37975 C1250.10765,7845.40928 1248.40793,7847 1246.25496,7847 C1244.15864,7847 1242.51558,7845.40928 1242.51558,7843.37975 Z M1253.84703,7829.99578 C1252.54391,7833.72574 1249.82436,7835.75527 1246.25496,7835.75527 C1241.72238,7835.75527 1238.7762,7833.17722 1238.7762,7828.95359 C1238.7762,7825.7173 1240.64589,7823.52321 1243.59207,7822.04219 C1245.97167,7820.83544 1246.9915,7820.72574 1248.80453,7819.79325 C1250.78754,7818.75105 1251.24079,7817.48945 1251.24079,7815.89873 C1251.24079,7814.63713 1250.84419,7813.70464 1250.05099,7813.04641 C1249.14448,7812.27848 1248.12465,7811.89451 1246.36827,7811.89451 C1243.4221,7811.89451 1241.26912,7813.9789 1240.41926,7816.94093 L1236,7816.22785 C1236.90652,7811.34599 1240.58924,7808 1246.36827,7808 C1249.54108,7808 1251.75071,7808.93249 1253.39377,7810.4135 C1255.15014,7812.00422 1256,7813.9789 1256,7816.173 C1256,7819.02532 1254.52691,7821.32911 1251.63739,7822.70042 L1245.91501,7825.38819 C1243.87535,7826.48523 1243.13881,7827.69198 1243.13881,7829.173 C1243.13881,7830.92827 1244.27195,7831.97046 1246.08499,7831.97046 C1248.23796,7831.97046 1249.42776,7830.4346 1250.16431,7828.73418 C1250.16431,7828.73418 1253.84703,7829.99578 1253.84703,7829.99578 Z" id="?"></path>
        </g>
    </g>
</svg>