<?xml version="1.0" encoding="UTF-8"?>
<svg width="199px" height="214px" viewBox="0 0 199 214" version="1.1" xmlns="http://www.w3.org/2000/svg" xmlns:xlink="http://www.w3.org/1999/xlink">
    <!-- Generator: Sketch 50.2 (55047) - http://www.bohemiancoding.com/sketch -->
    <title>icon/opensource</title>
    <desc>Created with Sketch.</desc>
    <defs></defs>
    <g id="Designs" stroke="none" stroke-width="1" fill="none" fill-rule="evenodd">
        <g id="Homepage---final" transform="translate(-913.000000, -6197.000000)">
            <g id="icon/opensource" transform="translate(917.000000, 6201.000000)">
                <circle id="Oval" stroke="#553580" stroke-width="8" fill-rule="nonzero" cx="90" cy="103" r="12"></circle>
                <circle id="Oval-5" stroke="#553580" stroke-width="8" cx="182.5" cy="103.5" r="8.5"></circle>
                <circle id="Oval-5" stroke="#553580" stroke-width="8" cx="142.5" cy="8.5" r="8.5"></circle>
                <circle id="Oval-5" stroke="#553580" stroke-width="8" cx="46.5" cy="34.5" r="8.5"></circle>
                <circle id="Oval-5" stroke="#553580" stroke-width="8" cx="8.5" cy="103.5" r="8.5"></circle>
                <circle id="Oval-5" stroke="#553580" stroke-width="8" cx="43.5" cy="182.5" r="8.5"></circle>
                <circle id="Oval-5" stroke="#553580" stroke-width="8" cx="141.5" cy="197.5" r="8.5"></circle>
                <path d="M60.9099315,50.2024045 L79.1595454,82.5730242 C79.4356877,83.0513168 79.2718126,83.6629072 78.79352,83.9390496 C78.3152273,84.215192 77.7036369,84.0513168 77.4274946,83.5730242 L59.128282,51.1144279 L57.1906707,58.3456919 C57.0477289,58.879158 56.4993919,59.1957405 55.9659258,59.0527987 C55.4324597,58.9098568 55.1158772,58.3615199 55.258819,57.8280538 L57.8026032,48.3345222 C57.945545,47.8010561 58.4938819,47.4844736 59.027348,47.6274154 L68.5208796,50.1711995 C69.0543457,50.3141413 69.3709282,50.8624783 69.2279864,51.3959444 C69.0850446,51.9294105 68.5367076,52.245993 68.0032415,52.1030512 L60.9099315,50.2024045 Z M29.5649712,102.399495 L66.5,102.399495 C67.0522847,102.399495 67.5,102.84721 67.5,103.399495 C67.5,103.95178 67.0522847,104.399495 66.5,104.399495 L29.4644661,104.399495 L34.7573593,109.692388 C35.1478836,110.082912 35.1478836,110.716077 34.7573593,111.106602 C34.366835,111.497126 33.73367,111.497126 33.3431458,111.106602 L26.3933983,104.156854 C26.002874,103.76633 26.002874,103.133165 26.3933983,102.742641 L33.3431458,95.7928932 C33.73367,95.4023689 34.366835,95.4023689 34.7573593,95.7928932 C35.1478836,96.1834175 35.1478836,96.8165825 34.7573593,97.2071068 L29.5649712,102.399495 Z M53.8729402,163.923145 L77.3404546,123.276218 C77.616597,122.797926 78.2281874,122.63405 78.70648,122.910193 C79.1847727,123.186335 79.3486478,123.797926 79.0725054,124.276218 L55.5547385,165.010185 L62.7849651,163.072852 C63.3184312,162.92991 63.8667681,163.246493 64.0097099,163.779959 C64.1526518,164.313425 63.8360693,164.861762 63.3026032,165.004704 L53.8090716,167.548488 C53.2756055,167.69143 52.7272685,167.374847 52.5843267,166.841381 L50.0405426,157.347849 C49.8976008,156.814383 50.2141833,156.266046 50.7476494,156.123105 C51.2811155,155.980163 51.8294524,156.296745 51.9723942,156.830211 L53.8729402,163.923145 Z M130.58851,177.656115 L100.840455,124.326471 C100.564312,123.848178 100.728187,123.236588 101.20648,122.960445 C101.684773,122.684303 102.296363,122.848178 102.572505,123.326471 L132.361565,176.729623 L134.296135,169.50971 C134.439077,168.976244 134.987414,168.659661 135.52088,168.802603 C136.054346,168.945545 136.370928,169.493882 136.227986,170.027348 L133.684202,179.52088 C133.54126,180.054346 132.992924,180.370928 132.459457,180.227986 L122.965926,177.684202 C122.43246,177.54126 122.115877,176.992924 122.258819,176.459457 C122.401761,175.925991 122.950098,175.609409 123.483564,175.752351 L130.58851,177.656115 Z M132.459967,27.5698953 L124.996758,29.5696559 C124.463292,29.7125977 123.914955,29.3960152 123.772014,28.8625491 C123.629072,28.329083 123.945654,27.7807461 124.47912,27.6378043 L133.972652,25.0940201 C134.506118,24.9510783 135.054455,25.2676608 135.197397,25.8011269 L137.741181,35.2946585 C137.884123,35.8281246 137.56754,36.3764616 137.034074,36.5194034 C136.500608,36.6623452 135.952271,36.3457627 135.809329,35.8122966 L133.97177,28.9544314 L102.659545,83.6232767 C102.383403,84.1015694 101.771813,84.2654445 101.29352,83.9893021 C100.815227,83.7131598 100.651352,83.1015694 100.927495,82.6232767 L132.459967,27.5698953 Z M160.435029,104.5 L113.5,104.5 C112.947715,104.5 112.5,104.052285 112.5,103.5 C112.5,102.947715 112.947715,102.5 113.5,102.5 L160.535534,102.5 L155.242641,97.2071068 C154.852116,96.8165825 154.852116,96.1834175 155.242641,95.7928932 C155.633165,95.4023689 156.26633,95.4023689 156.656854,95.7928932 L163.606602,102.742641 C163.997126,103.133165 163.997126,103.76633 163.606602,104.156854 L156.656854,111.106602 C156.26633,111.497126 155.633165,111.497126 155.242641,111.106602 C154.852116,110.716077 154.852116,110.082912 155.242641,109.692388 L160.435029,104.5 Z" id="Combined-Shape" fill="#553580" fill-rule="nonzero"></path>
            </g>
        </g>
    </g>
</svg>