<?xml version="1.0" encoding="UTF-8"?>
<svg width="91px" height="91px" viewBox="0 0 91 91" version="1.1" xmlns="http://www.w3.org/2000/svg" xmlns:xlink="http://www.w3.org/1999/xlink">
    <!-- Generator: Sketch 50.2 (55047) - http://www.bohemiancoding.com/sketch -->
    <title>icon/weather</title>
    <desc>Created with Sketch.</desc>
    <defs></defs>
    <g id="Designs" stroke="none" stroke-width="1" fill="none" fill-rule="evenodd">
        <g id="Homepage---final" transform="translate(-188.000000, -1650.000000)">
            <g id="Use-cases-opt-1" transform="translate(160.000000, 1166.000000)">
                <g id="icon/weather" transform="translate(30.000000, 485.000000)">
                    <g>
                        <g id="Group-18" transform="translate(59.753086, 0.000000)" stroke="#553580" stroke-width="2">
                            <path d="M14.1234568,9.57831325 C11.6708829,9.57831325 9.69135802,11.5320913 9.69135802,13.939759 C9.69135802,16.3474268 11.6708829,18.3012048 14.1234568,18.3012048 C16.5760307,18.3012048 18.5555556,16.3474268 18.5556021,13.9494079 C18.5323121,11.5357678 16.5490623,9.57831325 14.1234568,9.57831325 Z" id="Shape" fill="#553580" fill-rule="nonzero"></path>
                            <path d="M22.2716049,13.4036145 L28.2469136,13.4036145 M21.4480324,17.477099 L26.6228014,20.4647533 M18.6618457,20.6027561 L21.6495,25.7775252 M14.6596014,21.9430686 L14.6596014,27.9183772 M10.5136975,21.1389007 L7.52604322,26.3136698 M7.33502579,18.4057286 L2.16025671,21.3933829 M5.97530864,14.4759036 L0,14.4759036 M6.79888121,10.4024191 L1.62411213,7.41476477 M9.58506789,7.27676195 L6.59741357,2.10199287 M13.5873122,5.9364495 L13.5873122,-0.0388591403 M17.733216,6.74061738 L20.7208704,1.5658483 M20.9118878,9.47378944 L26.0866569,6.48613512" id="Line-2" stroke-linecap="round"></path>
                        </g>
                        <path d="M14.3185579,32.5432514 C16.075793,21.9397286 25.2487391,14.0120482 36.1174211,14.0120482 C41.9061617,14.0120482 47.3419373,16.260391 51.4236493,20.2006658 C52.999364,19.7672232 54.6356197,19.5450602 56.3006859,19.5450602 C66.4694334,19.5450602 74.7129273,27.8195945 74.7316553,38.0313941 C80.904449,38.5515353 85.7407407,43.7332533 85.7407407,50.0544578 C85.7407407,56.7171868 80.3652631,62.1204819 73.7316872,62.1204819 L73.5418977,62.1023067 L1.17283951,48.1131606 L1.17283951,47.2879518 C1.17283951,39.6733853 6.89876647,33.3541766 14.3185579,32.5432514 Z" id="Combined-Shape" stroke="#553580" stroke-width="2" fill="#FFFFFF"></path>
                        <path d="M57.6228677,89 C57.5142257,89 57.4055837,89 57.2969418,88.8927711 C56.8623739,88.7855422 56.5364479,88.2493976 56.5364479,87.8204819 L58.4920035,73.2373494 L53.2771887,73.2373494 C52.9512627,73.2373494 52.6253368,73.1301205 52.4080529,72.8084337 C52.1907689,72.5939759 52.0821269,72.2722892 52.1907689,71.9506024 L56.9710158,50.1831325 C57.0796578,49.646988 57.5142257,49.3253012 58.0574356,49.3253012 L71.4203986,49.646988 C71.7463245,49.646988 72.1808924,49.8614458 72.2895344,50.1831325 C72.3981763,50.5048193 72.5068183,50.9337349 72.2895344,51.2554217 L65.227806,65.7313253 L71.0944726,65.7313253 C71.5290405,65.7313253 71.8549665,65.9457831 72.0722504,66.2674699 C72.2895344,66.5891566 72.2895344,67.0180723 72.0722504,67.339759 L58.6006455,88.4638554 C58.3833615,88.7855422 58.0574356,89 57.6228677,89 Z" id="Shape" stroke="#553580" stroke-width="2" fill="#553580" fill-rule="nonzero"></path>
                        <path d="M6.84522022,47.3440385 C8.04531269,41.1321233 13.5736447,36.5301205 20.0987654,36.5301205 C23.5522488,36.5301205 26.8015116,37.8191268 29.2738262,40.0858883 C30.1738116,39.8616743 31.1041902,39.746988 32.0493827,39.746988 C38.1641459,39.746988 43.151145,44.5390065 43.3633375,50.53562 C47.0479786,51.0205398 49.8888889,54.130002 49.8888889,57.9036145 C49.8888889,62.0121047 46.5198242,65.3373494 42.3698645,65.3373493 L7.54011061,65.3176579 C2.75097837,65.0065352 -1,61.0677804 -1,56.2951807 C-1,51.7521992 2.39686205,47.9705563 6.84522022,47.3440385 Z" id="Combined-Shape" stroke="#553580" stroke-width="2" fill="#FFFFFF"></path>
                        <path d="" id="Path-2" stroke="#979797"></path>
                    </g>
                </g>
            </g>
        </g>
    </g>
</svg>