<?xml version="1.0" encoding="UTF-8"?>
<svg width="97px" height="97px" viewBox="0 0 97 97" version="1.1" xmlns="http://www.w3.org/2000/svg" xmlns:xlink="http://www.w3.org/1999/xlink">
    <!-- Generator: Sketch 50.2 (55047) - http://www.bohemiancoding.com/sketch -->
    <title>Icon</title>
    <desc>Created with Sketch.</desc>
    <defs></defs>
    <g id="Symbols" stroke="none" stroke-width="1" fill="none" fill-rule="evenodd">
        <g id="Icon---use-case" fill="#553580" fill-rule="nonzero">
            <g id="Icon">
                <path d="M48.5,97 C21.7141896,97 0,75.2858104 0,48.5 C0,21.7141896 21.7141896,0 48.5,0 C75.2858104,0 97,21.7141896 97,48.5 C97,75.2858104 75.2858104,97 48.5,97 Z M48.5,88.5125 C70.5982936,88.5125 88.5125,70.5982936 88.5125,48.5 C88.5125,26.4017064 70.5982936,8.4875 48.5,8.4875 C26.4017064,8.4875 8.4875,26.4017064 8.4875,48.5 C8.4875,70.5982936 26.4017064,88.5125 48.5,88.5125 Z" id="Oval"></path>
                <path d="M43.7184471,19.5063405 C42.1081161,17.3691197 40.693782,15.1960994 39.4639095,13.0200558 C38.5692048,11.4370329 37.8338413,9.95806159 37.2455068,8.61773561 C36.8781195,7.78076495 36.6341934,7.15282318 36.5017967,6.76825057 L44.5813298,4 C44.6397646,4.16973539 44.7995688,4.58112112 45.0708777,5.19920898 C45.5470369,6.2839805 46.1552675,7.50726073 46.9053245,8.83435486 C48.0819339,10.9161588 49.4612174,13.0017481 51.0553128,15.0481861 C55.068764,12.8532466 59.1702027,10.982078 63.2718588,9.40917856 C65.7467255,8.46011884 68.0503741,7.68765294 70.1272764,7.07694817 C71.3981163,6.70326281 72.329039,6.46283086 72.8643873,6.34132225 L74.7595656,14.6512952 C74.6875257,14.6676462 74.5103305,14.7105482 74.2350921,14.7816348 C73.7525482,14.9062627 73.1859879,15.0623742 72.5425329,15.2515795 C70.6786391,15.79965 68.5911148,16.4996445 66.3370263,17.3640404 C63.2181529,18.5600632 60.099129,19.9449369 57.0311576,21.5286544 C66.5511258,30.2958133 79.3231925,35.7838818 96,36.5166898 L95.6240805,45.0307694 C75.8828767,44.1633065 60.6524915,37.2040994 49.5127158,26.1420093 C49.4632656,26.092904 49.4139379,26.0437572 49.3647325,25.9945693 C48.7160635,26.4193651 48.0719801,26.8542224 47.4330299,27.2992481 C44.2364503,29.5256502 41.2849956,31.9174556 38.5999654,34.4819872 L84.4690505,75.9244464 L78.7344672,82.2412383 L32.8364898,40.7726749 C30.0203948,44.3105577 27.6442802,48.1258538 25.749443,52.2327614 C27.35354,53.3449216 28.9347911,54.5542717 30.4843846,55.8655309 C41.3428977,65.0539568 49.2188391,78.0238914 52.8319771,95.2550242 L44.4702012,97 C41.251051,81.647804 34.3856756,70.3420481 24.9583947,62.3647245 C24.2116168,61.7328044 23.4562663,61.1283484 22.6937634,60.5506821 C21.2615573,65.6673275 20.4891979,71.1747086 20.4378335,77.0938488 L11.8953874,77.0200744 C11.961776,69.3695676 13.1001096,62.3035504 15.1952196,55.8031831 C13.5810402,54.9632776 11.9560903,54.2252305 10.3323145,53.5833686 C8.60385045,52.9001245 7.00853996,52.3801816 5.59157574,52.0026181 C4.7789229,51.786079 4.23321744,51.668792 4,51.6291831 L5.43372585,43.2277283 C5.91939988,43.3102136 6.72161591,43.4826318 7.79605315,43.7689258 C9.52423907,44.2294173 11.4335244,44.8516908 13.4792405,45.6603413 C15.1109795,46.305351 16.741846,47.0325955 18.3635191,47.8465312 C20.5617814,43.2559085 23.2872409,38.9890777 26.4889448,35.0377039 L14.053523,23.8023706 L19.7881063,17.4855787 L32.2526901,28.7472598 C35.3761014,25.7172333 38.8162024,22.9069517 42.5427058,20.3114602 C42.9330875,20.0395613 43.325032,19.771197 43.7184471,19.5063405 Z" id="Combined-Shape"></path>
            </g>
        </g>
    </g>
</svg>