<?xml version="1.0" encoding="UTF-8"?>
<svg width="35px" height="40px" viewBox="0 0 35 40" version="1.1" xmlns="http://www.w3.org/2000/svg" xmlns:xlink="http://www.w3.org/1999/xlink">
    <!-- Generator: Sketch 50.2 (55047) - http://www.bohemiancoding.com/sketch -->
    <title>Discord-Logo-Black</title>
    <desc>Created with Sketch.</desc>
    <defs></defs>
    <g id="Page-1" stroke="none" stroke-width="1" fill="none" fill-rule="evenodd">
        <g id="Homepage---final" transform="translate(-548.000000, -7808.000000)" fill-rule="nonzero">
            <g id="Group-7" transform="translate(160.000000, 7784.000000)">
                <g id="Discord-Logo-Black" transform="translate(388.000000, 24.000000)">
                    <path d="M14.1511424,17 C12.9490334,17 12,18.1261261 12,19.5 C12,20.8738739 12.970123,22 14.1511424,22 C15.3532513,22 16.3022847,20.8738739 16.3022847,19.5 C16.3233743,18.1261261 15.3532513,17 14.1511424,17 Z M21.8488576,17 C20.6467487,17 19.6977153,18.1261261 19.6977153,19.5 C19.6977153,20.8738739 20.6678383,22 21.8488576,22 C23.0509666,22 24,20.8738739 24,19.5 C24,18.1261261 23.0509666,17 21.8488576,17 Z" id="Shape" fill="#231A3A"></path>
                    <path d="M30.9,0 L4.1,0 C1.84,0 0,1.84 0,4.12 L0,31.16 C0,33.44 1.84,35.28 4.1,35.28 L26.78,35.28 L25.72,31.58 L28.28,33.96 L30.7,36.2 L35,40 L35,4.12 C35,1.84 33.16,0 30.9,0 Z M23.18,26.12 C23.18,26.12 22.46,25.26 21.86,24.5 C24.48,23.76 25.48,22.12 25.48,22.12 C24.66,22.66 23.88,23.04 23.18,23.3 C22.18,23.72 21.22,24 20.28,24.16 C18.36,24.52 16.6,24.42 15.1,24.14 C13.96,23.92 12.98,23.6 12.16,23.28 C11.7,23.1 11.2,22.88 10.7,22.6 C10.64,22.56 10.58,22.54 10.52,22.5 C10.48,22.48 10.46,22.46 10.44,22.44 C10.08,22.24 9.88,22.1 9.88,22.1 C9.88,22.1 10.84,23.7 13.38,24.46 C12.78,25.22 12.04,26.12 12.04,26.12 C7.62,25.98 5.94,23.08 5.94,23.08 C5.94,16.64 8.82,11.42 8.82,11.42 C11.7,9.26 14.44,9.32 14.44,9.32 L14.64,9.56 C11.04,10.6 9.38,12.18 9.38,12.18 C9.38,12.18 9.82,11.94 10.56,11.6 C12.7,10.66 14.4,10.4 15.1,10.34 C15.22,10.32 15.32,10.3 15.44,10.3 C16.66,10.14 18.04,10.1 19.48,10.26 C21.38,10.48 23.42,11.04 25.5,12.18 C25.5,12.18 23.92,10.68 20.52,9.64 L20.8,9.32 C20.8,9.32 23.54,9.26 26.42,11.42 C26.42,11.42 29.3,16.64 29.3,23.08 C29.3,23.08 27.6,25.98 23.18,26.12 Z" id="Shape" fill="#553580"></path>
                </g>
            </g>
        </g>
    </g>
</svg>