<?xml version="1.0" encoding="UTF-8"?>
<svg width="84px" height="101px" viewBox="0 0 84 101" version="1.1" xmlns="http://www.w3.org/2000/svg" xmlns:xlink="http://www.w3.org/1999/xlink">
    <!-- Generator: Sketch 50.2 (55047) - http://www.bohemiancoding.com/sketch -->
    <title>Group 15</title>
    <desc>Created with Sketch.</desc>
    <defs></defs>
    <g id="Designs" stroke="none" stroke-width="1" fill="none" fill-rule="evenodd">
        <g id="Group-15" stroke="#553580">
            <rect id="Rectangle-19" fill="#FFFFFF" x="41.5" y="52.5" width="2" height="48" rx="1"></rect>
            <rect id="Rectangle-19" fill="#FFFFFF" transform="translate(31.500000, 76.500000) rotate(20.000000) translate(-31.500000, -76.500000) " x="30.5" y="52.5" width="2" height="48" rx="1"></rect>
            <rect id="Rectangle-19" fill="#FFFFFF" transform="translate(53.500000, 76.500000) rotate(-20.000000) translate(-53.500000, -76.500000) " x="52.5" y="52.5" width="2" height="48" rx="1"></rect>
            <path d="M42,61.7279221 C46.9705627,61.7279221 51,57.6984848 51,52.7279221 C51,47.7573593 33,47.7573593 33,52.7279221 C33,57.6984848 37.0294373,61.7279221 42,61.7279221 Z" id="Oval-4" stroke-width="2" fill="#FFFFFF"></path>
            <rect id="Rectangle-14" fill="#FFFFFF" x="5.5" y="5.5" width="74" height="45"></rect>
            <rect id="Rectangle-20" fill="#553580" x="14.5" y="12.5" width="35" height="6" rx="2"></rect>
            <rect id="Rectangle-20" fill="#553580" x="14.5" y="20.5" width="56" height="6" rx="2"></rect>
            <rect id="Rectangle-20" fill="#553580" x="14.5" y="28.5" width="44" height="6" rx="2"></rect>
            <rect id="Rectangle-20" fill="#553580" x="14.5" y="36.5" width="19" height="6" rx="2"></rect>
            <rect id="Rectangle-18" stroke-width="2" fill="#FFFFFF" x="1" y="1" width="82" height="4" rx="2"></rect>
            <rect id="Rectangle-18" stroke-width="2" fill="#FFFFFF" x="1" y="51" width="82" height="4" rx="2"></rect>
        </g>
    </g>
</svg>