<?xml version="1.0" encoding="UTF-8"?>
<svg width="30px" height="29px" viewBox="0 0 30 29" version="1.1" xmlns="http://www.w3.org/2000/svg" xmlns:xlink="http://www.w3.org/1999/xlink">
    <!-- Generator: Sketch 50.2 (55047) - http://www.bohemiancoding.com/sketch -->
    <title>Fill 4</title>
    <desc>Created with Sketch.</desc>
    <defs></defs>
    <g id="Page-1" stroke="none" stroke-width="1" fill="none" fill-rule="evenodd">
        <g id="Homepage---final" transform="translate(-1209.000000, -8109.000000)" fill="#553580">
            <g id="Group-7" transform="translate(640.000000, 8036.000000)">
                <g id="Group-8" transform="translate(375.000000, 73.000000)">
                    <path d="M208.998619,0 C200.716597,0 194,6.65610973 194,14.8674109 C194,21.4359042 198.297554,27.0077607 204.258142,28.9736541 C205.008625,29.1105548 205.282114,28.6514812 205.282114,28.2572074 C205.282114,27.9049163 205.269223,26.9694285 205.261856,25.7291086 C201.089536,26.6271769 200.209215,23.7358351 200.209215,23.7358351 C199.526873,22.0181883 198.543418,21.5609401 198.543418,21.5609401 C197.181497,20.6391424 198.646551,20.6573958 198.646551,20.6573958 C200.152123,20.762353 200.944044,22.1897704 200.944044,22.1897704 C202.282022,24.4614086 204.455201,23.8051981 205.309739,23.4246143 C205.446024,22.4644844 205.833697,21.8091866 206.261886,21.4377295 C202.931213,21.0626217 199.429264,19.7867076 199.429264,14.0898152 C199.429264,12.4670861 200.013997,11.1391498 200.973511,10.1005301 C200.81881,9.72450968 200.304061,8.21221381 201.120845,6.16600539 C201.120845,6.16600539 202.379631,5.76625548 205.245281,7.69016599 C206.44145,7.35977908 207.725099,7.1954983 209.00046,7.1891096 C210.274901,7.1954983 211.557629,7.35977908 212.75564,7.69016599 C215.619448,5.76625548 216.876393,6.16600539 216.876393,6.16600539 C217.695018,8.21221381 217.180269,9.72450968 217.026489,10.1005301 C217.987845,11.1391498 218.567973,12.4670861 218.567973,14.0898152 C218.567973,19.8013104 215.060499,21.0580584 211.719697,21.4258648 C212.257466,21.8849383 212.737223,22.7921333 212.737223,24.1793932 C212.737223,26.1662781 212.718807,27.769841 212.718807,28.2572074 C212.718807,28.6551319 212.989533,29.1178561 213.750146,28.9727414 C219.70613,27.0022847 224,21.4340788 224,14.8674109 C224,6.65610973 217.283403,0 208.998619,0" id="Fill-4"></path>
                </g>
            </g>
        </g>
    </g>
</svg>