<?xml version="1.0" encoding="UTF-8"?>
<svg width="29px" height="29px" viewBox="0 0 29 29" version="1.1" xmlns="http://www.w3.org/2000/svg" xmlns:xlink="http://www.w3.org/1999/xlink">
    <!-- Generator: Sketch 50.2 (55047) - http://www.bohemiancoding.com/sketch -->
    <title>Reddit_Mark_OnWhite</title>
    <desc>Created with Sketch.</desc>
    <defs></defs>
    <g id="Page-1" stroke="none" stroke-width="1" fill="none" fill-rule="evenodd">
        <g id="Homepage---final" transform="translate(-1146.000000, -8109.000000)" fill="#553580" fill-rule="nonzero">
            <g id="Group-7" transform="translate(640.000000, 8036.000000)">
                <g id="Group-8" transform="translate(375.000000, 73.000000)">
                    <g id="Reddit_Mark_OnWhite" transform="translate(131.000000, 0.000000)">
                        <path d="M14.5,29 C6.49187113,29 0,22.5081289 0,14.5 C0,6.49187113 6.49187113,0 14.5,0 C22.5081289,0 29,6.49187113 29,14.5 C29,22.5081289 22.5081289,29 14.5,29 Z M24.1666667,14.5 C24.1666667,13.3298246 23.2169591,12.380117 22.0467836,12.380117 C21.4701754,12.380117 20.9614035,12.6005848 20.5883041,12.9736842 C19.1467836,11.9391813 17.145614,11.2608187 14.9409357,11.1760234 L15.9076023,6.64795322 L19.0450292,7.30935673 C19.0789474,8.10643275 19.7403509,8.75087719 20.554386,8.75087719 C21.3853801,8.75087719 22.0637427,8.07251462 22.0637427,7.24152047 C22.0637427,6.41052632 21.3853801,5.73216374 20.554386,5.73216374 C19.9608187,5.73216374 19.4520468,6.07134503 19.2146199,6.58011696 L15.7040936,5.83391813 C15.6023392,5.81695906 15.5005848,5.83391813 15.4157895,5.88479532 C15.3309942,5.93567251 15.280117,6.02046784 15.2461988,6.12222222 L14.1777778,11.1760234 C11.9222222,11.2438596 9.90409357,11.9052632 8.44561404,12.9736842 C8.07251462,12.6175439 7.54678363,12.380117 6.9871345,12.380117 C5.81695906,12.380117 4.86725146,13.3298246 4.86725146,14.5 C4.86725146,15.3649123 5.37602339,16.094152 6.12222222,16.4333333 C6.08830409,16.6368421 6.07134503,16.8573099 6.07134503,17.0777778 C6.07134503,20.3339181 9.85321637,22.9625731 14.5339181,22.9625731 C19.2146199,22.9625731 22.9964912,20.3339181 22.9964912,17.0777778 C22.9964912,16.8573099 22.9795322,16.6538012 22.945614,16.4502924 C23.6409357,16.1111111 24.1666667,15.3649123 24.1666667,14.5 Z" id="Combined-Shape"></path>
                        <path d="M10,15.6015424 C10,14.7197943 10.7017544,14 11.5614035,14 C12.4210526,14 13.122807,14.7197943 13.122807,15.6015424 C13.122807,16.4832905 12.4210526,17.2030848 11.5614035,17.2030848 C10.7017544,17.2030848 10,16.4832905 10,15.6015424 Z M18.7192982,19.8303342 C17.6491228,20.9280206 15.6140351,21 15.0175439,21 C14.4210526,21 12.3684211,20.9100257 11.3157895,19.8303342 C11.1578947,19.6683805 11.1578947,19.3984576 11.3157895,19.2365039 C11.4736842,19.0745501 11.7368421,19.0745501 11.8947368,19.2365039 C12.5614035,19.9203085 14,20.1722365 15.0350877,20.1722365 C16.0701754,20.1722365 17.4912281,19.9203085 18.1754386,19.2365039 C18.3333333,19.0745501 18.5964912,19.0745501 18.754386,19.2365039 C18.877193,19.4164524 18.877193,19.6683805 18.7192982,19.8303342 Z M18.4385965,17.2030848 C17.5789474,17.2030848 16.877193,16.4832905 16.877193,15.6015424 C16.877193,14.7197943 17.5789474,14 18.4385965,14 C19.2982456,14 20,14.7197943 20,15.6015424 C20,16.4832905 19.2982456,17.2030848 18.4385965,17.2030848 Z" id="Shape"></path>
                    </g>
                </g>
            </g>
        </g>
    </g>
</svg>