<?xml version="1.0" encoding="UTF-8"?>
<svg width="35px" height="29px" viewBox="0 0 35 29" version="1.1" xmlns="http://www.w3.org/2000/svg" xmlns:xlink="http://www.w3.org/1999/xlink">
    <!-- Generator: Sketch 50.2 (55047) - http://www.bohemiancoding.com/sketch -->
    <title>Twitter_Logo_Blue</title>
    <desc>Created with Sketch.</desc>
    <defs></defs>
    <g id="Page-1" stroke="none" stroke-width="1" fill="none" fill-rule="evenodd">
        <g id="Homepage---final" transform="translate(-1078.000000, -8109.000000)" fill="#553580" fill-rule="nonzero">
            <g id="Group-7" transform="translate(640.000000, 8036.000000)">
                <g id="Group-8" transform="translate(375.000000, 73.000000)">
                    <g id="Twitter_Logo_Blue" transform="translate(63.000000, 0.000000)">
                        <path d="M10.9856014,28.6814883 C24.1677641,28.6814883 31.3778509,17.6460027 31.3778509,8.07607929 C31.3778509,7.76263536 31.3778509,7.45060333 31.3568914,7.13998322 C32.7595486,6.11481097 33.9703459,4.8454598 34.9325914,3.39136318 C33.6245462,3.97702579 32.2369541,4.36110315 30.8161349,4.53077424 C32.3122893,3.62571484 33.4320599,2.20221334 33.9670546,0.525186653 C32.5601899,1.36873956 31.021044,1.96323357 29.4160366,2.28301413 C27.1944394,-0.103968351 23.6643426,-0.688190705 20.8052217,0.85794541 C17.9461007,2.40408153 16.4690051,5.69605958 17.2022053,8.88792733 C11.4395794,8.59601436 6.0705519,5.84571853 2.43130836,1.32150368 C0.529050962,4.63051821 1.5006872,8.86372646 4.65022657,10.9888488 C3.50966517,10.9546913 2.39397153,10.6437967 1.39730366,10.0824029 C1.39730366,10.112053 1.39730366,10.143115 1.39730366,10.174177 C1.39823724,13.6214856 3.80311331,16.5906499 7.14720821,17.2732586 C6.09206173,17.5640273 4.9849934,17.6065318 3.91105294,17.3975066 C4.84996823,20.3475828 7.54065337,22.3685352 10.6069321,22.4267287 C8.06905839,24.4421336 4.93396237,25.5362164 1.70610777,25.5329298 C1.13587313,25.5318237 0.566193122,25.4969367 0,25.4284485 C3.27756569,27.553763 7.09119506,28.6810886 10.9856014,28.6758406" id="Shape"></path>
                    </g>
                </g>
            </g>
        </g>
    </g>
</svg>