<?xml version="1.0" encoding="UTF-8"?>
<svg width="13px" height="13px" viewBox="0 0 13 13" version="1.1" xmlns="http://www.w3.org/2000/svg" xmlns:xlink="http://www.w3.org/1999/xlink">
    <!-- Generator: Sketch 50.2 (55047) - http://www.bohemiancoding.com/sketch -->
    <title>arrow - open in new page</title>
    <desc>Created with Sketch.</desc>
    <defs></defs>
    <g id="Designs" stroke="none" stroke-width="1" fill="none" fill-rule="evenodd">
        <g id="Bug-bounties" transform="translate(-1006.000000, -1379.000000)">
            <g id="scope" transform="translate(160.000000, 1309.000000)">
                <g id="Group-10" transform="translate(480.000000, 48.000000)">
                    <g id="Group-6">
                        <g id="arrow---open-in-new-page" transform="translate(362.000000, 17.000000)">
                            <g transform="translate(11.237427, 11.247854) rotate(-45.000000) translate(-11.237427, -11.247854) translate(2.237427, 5.247854)">
                                <path d="M0.720589828,5.0441288 L15.1323864,5.0441288 C15.5303572,5.0441288 15.8529762,5.36674785 15.8529762,5.76471863 L15.8529762,5.76471863 C15.8529762,6.1626894 15.5303572,6.48530845 15.1323864,6.48530845 L0.720589828,6.48530845 C0.322619055,6.48530845 4.87373633e-17,6.1626894 0,5.76471863 L0,5.76471863 C-4.87373633e-17,5.36674785 0.322619055,5.0441288 0.720589828,5.0441288 Z" id="Rectangle-7" fill="#FFFFFF"></path>
                                <g id="Group-3" transform="translate(12.250027, 6.326233) rotate(45.000000) translate(-12.250027, -6.326233) translate(8.250027, 2.326233)">
                                    <rect id="Rectangle-7" fill="#FFFFFF" x="0" y="0" width="7.20589828" height="1.44117966" rx="0.720589828"></rect>
                                    <g id="Rectangle-7"></g>
                                    <g id="Rectangle-7" transform="translate(6.205898, 4.000000) rotate(90.000000) translate(-6.205898, -4.000000) translate(2.205898, 3.000000)" fill="#FFFFFF">
                                        <rect x="0" y="0" width="7.20589828" height="1.44117966" rx="0.720589828"></rect>
                                    </g>
                                </g>
                            </g>
                        </g>
                    </g>
                </g>
            </g>
        </g>
    </g>
</svg>