<?xml version="1.0" encoding="UTF-8"?>
<svg width="33px" height="40px" viewBox="0 0 33 40" version="1.1" xmlns="http://www.w3.org/2000/svg" xmlns:xlink="http://www.w3.org/1999/xlink">
    <!-- Generator: Sketch 50.2 (55047) - http://www.bohemiancoding.com/sketch -->
    <title>se-icon</title>
    <desc>Created with Sketch.</desc>
    <defs></defs>
    <g id="Page-1" stroke="none" stroke-width="1" fill="none" fill-rule="evenodd">
        <g id="Homepage---final" transform="translate(-886.000000, -7808.000000)" fill="#553580" fill-rule="nonzero">
            <g id="Group-7" transform="translate(640.000000, 7784.000000)">
                <g id="se-icon" transform="translate(246.000000, 24.000000)">
                    <path d="M0,17.4381055 L31.9813429,17.4381055 L31.9813429,24.0688913 L0,24.0688913 L0,17.4381055 Z M0,8.86975242 L31.9813429,8.86975242 L31.9813429,15.5005382 L0,15.5005382 L0,8.86975242 Z M26.9789136,0 C29.758041,0 31.9813429,2.36813778 31.9813429,5.29601722 L31.9813429,7.01829925 L0,7.01829925 L0,5.29601722 C0,2.36813778 2.30881353,0 5.13069673,0 L26.9789136,0 Z M0,25.9634015 L32.195122,25.9634015 L32.195122,27.6856835 C32.195122,30.613563 29.8863084,32.9817008 27.0644252,32.9817008 L25.567972,32.9817008 L18.8125547,40 L18.8125547,32.9817008 L5.13069673,32.9817008 C2.30881353,32.9817008 0,30.613563 0,27.6856835 L0,25.9634015 Z" id="Combined-Shape"></path>
                </g>
            </g>
        </g>
    </g>
</svg>