<?xml version="1.0" encoding="UTF-8"?>
<svg width="29px" height="29px" viewBox="0 0 29 29" version="1.1" xmlns="http://www.w3.org/2000/svg" xmlns:xlink="http://www.w3.org/1999/xlink">
    <!-- Generator: Sketch 50.2 (55047) - http://www.bohemiancoding.com/sketch -->
    <title>flogo-RGB-HEX-Blk-58</title>
    <desc>Created with Sketch.</desc>
    <defs></defs>
    <g id="Page-1" stroke="none" stroke-width="1" fill="none" fill-rule="evenodd">
        <g id="Homepage---final" transform="translate(-1015.000000, -8109.000000)" fill="#553580" fill-rule="nonzero">
            <g id="Group-7" transform="translate(640.000000, 8036.000000)">
                <g id="Group-8" transform="translate(375.000000, 73.000000)">
                    <g id="flogo-RGB-HEX-Blk-58">
                        <path d="M20,17.785 L23.785,17.785 L23.7856435,17.78 L23.81,17.78 L24.375,13.39 L20.025,13.39 L20.025,10.595 C20.025,9.53952951 20.2701958,8.76724295 21.3977499,8.53644938 C21.6211923,8.49279718 21.8786788,8.47 22.175,8.47 L24.5,8.47 L24.5,4.55 C23.9402107,4.49214321 23.3790939,4.44902764 22.8172323,4.42068265 C22.2553744,4.39234532 21.6927684,4.37877271 21.13,4.38 C21.1291667,4.38 21.1283334,4.38000013 21.1275002,4.38000038 C21.1266767,4.37999612 21.1258383,4.37999804 21.125,4.38 C17.78,4.38 15.5,6.42 15.5,10.165 L15.5,13.395 L11.725,13.395 L11.725,17.785 L15.5,17.785 L15.5,29 L1.6,29 C0.7163444,29 1.082166e-16,28.2836556 0,27.4 L0,1.6 C1.082166e-16,0.7163444 0.7163444,-5.41083001e-17 1.6,0 L27.4,0 C28.2836556,5.41083001e-17 29,0.7163444 29,1.6 L29,27.4 C29,28.2836556 28.2836556,29 27.4,29 L20,29 L20,17.785 Z" id="Combined-Shape"></path>
                    </g>
                </g>
            </g>
        </g>
    </g>
</svg>