<?xml version="1.0" encoding="UTF-8"?>
<svg width="30px" height="24px" viewBox="0 0 30 24" version="1.1" xmlns="http://www.w3.org/2000/svg" xmlns:xlink="http://www.w3.org/1999/xlink">
    <!-- Generator: Sketch 50.2 (55047) - http://www.bohemiancoding.com/sketch -->
    <title>Twitter_Logo_Blue</title>
    <desc>Created with Sketch.</desc>
    <defs></defs>
    <g id="Symbols" stroke="none" stroke-width="1" fill="none" fill-rule="evenodd">
        <g id="footer" transform="translate(-1155.000000, -321.000000)" fill="#FFFFFF" fill-rule="nonzero">
            <g id="icons">
                <g transform="translate(1018.000000, 321.000000)">
                    <g id="Twitter_Logo_Blue" transform="translate(137.000000, 0.000000)">
                        <path d="M9.17058896,23.7364041 C20.1748291,23.7364041 26.1936843,14.6035884 26.1936843,6.68365183 C26.1936843,6.42424995 26.1936843,6.16601655 26.1761876,5.90895163 C27.3471014,5.06053322 28.357854,4.0100357 29.1611198,2.80664539 C28.0691864,3.29133169 26.9108487,3.60918882 25.7247734,3.74960627 C26.9737372,3.00059159 27.9085022,1.82252139 28.3551065,0.43463723 C27.1806803,1.13274998 25.895828,1.62474503 24.5559958,1.889391 C22.7014451,-0.0860427729 19.7545816,-0.569537135 17.3678372,0.710023788 C14.9810928,1.98958471 13.7480391,4.71398034 14.3601018,7.35552606 C9.5495619,7.11394292 5.06759115,4.83783602 2.02961394,1.09365822 C0.441642542,3.832153 1.25274757,7.33549776 3.88192827,9.09421973 C2.92980744,9.06595141 1.9984458,8.80865936 1.16644479,8.34405754 C1.16644479,8.36859556 1.16644479,8.39430205 1.16644479,8.42000854 C1.16722413,11.2729536 3.17477285,13.730193 5.96636511,14.2951105 C5.08554718,14.5357467 4.1613858,14.5709228 3.26487897,14.3979365 C4.04866913,16.8393789 6.29480629,18.5118912 8.85448242,18.5600513 C6.73590961,20.2279726 4.11878598,21.1334204 1.42422909,21.1307005 C0.948207134,21.1297851 0.472648172,21.1009131 0,21.0442332 C2.73605484,22.8031142 5.91960631,23.7360733 9.17058896,23.7317302" id="Shape"></path>
                    </g>
                </g>
            </g>
        </g>
    </g>
</svg>