<?xml version="1.0" encoding="UTF-8"?>
<svg width="72px" height="85px" viewBox="0 0 72 85" version="1.1" xmlns="http://www.w3.org/2000/svg" xmlns:xlink="http://www.w3.org/1999/xlink">
    <!-- Generator: Sketch 50.2 (55047) - http://www.bohemiancoding.com/sketch -->
    <title>icon/compnay forecasting</title>
    <desc>Created with Sketch.</desc>
    <defs></defs>
    <g id="Designs" stroke="none" stroke-width="1" fill="none" fill-rule="evenodd">
        <g id="Homepage---final" transform="translate(-736.000000, -1643.000000)">
            <g id="Use-cases-opt-1" transform="translate(160.000000, 1166.000000)">
                <g id="icon/compnay-forecasting" transform="translate(560.000000, 475.000000)">
                    <g>
                        <rect id="Rectangle-25" fill="#553580" x="0" y="0" width="2.96629213" height="86.0113636" rx="1.48314607"></rect>
                        <rect id="Rectangle-25" fill="#553580" transform="translate(44.149689, 84.628846) rotate(-270.000000) translate(-44.149689, -84.628846) " x="42.6665434" y="41.6231638" width="2.96629213" height="86.0113636" rx="1.48314607"></rect>
                        <rect id="Rectangle-26" fill="#553580" x="5.93258427" y="76.125" width="3.95505618" height="8.89772727" rx="1.97752809"></rect>
                        <rect id="Rectangle-26" fill="#553580" x="15.5730337" y="69.6988636" width="3.95505618" height="15.3238636" rx="1.97752809"></rect>
                        <rect id="Rectangle-26" fill="#553580" x="25.2134831" y="67.0213068" width="3.95505618" height="18.0014205" rx="1.97752809"></rect>
                        <rect id="Rectangle-26" fill="#553580" x="34.8539326" y="64.7852857" width="3.95505618" height="20.2374416" rx="1.97752809"></rect>
                        <rect id="Rectangle-26" fill="#553580" x="44.494382" y="53.3863636" width="3.95505618" height="31.6363636" rx="1.97752809"></rect>
                        <rect id="Rectangle-26" fill="#553580" x="54.1348315" y="52.8920455" width="3.95505618" height="32.1306818" rx="1.97752809"></rect>
                        <rect id="Rectangle-26" fill="#553580" x="63.7752809" y="48.4431818" width="3.95505618" height="36.5795455" rx="1.97752809"></rect>
                        <rect id="Rectangle-26" fill="#553580" x="73.4157303" y="40.5340909" width="3.95505618" height="44.4886364" rx="1.97752809"></rect>
                        <rect id="Rectangle-26" fill="#553580" x="83.0561798" y="35.5909091" width="3.95505618" height="49.4318182" rx="1.97752809"></rect>
                        <polyline id="Path-3" stroke="#553580" stroke-linecap="round" stroke-linejoin="round" points="7.41573034 62.7784091 17.7977528 56.3522727 33.1235955 58.3295455 42.0224719 44.4886364 65.258427 43.0056818 85.5280899 21.75"></polyline>
                        <rect id="Rectangle-27" fill="#553580" x="24.7191011" y="3.95454545" width="5.93258427" height="1.97727273" rx="0.988636364"></rect>
                        <rect id="Rectangle-27" fill="#553580" x="33.6179775" y="3.95454545" width="18.7865169" height="1.97727273" rx="0.988636364"></rect>
                        <rect id="Rectangle-27" fill="#553580" x="24.7191011" y="9.88636364" width="5.93258427" height="1.97727273" rx="0.988636364"></rect>
                        <rect id="Rectangle-27" fill="#553580" x="33.6179775" y="9.88636364" width="18.7865169" height="1.97727273" rx="0.988636364"></rect>
                        <rect id="Rectangle-27" fill="#553580" x="24.7191011" y="15.8181818" width="5.93258427" height="1.97727273" rx="0.988636364"></rect>
                        <rect id="Rectangle-27" fill="#553580" x="33.6179775" y="15.8181818" width="18.7865169" height="1.97727273" rx="0.988636364"></rect>
                        <path d="M67.7143893,6.5207478 L65.9282349,7.66033724 C65.468938,6.77587977 64.9756192,6.40168622 64.2781684,6.40168622 C63.6317506,6.40168622 63.1384318,6.86092375 63.1384318,7.49024927 C63.1384318,9.56532258 68.2247191,9.29318182 68.2247191,12.8310117 C68.2247191,14.8040323 67.1360155,16.0796921 65.434916,16.4368768 L65.434916,17.933651 L63.3595747,17.933651 L63.3595747,16.4028592 C61.7265193,16.0116569 60.6208046,14.6849707 60.3146067,13.2052053 L62.1007611,12.0826246 C62.457992,13.3582845 63.1724538,14.4978739 64.4652894,14.4978739 C65.383883,14.4978739 66.0132898,14.0386364 66.0132898,12.9500733 C66.0132898,10.9770528 61.0290685,11.3682551 61.0290685,7.59230205 C61.0290685,6.09552786 61.9646732,4.87089443 63.3595747,4.47969208 L63.3595747,2.96590909 L65.434916,2.96590909 L65.434916,4.51370968 C66.4555757,4.80285924 67.2380814,5.50021994 67.7143893,6.5207478 Z" id="$" fill="#553580"></path>
                    </g>
                </g>
            </g>
        </g>
    </g>
</svg>