<?xml version="1.0" encoding="UTF-8"?>
<svg width="24px" height="24px" viewBox="0 0 24 24" version="1.1" xmlns="http://www.w3.org/2000/svg" xmlns:xlink="http://www.w3.org/1999/xlink">
    <!-- Generator: Sketch 50.2 (55047) - http://www.bohemiancoding.com/sketch -->
    <title>flogo-RGB-HEX-Blk-58</title>
    <desc>Created with Sketch.</desc>
    <defs></defs>
    <g id="Symbols" stroke="none" stroke-width="1" fill="none" fill-rule="evenodd">
        <g id="footer" transform="translate(-1107.000000, -321.000000)" fill="#FFFFFF" fill-rule="nonzero">
            <g id="icons">
                <g transform="translate(1018.000000, 321.000000)">
                    <g id="flogo-RGB-HEX-Blk-58" transform="translate(89.000000, 0.000000)">
                        <path d="M16.5517241,14.7186207 L19.6841379,14.7186207 L19.6846705,14.7144828 L19.7048276,14.7144828 L20.1724138,11.0813793 L16.5724138,11.0813793 L16.5724138,8.76827586 C16.5724138,7.89478304 16.7753345,7.25564934 17.7084827,7.06464776 C17.8934005,7.02852181 18.1064928,7.00965517 18.3517241,7.00965517 L20.2758621,7.00965517 L20.2758621,3.76551724 C19.8125882,3.71763576 19.3482157,3.68195391 18.8832267,3.65849599 C18.4182409,3.63504441 17.9526359,3.6238119 17.4868966,3.62482759 C17.4862069,3.62482759 17.4855173,3.62482769 17.4848277,3.6248279 C17.4841462,3.62482438 17.4834524,3.62482597 17.4827586,3.62482759 C14.7144828,3.62482759 12.8275862,5.31310345 12.8275862,8.41241379 L12.8275862,11.0855172 L9.70344828,11.0855172 L9.70344828,14.7186207 L12.8275862,14.7186207 L12.8275862,24 L1.32413793,24 C0.592836745,24 8.95585657e-17,23.4071633 0,22.6758621 L0,1.32413793 C8.95585657e-17,0.592836745 0.592836745,-4.47792828e-17 1.32413793,0 L22.6758621,0 C23.4071633,4.47792828e-17 24,0.592836745 24,1.32413793 L24,22.6758621 C24,23.4071633 23.4071633,24 22.6758621,24 L16.5517241,24 L16.5517241,14.7186207 Z" id="Combined-Shape"></path>
                    </g>
                </g>
            </g>
        </g>
    </g>
</svg>