<?xml version="1.0" encoding="UTF-8"?>
<svg width="39px" height="40px" viewBox="0 0 39 40" version="1.1" xmlns="http://www.w3.org/2000/svg" xmlns:xlink="http://www.w3.org/1999/xlink">
    <!-- Generator: Sketch 50.2 (55047) - http://www.bohemiancoding.com/sketch -->
    <title>icon/userCreatedMarkets</title>
    <desc>Created with Sketch.</desc>
    <defs></defs>
    <g id="Designs" stroke="none" stroke-width="1" fill="none" fill-rule="evenodd">
        <g id="Homepage---final" transform="translate(-448.000000, -6872.000000)" fill="#553580" fill-rule="nonzero">
            <g id="icon/userCreatedMarkets" transform="translate(448.000000, 6872.000000)">
                <path d="M5.67901235,27.4233218 C5.67901235,27.01413 5.34746336,26.682581 4.9382716,26.682581 L0.822964889,26.682581 C0.413773136,26.682581 0.0822241481,27.01413 0.0822241481,27.4233218 C0.0822241481,27.8325135 0.413773136,28.1640625 0.822964889,28.1640625 L4.9382716,28.1640625 C5.34746336,28.1640625 5.67901235,27.8325135 5.67901235,27.4233218 Z" id="Shape"></path>
                <path d="M8.11656059,31.8460648 L4.93971837,33.3547936 C4.57031249,33.5303337 4.41285689,33.9720775 4.58839699,34.3417245 C4.71522953,34.6086516 4.98095101,34.7649016 5.25800538,34.7649016 C5.36458331,34.7649016 5.472608,34.7417535 5.5753279,34.6930459 L8.75217012,33.1843171 C9.121576,33.008777 9.2790316,32.5670332 9.10349151,32.1973862 C8.92795141,31.8277392 8.48668983,31.6707658 8.11656059,31.8460648 Z" id="Shape"></path>
                <path d="M33.5788001,33.3547936 L30.4017168,31.8460648 C30.0323109,31.6714892 29.5900848,31.8279803 29.4145447,32.1973862 C29.2394869,32.5670332 29.3967014,33.008777 29.7661073,33.1843171 L32.9431906,34.6930459 C33.0459105,34.7417535 33.1539352,34.7649016 33.2605131,34.7649016 C33.5378086,34.7649016 33.8035301,34.6086517 33.9303627,34.3417245 C34.1054205,33.9720775 33.948206,33.5303337 33.5788001,33.3547936 Z" id="Shape"></path>
                <path d="M19.2592593,34.8714796 C18.8500675,34.8714796 18.5185185,35.2030285 18.5185185,35.6122203 L18.5185185,38.7972608 C18.5185185,39.2064525 18.8500675,39.5380015 19.2592593,39.5380015 C19.668451,39.5380015 20,39.2064525 20,38.7972608 L20,35.6122203 C20,35.2030285 19.668451,34.8714796 19.2592593,34.8714796 Z" id="Shape"></path>
                <path d="M37.6953125,26.682581 L33.5802469,26.682581 C33.1712963,26.682581 32.8395062,27.01413 32.8395062,27.4233218 C32.8395062,27.8325135 33.1712963,28.1640625 33.5802469,28.1640625 L37.6953125,28.1640625 C38.1042631,28.1640625 38.4360532,27.8325135 38.4360532,27.4233218 C38.4360532,27.01413 38.1042631,26.682581 37.6953125,26.682581 Z" id="Shape"></path>
                <path d="M30.0843943,23.0721933 C30.1900077,23.0721933 30.2975501,23.0495274 30.3993055,23.0015432 L32.9600694,21.796875 C33.3299575,21.6227816 33.4891011,21.18152 33.3150077,20.8111497 C33.1409143,20.4412616 32.6986882,20.2818769 32.3292824,20.4562114 L29.7685185,21.6608796 C29.3986304,21.834973 29.2394869,22.2762346 29.4135727,22.6466049 C29.5399306,22.9147377 29.8061343,23.0721933 30.0843943,23.0721933 Z" id="Shape"></path>
                <path d="M5.55820795,21.796875 L8.11897185,23.0015432 C8.2209684,23.0495274 8.32826968,23.0721933 8.43388311,23.0721933 C8.71190202,23.0721933 8.97834686,22.9147376 9.10469714,22.6466049 C9.27879052,22.2762346 9.1198881,21.834973 8.74975886,21.6608796 L6.18899496,20.4562114 C5.81886573,20.282118 5.37760415,20.4412616 5.20326963,20.8111497 C5.0291763,21.18152 5.18807872,21.6227816 5.55820795,21.796875 Z" id="Shape"></path>
                <path d="M19.2592593,7.99117477 C21.3286073,7.99117477 23.0121528,6.30762923 23.0121528,4.23852237 C23.0121528,2.16941551 21.3286073,0.485869975 19.2592593,0.485869975 C17.1901524,0.485869975 15.5066069,2.16941551 15.5066069,4.23852237 C15.5066069,6.30762923 17.1901524,7.99117477 19.2592593,7.99117477 Z M19.2592593,1.96735146 C20.5116705,1.96735146 21.5306713,2.98611111 21.5306713,4.23852237 C21.5306713,5.49093363 20.5116705,6.50969328 19.2592593,6.50969328 C18.006848,6.50969328 16.9880883,5.49093363 16.9880883,4.23852237 C16.9880883,2.98611111 18.006848,1.96735146 19.2592593,1.96735146 Z" id="Shape"></path>
                <path d="M23.1508608,22.2726177 L24.0639468,16.8981481 C24.2674576,15.1569734 24.4005594,13.1548997 23.391686,11.4308449 C22.572338,10.0308642 21.0643326,9.22791279 19.2539545,9.22791279 C17.4153646,9.22791279 15.8938561,10.0540123 15.0798129,11.4947434 C14.0101756,13.3871045 14.2942227,15.5075714 14.5449943,17.3784722 L14.5893616,17.7121913 C14.696904,18.5298514 14.923563,19.697145 15.142747,20.8258584 C15.2367261,21.3098295 15.331519,21.7994068 15.417571,22.2635151 C11.2728167,23.0347584 8.38469343,25.0241729 8.38469343,27.4233217 C8.38469343,30.5116705 13.1614103,32.9308931 19.2592594,32.9308931 C25.3568674,32.9308931 30.1335842,30.5116705 30.1335842,27.4233217 C30.1335841,25.033818 27.2687597,23.050522 23.1508608,22.2726177 Z M16.5969811,20.5434992 C16.3821373,19.4364873 16.1598187,18.2918596 16.0583044,17.5188079 L16.0134549,17.1817129 C15.7829379,15.4617573 15.5444638,13.6832079 16.3693576,12.2236689 C17.1141975,10.9061535 18.4963349,10.7093943 19.2539545,10.7093943 C20.0004823,10.7093943 21.3647762,10.9003665 22.1127508,12.1788194 C22.890625,13.5083912 22.776331,15.1540798 22.5978974,16.6878858 L21.6861075,22.0520773 L21.4375362,23.5145098 L20.8998843,26.6775173 C20.741223,26.873071 20.092587,27.2902199 19.2539545,27.2902199 C18.4172454,27.2902199 17.7695795,26.875 17.6089892,26.6789641 C17.5327932,26.1183449 17.4582851,25.6609279 17.3842593,25.2066454 C17.3061343,24.7265625 17.2282504,24.2498553 17.1496432,23.6521026 C17.1436451,23.60659 17.1360195,23.5562247 17.1292981,23.5086022 C17.0695892,23.0849127 16.9831453,22.5830078 16.8838614,22.0455367 C16.7941623,21.5599079 16.6951196,21.0486292 16.5969811,20.5434992 Z M19.2592593,31.4494117 C13.7237172,31.4494117 9.86617477,29.3274981 9.86617477,27.4233218 C9.86617477,25.967038 12.1264347,24.3869358 15.6632186,23.7223609 C15.6689152,23.7629907 15.6756064,23.8066647 15.6807002,23.8454861 C15.7617188,24.4603588 15.8415317,24.9508102 15.9220679,25.4448785 C15.9944059,25.8890336 16.0672261,26.3360822 16.1419697,26.884645 C16.2104553,27.8472222 17.7182196,28.7717014 19.2539545,28.7717014 C20.7807678,28.7717014 22.2800926,27.8580729 22.3644869,26.9012828 L22.9031636,23.7306797 C26.4127303,24.4004087 28.6521027,25.9735182 28.6521027,27.4233217 C28.6521026,29.3274981 24.7945602,31.4494117 19.2592593,31.4494117 Z" id="Shape"></path>
            </g>
        </g>
    </g>
</svg>