<?xml version="1.0" encoding="UTF-8"?>
<svg width="127px" height="118px" viewBox="0 0 127 118" version="1.1" xmlns="http://www.w3.org/2000/svg" xmlns:xlink="http://www.w3.org/1999/xlink">
    <!-- Generator: Sketch 50.2 (55047) - http://www.bohemiancoding.com/sketch -->
    <title>metamask</title>
    <desc>Created with Sketch.</desc>
    <defs></defs>
    <g id="Designs" stroke="none" stroke-width="1" fill="none" fill-rule="evenodd">
        <g id="Getting-Started-v6" transform="translate(-164.000000, -1072.000000)" fill-rule="nonzero">
            <g id="Wallet-Logos" transform="translate(0.000000, 685.000000)">
                <g id="metamask" transform="translate(164.000000, 388.000000)">
                    <g id="Group" transform="translate(0.000000, 100.000000)" fill="#171820">
                        <polygon id="Shape" points="3.71011236 0.374 8.56179775 12.716 8.63314607 12.716 13.4848315 0.374 17.1235955 0.374 17.1235955 16.456 14.3053371 16.456 14.3053371 10.982 14.5907303 4.012 14.519382 4.012 9.525 16.456 7.63426966 16.456 2.63988764 4.046 2.56853933 4.046 2.85393258 10.982 2.85393258 16.456 0.0356741573 16.456 0.0356741573 0.374"></polygon>
                        <polygon id="Shape" points="31.0008427 9.214 23.6162921 9.214 23.6162921 14.28 32.1780899 14.28 32.1780899 16.422 20.7980337 16.422 20.7980337 0.34 32.1067416 0.34 32.1067416 2.482 23.6162921 2.482 23.6162921 7.004 31.0008427 7.004"></polygon>
                        <polygon id="Shape" points="46.3407303 2.55 41.2393258 2.55 41.2393258 16.456 38.4210674 16.456 38.4210674 2.55 33.3196629 2.55 33.3196629 0.408 46.3050562 0.408"></polygon>
                        <path d="M56.4365169,12.682 L49.8367978,12.682 L48.4811798,16.422 L45.6272472,16.422 L51.8345506,0.34 L54.5101124,0.34 L60.6460674,16.422 L57.7921348,16.422 L56.4365169,12.682 Z M50.6573034,10.472 L55.6516854,10.472 L53.2258427,3.604 L53.1544944,3.604 L50.6573034,10.472 Z" id="Shape"></path>
                        <polygon id="Shape" points="66.2469101 0.374 71.0985955 12.716 71.1699438 12.716 76.0216292 0.374 79.6603933 0.374 79.6603933 16.456 76.8421348 16.456 76.8421348 10.982 77.1275281 4.012 77.0561798 4.012 72.0617978 16.456 70.1710674 16.456 65.1766854 4.046 65.1053371 4.046 65.3907303 10.982 65.3907303 16.456 62.5724719 16.456 62.5724719 0.374"></polygon>
                        <path d="M92.5030899,12.682 L85.9033708,12.682 L84.5477528,16.422 L81.6938202,16.422 L87.9011236,0.34 L90.5766854,0.34 L96.7126404,16.422 L93.8587079,16.422 L92.5030899,12.682 Z M86.6882022,10.472 L91.6825843,10.472 L89.2567416,3.604 L89.1853933,3.604 L86.6882022,10.472 Z" id="Shape"></path>
                        <path d="M107.771629,12.308 C107.771629,11.628 107.52191,11.084 106.986798,10.676 C106.451685,10.268 105.559831,9.86 104.239888,9.52 C102.349157,9.044 100.922191,8.432 99.8876404,7.65 C98.888764,6.868 98.3536517,5.848 98.3536517,4.59 C98.3536517,3.298 98.9244382,2.244 100.030337,1.394 C101.136236,0.544 102.598876,0.136 104.382584,0.136 C106.23764,0.136 107.735955,0.612 108.841854,1.564 C109.947753,2.516 110.518539,3.672 110.482865,4.998 L110.447191,5.066 L107.735955,5.066 C107.735955,4.25 107.450562,3.57 106.844101,3.06 C106.23764,2.55 105.417135,2.278 104.34691,2.278 C103.31236,2.278 102.527528,2.482 101.992416,2.924 C101.457303,3.366 101.17191,3.91 101.17191,4.59 C101.17191,5.202 101.457303,5.712 102.063764,6.12 C102.670225,6.528 103.669101,6.902 105.024719,7.276 C106.844101,7.752 108.199719,8.364 109.162921,9.18 C110.126124,9.996 110.589888,11.05 110.589888,12.308 C110.589888,13.634 110.019101,14.722 108.913202,15.504 C107.807303,16.286 106.308989,16.694 104.489607,16.694 C102.741573,16.694 101.17191,16.252 99.8519663,15.368 C98.5320225,14.484 97.8898876,13.26 97.9255618,11.696 L97.961236,11.628 L100.672472,11.628 C100.672472,12.614 101.029213,13.328 101.742697,13.804 C102.45618,14.28 103.383708,14.518 104.525281,14.518 C105.559831,14.518 106.380337,14.314 106.951124,13.906 C107.486236,13.532 107.771629,12.988 107.771629,12.308 Z" id="Shape"></path>
                        <polygon id="Shape" points="118.295506 9.486 116.333427 9.486 116.333427 16.422 113.515169 16.422 113.515169 0.34 116.333427 0.34 116.333427 7.14 117.938764 7.14 123.218539 0.34 126.536236 0.34 120.400281 8.024 127 16.422 123.575281 16.422"></polygon>
                    </g>
                    <polygon id="Shape" stroke="#E2761B" fill="#E2761B" stroke-linecap="round" stroke-linejoin="round" points="105 0 69 27 75.686747 11.0703654"></polygon>
                    <g id="Group" transform="translate(18.000000, 0.000000)" fill="#E4761B" stroke="#E4761B" stroke-linecap="round" stroke-linejoin="round">
                        <polygon id="Shape" points="4.03571429 0.142105263 39.2857143 26.6447368 33 10.9065789"></polygon>
                        <polygon id="Shape" points="73.2857143 60.9986842 63.8214286 75.4223684 84.0714286 80.9644737 89.8571429 61.3184211"></polygon>
                        <polygon id="Shape" points="0.285714286 61.3184211 6.03571429 80.9644737 26.2857143 75.4223684 16.8571429 60.9986842"></polygon>
                        <polygon id="Shape" points="25.1785714 36.6276316 19.5357143 45.1184211 39.6071429 46.0065789 38.9285714 24.5131579"></polygon>
                        <polygon id="Shape" points="64.9285714 36.6276316 51 24.2289474 50.5 46.0065789 70.5714286 45.1184211"></polygon>
                        <polygon id="Shape" points="26.2857143 75.4223684 38.3928571 69.5605263 27.9642857 61.4605263"></polygon>
                        <polygon id="Shape" points="51.7142857 69.5605263 63.8214286 75.4223684 62.1428571 61.4605263"></polygon>
                    </g>
                    <g id="Group" transform="translate(45.000000, 70.000000)" fill="#D7C1B3" stroke="#D7C1B3" stroke-linecap="round" stroke-linejoin="round">
                        <polygon id="Shape" points="37.8924528 6.29090909 25.7396226 0.290909091 26.7075472 8.32727273 26.6 11.7090909"></polygon>
                        <polygon id="Shape" points="0.21509434 6.29090909 11.5075472 11.7090909 11.4358491 8.32727273 12.3679245 0.290909091"></polygon>
                    </g>
                    <polygon id="Shape" stroke="#233447" fill="#233447" stroke-linecap="round" stroke-linejoin="round" points="56 57 46 54.137931 53.0567376 51"></polygon>
                    <polygon id="Shape" stroke="#233447" fill="#233447" stroke-linecap="round" stroke-linejoin="round" points="71 57 73.9328622 51 81 54.137931"></polygon>
                    <g id="Group" transform="translate(36.000000, 46.000000)" fill="#CD6116" stroke="#CD6116" stroke-linecap="round" stroke-linejoin="round">
                        <polygon id="Shape" points="9.53584906 30.7476744 11.2924528 16.1127907 0.0716981132 16.4372093"></polygon>
                        <polygon id="Shape" points="45.4566038 16.1127907 47.2132075 30.7476744 56.7132075 16.4372093"></polygon>
                        <polygon id="Shape" points="53.9886792 0 33.8415094 0.901162791 35.7056604 11.3186047 38.6811321 5.04651163 45.8509434 8.32674419"></polygon>
                        <polygon id="Shape" points="10.9339623 8.32674419 18.0679245 5.04651163 21.0433962 11.3186047 22.9075472 0.901162791 2.76037736 0"></polygon>
                    </g>
                    <g id="Group" transform="translate(38.000000, 46.000000)" fill="#E4751F" stroke="#E4751F" stroke-linecap="round" stroke-linejoin="round">
                        <polygon id="Shape" points="0.247916667 0 8.60625 16.7272727 8.32291667 8.4"></polygon>
                        <polygon id="Shape" points="42.81875 8.4 42.5 16.7272727 50.8583333 0"></polygon>
                        <polygon id="Shape" points="20.1520833 0.909090909 18.3104167 11.4181818 20.6479167 23.8181818 21.1791667 7.49090909"></polygon>
                        <polygon id="Shape" points="30.9541667 0.909090909 30.0333333 7.45454545 30.4583333 23.8181818 32.7958333 11.4181818"></polygon>
                    </g>
                    <polygon id="Shape" stroke="#F6851B" fill="#F6851B" stroke-linecap="round" stroke-linejoin="round" points="71.269341 57.0875274 69 69.7724289 70.6504298 71 80.6905444 62.5185996 81 54"></polygon>
                    <polygon id="Shape" stroke="#F6851B" fill="#F6851B" stroke-linecap="round" stroke-linejoin="round" points="46 54 46.2758621 62.5185996 56.3448276 71 58 69.7724289 55.7241379 57.0875274"></polygon>
                    <polygon id="Shape" stroke="#C0AD9E" fill="#C0AD9E" stroke-linecap="round" stroke-linejoin="round" points="70.9105614 81.4734694 71.0161751 78.0571429 70.1360609 77.2489796 56.8639391 77.2489796 56.0190295 78.0571429 56.0894386 81.4734694 45 76 48.8725024 79.3061224 56.7583254 85 70.2416746 85 78.1274976 79.3061224 82 76"></polygon>
                    <polygon id="Shape" stroke="#161616" fill="#161616" stroke-linecap="round" stroke-linejoin="round" points="70.0492958 70.1692913 68.3591549 69 58.6056338 69 56.915493 70.1692913 56 78 56.8450704 77.2204724 70.1197183 77.2204724 71 78"></polygon>
                    <g id="Group" transform="translate(17.000000, 0.000000)" fill="#763D16" stroke="#763D16" stroke-linecap="round" stroke-linejoin="round">
                        <polygon id="Shape" points="87.871875 27.9176471 90.8578125 13.5176471 86.3789062 0.141176471 52.1828125 25.3411765 65.3351562 36.3882353 83.9261719 41.7882353 88.0140625 37.0235294 86.2367187 35.7529412 89.0804687 33.1764706 86.9121094 31.4823529 89.7558594 29.3294118"></polygon>
                        <polygon id="Shape" points="0.248828125 13.5176471 3.2703125 27.9176471 1.35078125 29.3294118 4.19453125 31.4823529 2.02617188 33.1764706 4.86992188 35.7529412 3.09257813 37.0235294 7.18046875 41.7882353 25.7714844 36.3882353 38.9238281 25.3411765 4.72773438 0.141176471"></polygon>
                    </g>
                    <polygon id="Shape" stroke="#F6851B" fill="#F6851B" stroke-linecap="round" stroke-linejoin="round" points="102.685567 42.472103 83.814433 37 89.5154639 45.5479256 81 62 92.257732 61.8569385 109 61.8569385"></polygon>
                    <polygon id="Shape" stroke="#F6851B" fill="#F6851B" stroke-linecap="round" stroke-linejoin="round" points="44.1819355 37 25.2864516 42.472103 19 61.8569385 35.763871 61.8569385 47 62 38.4735484 45.5479256"></polygon>
                    <polygon id="Shape" stroke="#F6851B" fill="#F6851B" stroke-linecap="round" stroke-linejoin="round" points="68.4222222 46.4165637 69.6311111 25.7330037 75 11 51 11 56.3688889 25.7330037 57.5777778 46.4165637 58.04 52.9406675 58.0755556 69 67.9244444 69 67.96 52.9406675"></polygon>
                </g>
            </g>
        </g>
    </g>
</svg>