<?xml version="1.0" encoding="UTF-8"?>
<svg width="171px" height="44px" viewBox="0 0 171 44" version="1.1" xmlns="http://www.w3.org/2000/svg" xmlns:xlink="http://www.w3.org/1999/xlink">
    <!-- Generator: Sketch 50.2 (55047) - http://www.bohemiancoding.com/sketch -->
    <title>trezor</title>
    <desc>Created with Sketch.</desc>
    <defs></defs>
    <g id="Designs" stroke="none" stroke-width="1" fill="none" fill-rule="evenodd">
        <g id="Getting-Started-v6" transform="translate(-392.000000, -1110.000000)" fill="#000000" fill-rule="nonzero">
            <g id="Wallet-Logos" transform="translate(0.000000, 685.000000)">
                <g id="trezor" transform="translate(392.000000, 425.000000)">
                    <path d="M42.2894148,13.4663353 L61.1882177,13.4663353 L61.1882177,18.9707675 L54.792841,18.9707675 L54.792841,36.9221025 L48.7192707,36.9221025 L48.7192707,18.9707675 L42.2894148,18.9707675 L42.2894148,13.4663353 Z M82.9572605,21.2690045 C82.9572605,25.1580055 80.7108858,27.3601983 78.4885421,28.2209219 L83.6019178,36.9215776 L76.6360665,36.9215776 L72.3178029,29.0060697 L69.9711249,29.0060697 L69.9711249,36.9215776 L63.9288993,36.9215776 L63.9288993,13.4647607 L74.8953874,13.4647607 C79.7193465,13.4647607 82.9572605,16.6011536 82.9572605,21.2690045 Z M69.9711249,18.8705247 L69.9711249,23.6003057 L74.2037129,23.6003057 C75.7688613,23.6003057 76.8220455,22.6493112 76.8220455,21.2343656 C76.8220455,19.8215193 75.7688613,18.8705247 74.2037129,18.8705247 L69.9711249,18.8705247 Z M85.7567659,36.9217876 L85.7567659,13.4660204 L102.677714,13.4660204 L102.677714,18.8707347 L91.7969018,18.8707347 L91.7969018,22.3083807 L102.447853,22.3083807 L102.447853,27.713095 L91.7969018,27.713095 L91.7969018,31.4824344 L102.677714,31.4824344 L102.677714,36.9217876 L85.7567659,36.9217876 Z M123.543924,18.1467821 L113.821822,31.4176703 L123.543924,31.4176703 L123.543924,36.9221025 L105.668005,36.9221025 L105.668005,32.2070168 L115.386971,18.9686682 L105.668005,18.9686682 L105.668005,13.4663353 L123.543924,13.4663353 L123.543924,18.1467821 Z M136.669543,13.0992682 C143.730474,13.0992682 148.854298,18.1943319 148.854298,25.2092291 C148.854298,32.2272753 143.730474,37.3191899 136.669543,37.3191899 C129.62742,37.3191899 124.517179,32.2272753 124.517179,25.2092291 C124.517179,18.1943319 129.62742,13.0992682 136.669543,13.0992682 Z M136.669543,31.7801188 C140.210457,31.7801188 142.683558,29.0782864 142.683558,25.2092291 C142.683558,21.3412213 140.210457,18.6383392 136.669543,18.6383392 C133.09206,18.6383392 130.687918,21.2792912 130.687918,25.2092291 C130.687918,29.0782864 133.147436,31.7801188 136.669543,31.7801188 Z M165.885579,28.2209219 L171,36.9215776 L164.035193,36.9215776 L159.71693,29.0060697 L157.368162,29.0060697 L157.368162,36.9215776 L151.328027,36.9215776 L151.328027,13.4647607 L162.294515,13.4647607 C167.118473,13.4647607 170.359522,16.6011536 170.359522,21.2690045 C170.359522,25.1580055 168.110013,27.3601983 165.885579,28.2209219 Z M157.368162,18.8705247 L157.368162,23.6003057 L161.60284,23.6003057 C163.167989,23.6003057 164.221173,22.6493112 164.221173,21.2343656 C164.221173,19.8215193 163.167989,18.8705247 161.60284,18.8705247 L157.368162,18.8705247 Z M25.7079304,13.5081119 L30.1129145,13.5081119 L30.1129145,36.9176939 L30.0826145,36.9176939 L15.0569797,43.9714286 L0.0302999383,36.9176939 L0,36.9176939 L0,13.5081119 L4.40707378,13.5081119 L4.40707378,10.2216173 C4.40707378,4.58597721 9.18610542,0 15.0590693,0 C20.9288987,0 25.7079304,4.58597721 25.7079304,10.2216173 L25.7079304,13.5081119 Z M24.0529268,33.0244942 L24.0529268,19.0009979 L6.05998764,19.0009979 L6.05998764,33.0244942 L15.0569797,37.237841 L24.0529268,33.0244942 Z M9.87046608,10.2216173 L9.87046608,13.5081119 L20.2445381,13.5081119 L20.2445381,10.2216173 C20.2445381,7.61320501 17.9166669,5.49078664 15.0590693,5.49078664 C12.1983372,5.49078664 9.87046608,7.61320501 9.87046608,10.2216173 Z" id="Logotype"></path>
                </g>
            </g>
        </g>
    </g>
</svg>