<svg width="1000.0000000000001" height="750" xmlns="http://www.w3.org/2000/svg">
 <metadata>Svg Vector Icons : http://www.onlinewebfonts.com/icon</metadata>

 <g>
  <title>background</title>
  <rect fill="none" id="canvas_background" height="752" width="1002" y="-1" x="-1"/>
 </g>
 <g>
  <title>Layer 1</title>
  <g id="svg_1">
   <path fill="#ffffff" id="svg_2" d="m990,741.963708l-980,0l0,-731.2l980,0l0,731.2zm-580,-363.7l-246.9,-210.5l0,407.7l246.9,-197.2zm438.4,214.4l-275.7,-197.2l-70.8,61.3l-76.6,-67l-258.3,208.6l-3.8,1.9l0,134l685.2,0l0,-141.6l0,0zm-44.1,-574.2l-601,0l296.7,292.8l1.9,-1.9l1.9,-1.9l3.8,-1.9l3.8,-3.8l3.8,-1.9l9.6,-9.6l5.7,-5.7l5.7,-5.7l5.7,-5.7l7.7,-5.7l15.3,-15.3l9.6,-7.6l9.6,-9.6l9.6,-9.6l11.5,-9.6l21.1,-21.1l24.9,-24.9l13.4,-13.4l13.4,-11.5l13.4,-15.3l13.4,-13.4l15.3,-15.3l17.2,-15.3l15.3,-17.2l17.2,-15.3l34.5,-34.6zm44.1,547.4l0,-409.6l-262.3,227.8l262.3,181.8z"/>
  </g>
 </g>
</svg>