<svg width="300" height="200" xmlns="http://www.w3.org/2000/svg">
 <metadata id="metadata2296">image/svg+xml</metadata>

 <g>
  <title>background</title>
  <rect fill="none" id="canvas_background" height="202" width="302" y="-1" x="-1"/>
 </g>
 <g>
  <title>Layer 1</title>
  <path stroke="null" fill="#ffffff" d="m291.92643,42.27045c-5.2009,0.51386 -26.85186,5.3644 -34.12897,6.92416c-7.79227,2.0736 -78.98414,57.07497 -83.66081,70.5807c-1.03681,4.67406 -1.5565,11.86553 -1.5565,18.62359l-0.52165,10.91566c0,7.78838 2.1638,20.34945 3.19995,27.10231c4.68055,1.04329 38.55454,0.13235 44.78836,1.16786l-0.7669,13.9703c-6.09108,-0.4438 -49.10557,-0.33998 -73.68009,-0.33998c-12.47476,0 -52.57608,1.37548 -64.89707,1.00436l2.32924,-13.28514c6.75611,-0.52424 34.72913,1.2068 40.8786,-5.28394c3.05461,-3.22072 2.08139,-6.67242 2.08139,-25.37646l0,-8.83167c0,-4.15761 0,-11.95637 -1.04265,-19.23347c-2.59656,-7.79617 -65.30129,-86.09 -81.40942,-98.55763c-4.68055,-1.55715 -33.99013,-4.4885 -41.26399,-6.05084l-0.36204,-11.96805c3.62883,-1.81928 36.22075,0.44249 67.8492,-0.72797c20.78673,-0.76819 68.21511,0 74.06677,0.69684l-1.49941,10.54713c-6.23382,1.56105 -36.26552,2.13849 -44.06168,4.2147c20.26768,30.13876 52.31202,68.94049 62.70668,84.01118c5.71931,-8.31262 55.95445,-42.8737 57.51162,-54.82488c-7.79747,-1.56495 -33.60668,-5.27876 -37.76559,-5.27876l-2.46874,-13.60696c7.07534,-1.10687 44.27838,0 62.77416,0c15.96214,0 50.07036,0 59.76235,0.79416l-8.86281,12.8128" id="path2217"/>
 </g>
</svg>