<svg width="191" height="80" viewBox="0 0 191 80" xmlns="http://www.w3.org/2000/svg" xmlns:xlink="http://www.w3.org/1999/xlink"><title>Logo</title><defs><path id="a" d="M0 0h73.048v79.578H0z"/></defs><g fill="none" fill-rule="evenodd"><g><mask id="b" fill="#fff"><use xlink:href="#a"/></mask><path d="M49.277 44.007l.125.753.042.298c.532 4.144 2.132 5.355 6.1 7.12.01.004.018.003.026.006l14.399 6.389-32.51 18.646V66.547c0-3.916.235-4.618 3.694-6.54.68-.376 1.366-.77 2.119-1.198l.47-.271c2.153-1.155 3.907-2.864 5.202-4.89.047-.074.392-.598.438-.673-.225-.109-.462-.297-.743-.543a3 3 0 0 1-.595-.734c-1.132 2.214-2.853 4.088-5.055 5.307l-.533.306c-.742.424-1.499.84-2.176 1.214-4.242 2.355-4.579 3.799-4.579 8.022V77.23L2.891 58.245l14.04-6.168.914-.395c.357-.175 1.48-.636 2.347-.663.885-.054 2.227.003 2.95.929l2.008 2.554c1.547 2.017 3.572 3.667 5.99 4.657a.178.178 0 0 0 .023.013c.637.261 1.323.412 2.004.571.14-.27.36-.584.563-.84.146-.184.364-.41.568-.623-1.027-.203-2.21-.53-3.132-.975l-.003-.002c-1.837-.878-3.425-2.108-4.646-3.69a1.705 1.705 0 0 1-.077-.096 8.936 8.936 0 0 1-.086-.122c-.123-.165-.248-.325-.362-.496a78.67 78.67 0 0 0-1.51-1.973c-.465-.594-1.114-.984-1.805-1.235l.002.001c-.746-.268-1.608-.388-2.547-.381-1.425.047-3.008.81-3.04.826l-.492.213h-.002l-.037.016-1.278.553c-.009.003-.009.013-.015.016l-12.27 5.391L35.67 3.93v22.179c0 3.833-.279 4.67-3.768 6.607-.267.149-.55.284-.843.423-.148.072-.299.15-.45.224-.115.05-.222.111-.334.166-.002 0-.005 0-.005.002h-.002c-4.577 2.209-7.772 6.688-8.052 11.915.301.082.756.212 1.01.29.186.055.467.196.704.324.045-4.831 2.948-8.998 7.14-11.01.002 0 .002-.001.002-.003.012-.004.022-.002.032-.007.252-.13.496-.248.737-.363.324-.156.636-.307.936-.474a20.655 20.655 0 0 0 1.617-.992c.127-.084.235-.174.352-.258.255-.186.496-.377.705-.564.122-.106.233-.206.312-.304 1.397-1.424 1.67-3.028 1.67-5.976V3.919L70.21 56.802l-14.466-6.418c-.002-.002-.005 0-.008 0-3.208-1.427-4.183-2.619-4.613-6.047-.007-.047-.02-.163-.031-.207-.827-5.482-4.902-9.881-10.255-11.42-.366-.104-.653-.19-.723-.209-.11.352-.268.651-.357.804-.187.32-.377.543-.57.758.081.018.591.13.672.149 4.813 1.184 8.536 4.987 9.418 9.795M72.92 57.863L37.315.413A.881.881 0 0 0 36.563 0a.883.883 0 0 0-.752.412L.126 57.632a.844.844 0 0 0 .302 1.176l35.685 20.65a.901.901 0 0 0 .897.001l35.606-20.42a.868.868 0 0 0 .405-.526.824.824 0 0 0-.1-.65" fill="#FFF" mask="url(#b)"/></g><g opacity=".848" fill="#FFF"><path d="M98.256 27.072L91 46.479h1.606l1.717-4.716h9.195l1.716 4.716h1.607l-7.256-19.407h-1.33zm.664 1.962l4.126 11.42h-8.252l4.126-11.42zM119.433 46.642c-3.96 0-6.756-2.671-6.756-6.46v-13.11h1.495v12.92c0 3.216 2.104 5.342 5.261 5.342 3.158 0 5.263-2.126 5.263-5.343v-12.92h1.495v13.111c0 3.789-2.797 6.46-6.758 6.46M145.866 44.407c-1.302 1.417-3.185 2.235-5.18 2.235-1.855 0-3.628-.708-4.93-1.99-1.798-1.771-1.827-3.489-1.827-7.877 0-4.387.029-6.106 1.828-7.876 1.301-1.282 3.074-1.99 4.93-1.99 3.461 0 6.12 2.235 6.73 5.668h-1.496c-.582-2.67-2.576-4.36-5.234-4.36-1.413 0-2.742.517-3.74 1.5-1.41 1.388-1.523 2.888-1.523 7.058s.112 5.67 1.524 7.06c.997.981 2.326 1.499 3.739 1.499 1.55 0 3.074-.654 4.098-1.88.859-1.037 1.191-2.181 1.191-3.844v-1.745h-5.29v-1.308h6.785v3.162c0 2.017-.442 3.462-1.605 4.688M161.806 46.642c-3.96 0-6.756-2.671-6.756-6.46v-13.11h1.495v12.92c0 3.216 2.104 5.342 5.261 5.342 3.158 0 5.263-2.126 5.263-5.343v-12.92h1.495v13.111c0 3.789-2.797 6.46-6.758 6.46M184.234 28.38h-5.816v7.85h5.816c2.52 0 4.348-1.254 4.348-3.925 0-2.67-1.829-3.924-4.348-3.924zm4.32 18.099l-4.708-8.94h-5.428v8.94h-1.496V27.072h7.506c3.212 0 5.649 1.826 5.649 5.206 0 2.889-1.773 4.77-4.541 5.233l4.762 8.968h-1.744z"/></g></g></svg>