<svg width="35" height="29" viewBox="0 0 35 29" xmlns="http://www.w3.org/2000/svg"><title>Twitter_Logo_Blue</title><path d="M10.986 28.681c13.182 0 20.392-11.035 20.392-20.605 0-.313 0-.625-.021-.936a14.668 14.668 0 0 0 3.576-3.749 14.19 14.19 0 0 1-4.117 1.14A7.254 7.254 0 0 0 33.967.525a14.273 14.273 0 0 1-4.551 1.758 7.12 7.12 0 0 0-8.61-1.425c-2.86 1.546-4.337 4.838-3.604 8.03a20.278 20.278 0 0 1-14.77-7.566C.528 4.63 1.5 8.864 4.65 10.989a7.058 7.058 0 0 1-3.253-.907v.092c.001 3.447 2.406 6.417 5.75 7.1a7.084 7.084 0 0 1-3.236.124c.939 2.95 3.63 4.97 6.696 5.029A14.287 14.287 0 0 1 0 25.428a20.137 20.137 0 0 0 10.986 3.248" fill="#553580" fill-rule="nonzero"/></svg>