<svg width="32" height="42" viewBox="0 0 32 42" xmlns="http://www.w3.org/2000/svg"><title>icon/lowTradingFees</title><g fill="none" fill-rule="evenodd"><path d="M24.617 23h5.74a1 1 0 0 1 .745 1.666L17.077 40.361a1 1 0 0 1-1.491 0L1.56 24.666A1 1 0 0 1 2.307 23h5.739V2a1 1 0 0 1 1-1h14.571a1 1 0 0 1 1 1v21z" stroke="#553580"/><path d="M19.615 18.182l-1.523.938c-.478-.843-1.077-1.225-1.778-1.225-.77 0-1.249.557-1.249 1.21 0 2.195 5.131 1.765 5.131 5.202 0 1.766-1.197 3.023-2.907 3.309V29h-1.71v-1.384c-1.625-.302-2.72-1.496-3.079-3.023l1.54-.907c.341 1.241 1.042 2.355 2.41 2.355 1.078 0 1.83-.684 1.83-1.67 0-2.18-5.096-1.703-5.096-5.14 0-1.431 1.01-2.56 2.394-2.847V15h1.71v1.416c1.078.254 1.83.939 2.327 1.766z" fill="#553580"/></g></svg>