<svg width="40" height="40" viewBox="0 0 40 40" xmlns="http://www.w3.org/2000/svg"><title>icon/openToAll</title><path d="M20 40c-2.423 0-4.747-.433-6.899-1.226-.08-.026-.127-.044-.141-.048a.574.574 0 0 1-.07-.031C5.362 35.822 0 28.525 0 20A19.974 19.974 0 0 1 10.64 2.321a17.582 17.582 0 0 1 5.889-2.02C17.667.101 18.834 0 19.999 0c2.146 0 4.257.338 6.276 1.004.088.01.175.033.258.067.109.045.217.09.324.136a19.905 19.905 0 0 1 6.186 3.632c5.505 4.44 6.802 10.03 6.92 13.94.025.404.037.815.037 1.22 0 8.03-4.755 14.968-11.597 18.149a.85.85 0 0 1-.1.051c-.083.037-.167.073-.252.108A19.882 19.882 0 0 1 20 40zm-6.33-2.155c.89.268 3.37.921 6.477.922 2.68 0 5.184-.476 7.45-1.415a7.93 7.93 0 0 0-.564-.684c-.08-.09-.153-.17-.211-.24-.177-.21-.385-.28-.824-.28-.102 0-.206.003-.31.007-.12.004-.24.008-.363.008-.84 0-1.462-.06-2.166-.364-.567-.244-.912-.324-1.418-.04-1.083.607-2.082 1.1-3.524 1.008-.391-.024-.76-.07-.98-.358-.212-.279-.147-.59-.09-.862.02-.088.04-.191.06-.312l.006-.043c.103-.68.04-.702-.074-.74-.28-.095-.647.075-.907.39-.11.132-.188.248-.265.359-.222.325-.432.633-1.105.878-.985.358-1.166.67-1.192 1.766zM2.955 11.719A18.94 18.94 0 0 0 1.055 20c0 7.834 4.78 14.572 11.576 17.452.079-1.093.425-1.842 1.87-2.367.353-.129.41-.21.594-.48.08-.12.181-.267.322-.438.544-.655 1.37-.951 2.06-.717 1.015.343.862 1.355.78 1.898l-.007.044a5.32 5.32 0 0 1-.057.314l.09.006c1.158.072 1.935-.311 2.941-.876.384-.215.752-.32 1.125-.32.418 0 .793.125 1.228.312.54.233 1.03.277 1.744.277.115 0 .224-.004.332-.008.117-.003.232-.007.345-.007.533 0 1.144.078 1.631.655.053.062.12.137.192.218.31.346.57.65.737.934a19.06 19.06 0 0 0 8.837-9.397 20.219 20.219 0 0 1-2.349 1.899c-.43.293-.906.454-1.343.454-.462 0-.837-.18-1.054-.51-.173-.261-.314-.727-.003-1.46.076-.178.159-.338.238-.491.16-.31.297-.578.329-.902.035-.348.023-.715.01-1.103-.006-.201-.013-.4-.013-.596 0-1.332.205-1.978.78-3.131.547-1.095.39-2.41.225-3.305-.229-1.23-.429-1.393-1.779-1.452-1.248-.055-2.53-.231-3.322-1.71-.343-.64-.47-.8-.974-1.228-.722-.614-.722-1.121-.721-1.824v-.077c0-.66 0-1.21.345-1.86.097-.18.196-.343.293-.5.264-.43.455-.74.44-1.192-.015-.433-.241-.805-.503-1.234-.237-.386-.504-.824-.63-1.36a5.757 5.757 0 0 1-.078-.417c-.072-.46-.096-.483-.293-.54-.124-.035-.337-.022-.568 0-.145.014-.295.029-.452.029a1.68 1.68 0 0 1-.649-.116c-.724-.3-1.05-1.022-.868-1.935.084-.425.275-.864.537-1.218a19.103 19.103 0 0 0-6.944-.565c.35.436.633.964.782 1.412.333.997.165 1.839-.462 2.31-.388.291-.93.329-1.357.329-.22 0-.447-.012-.667-.023-.314-.016-.634-.029-.805-.006-.489.066-.783.326-1.191.685-.111.097-.225.197-.346.296-.227.187-.447.388-.682.603-.368.337-.748.684-1.161.971-.191.133-.366.224-.507.297-.305.159-.36.188-.413.44-.031.147-.045.292-.059.431-.04.428-.117 1.224-1.165 1.224a3.01 3.01 0 0 1-.392-.028c-.415-.056-.727-.23-.977-.37-.265-.148-.425-.232-.645-.232-.48 0-.929.346-1.02.789-.037.178-.013.24-.012.24.036.03.187.074.667.074l.268-.002c.114 0 .226.002.332.008a.527.527 0 0 1 .497.56c-.03.517.094.992.326 1.238.192.204.455.237.814.122.196-.062.344-.131.5-.204.328-.154.667-.312 1.266-.312.358 0 .534-.083.8-.209.169-.08.36-.169.608-.242.176-.053.347-.079.51-.079.84 0 1.28.635 1.632 1.146.224.324.435.629.666.672.129.024.305.001.493-.027.156-.023.318-.048.493-.048.323 0 .598.086.843.262.37.267.614.733.83 1.146.1.192.196.374.285.499.067.095.136.199.207.305.195.292.415.622.635.798.227.182.441.2.83.218.215.01.459.021.724.079.529.117 1.396.594 1.651 1.187.394.92-.23 1.578-.602 1.971a5.097 5.097 0 0 0-.22.242c-.281.339-.28.99-.278 1.62.002.759.004 1.544-.513 2.019-.281.257-.69.385-1.084.509-.22.067-.446.139-.573.213-.317.184-.73.497-.903.944-.068.175-.113.336-.157.491-.11.39-.223.794-.639 1.234a1.07 1.07 0 0 1-.35.24l-.024.01a2.183 2.183 0 0 0-.005.16c-.002.215-.004.51-.184.754-.206.28-.484.428-.707.546-.209.111-.34.186-.42.31-.235.37-.34.867-.255 1.21.029.113.079.264.132.423.226.682.508 1.53.1 2.175-.218.344-.583.55-1.083.61a2.426 2.426 0 0 1-.276.017c-1.525 0-1.817-1.533-2.01-2.548-.063-.33-.122-.641-.204-.841-.131-.323-.327-.605-.535-.903-.318-.458-.68-.977-.795-1.684a6.375 6.375 0 0 1-.002-1.99c.035-.216.11-.438.181-.653.101-.302.216-.645.162-.835-.089-.32-.49-.61-.916-.915-.485-.35-1.035-.746-1.317-1.341a8.042 8.042 0 0 1-.218-.514c-.115-.292-.206-.523-.41-.784-.102-.132-.221-.266-.347-.407-.285-.32-.579-.65-.774-1.055-.223-.464-.442-1.424-.23-2.106.099-.317.3-.56.477-.773.086-.104.151-.187.2-.258-.566-.19-.91-.403-1.425-1.04-.324-.4-.476-.41-.98-.44-.177-.01-.378-.022-.616-.055-.976-.135-1.177-.758-1.34-1.258a4.051 4.051 0 0 0-.162-.444 3.383 3.383 0 0 0-.59-.85zm.539-.965c.371.37.762.829 1.012 1.377.093.205.154.392.207.557.14.437.159.493.479.537.197.027.37.037.535.047.577.035 1.12.067 1.738.83.46.569.632.619 1.361.834a.528.528 0 0 1 .37.414c.112.63-.25 1.067-.513 1.386-.126.152-.245.296-.283.416-.102.328.012.997.173 1.332.131.272.364.534.611.81.132.149.269.303.393.463.296.38.43.717.559 1.042.055.14.113.288.19.452.166.349.561.634.98.935.554.399 1.127.811 1.316 1.489.14.502-.029 1.007-.177 1.454-.061.183-.119.355-.14.487a5.286 5.286 0 0 0 .001 1.65c.077.473.328.833.62 1.252.23.332.47.676.646 1.108.12.297.19.66.263 1.041.227 1.192.412 1.69.972 1.69.047 0 .096-.004.148-.01.096-.01.265-.043.318-.125.14-.223-.088-.909-.21-1.277-.06-.18-.116-.35-.154-.504-.187-.753.092-1.564.388-2.03.232-.365.556-.538.816-.676.135-.072.255-.135.325-.208.005-.044.005-.116.005-.167.002-.204.004-.457.141-.686.168-.281.384-.381.5-.435.015-.008.03-.013.045-.022.22-.236.277-.44.372-.78.048-.17.103-.364.188-.585.224-.58.694-1.09 1.357-1.477.23-.133.515-.223.79-.309.243-.076.576-.18.684-.278.174-.16.173-.758.172-1.24-.003-.778-.005-1.661.52-2.294a6.1 6.1 0 0 1 .266-.295c.402-.424.504-.584.4-.828-.07-.162-.57-.497-.91-.572-.175-.039-.354-.047-.543-.056-.417-.019-.936-.043-1.443-.448-.347-.278-.616-.681-.852-1.037-.066-.097-.129-.192-.191-.28-.13-.183-.246-.405-.359-.62-.154-.293-.345-.658-.513-.78a.345.345 0 0 0-.223-.061c-.097 0-.213.017-.336.035-.25.037-.569.073-.845.021-.659-.123-1.037-.67-1.34-1.11-.402-.582-.574-.774-.973-.655-.17.05-.31.117-.459.186-.307.145-.656.31-1.229.31-.386 0-.556.08-.839.211-.171.08-.366.172-.626.254-.754.242-1.436.093-1.904-.402-.337-.358-.547-.878-.603-1.473h-.052c-.442 0-1.108 0-1.49-.47-.228-.279-.295-.654-.2-1.114.193-.93 1.076-1.632 2.054-1.632.507 0 .87.204 1.162.367.207.116.385.216.6.244.147.02.275.022.335.015.014-.068.024-.178.032-.264.015-.153.034-.343.077-.55.157-.74.583-.961.959-1.157.126-.065.256-.133.39-.227.355-.247.694-.556 1.052-.884.234-.214.476-.435.724-.639.112-.092.217-.184.319-.274.463-.407.943-.828 1.748-.937.25-.034.61-.022 1-.002.203.01.411.02.613.02.492 0 .664-.072.721-.116.268-.202.232-.617.155-.931-.225-.91-.956-1.7-1.202-1.758a18.801 18.801 0 0 0-5.544 1.905c-4.4 2.44-6.953 6.335-7.65 7.504zm23.285-6.872c.19 0 .355.021.507.066.865.25.968.908 1.044 1.39.017.107.035.222.062.34.088.37.29.701.503 1.051.297.486.633 1.037.658 1.748.026.77-.29 1.284-.596 1.781-.087.142-.176.287-.26.444-.222.416-.221.763-.22 1.338v.103c-.002.624-.002.72.348 1.018.601.511.819.783 1.22 1.535.486.906 1.202 1.098 2.438 1.152 1.632.071 2.42.423 2.771 2.315.193 1.044.37 2.59-.318 3.97-.51 1.02-.668 1.52-.668 2.659 0 .184.005.373.012.562.012.405.026.825-.015 1.241-.052.524-.259.926-.441 1.28-.074.144-.144.28-.205.423-.129.304-.102.446-.088.464.006.008.057.036.173.036.22 0 .499-.101.747-.271a19.264 19.264 0 0 0 2.311-1.88c.452-.427.86-.896 1.35-1.562.144-.452.894-2.975.797-6.258-.313-5.129-2.636-9.808-6.541-13.177-1.656-1.332-3.64-2.497-5.898-3.46a20.516 20.516 0 0 0-.345-.122c-.184.094-.585.613-.653 1.203-.056.498.17.592.256.627.118.048.346.037.598.012.144-.013.296-.028.453-.028z" fill="#553580" fill-rule="nonzero"/></svg>