<svg width="86" height="73" viewBox="0 0 86 73" xmlns="http://www.w3.org/2000/svg"><title>icon/insurancehedging</title><g fill="none" fill-rule="evenodd"><path stroke="#553580" stroke-width="2" d="M1 13h76v42H1z"/><path fill="#553580" d="M5 32h16v3H5zM10 26h11v3H10zM10 38h11v3H10z"/><g fill="#553580"><path d="M73 32H57v3h16zM68 26H57v3h11zM68 38H57v3h11z"/></g><path d="M58 42.583v9.596C58 64.772 71.5 71 71.5 71S85 64.772 85 52.179v-9.596L71.5 43 58 42.583z" stroke="#553580" stroke-width="2" fill="#FFF" fill-rule="nonzero"/><path stroke="#553580" stroke-width="2" d="M6 7h64v2H6zM11 1h54v2H11z"/><path d="M46.818 25.6L43 28.036c-.982-1.89-2.036-2.69-3.527-2.69-1.382 0-2.437.981-2.437 2.327 0 4.436 10.873 3.854 10.873 11.418 0 4.218-2.327 6.945-5.964 7.709V50H37.51v-3.273c-3.49-.836-5.854-3.672-6.509-6.836l3.818-2.4c.764 2.727 2.291 5.164 5.055 5.164 1.963 0 3.309-.982 3.309-3.31 0-4.218-10.655-3.381-10.655-11.454 0-3.2 2-5.818 4.982-6.655V18h4.436v3.31c2.182.617 3.855 2.108 4.873 4.29zM69.419 59.837L78.5 49.734l1.486 1.338-9.08 10.103v.001l-1.338 1.487-5.202-4.684 1.338-1.487 3.715 3.345z" fill="#553580"/></g></svg>