<svg width="24" height="24" viewBox="0 0 24 24" xmlns="http://www.w3.org/2000/svg"><title>Reddit_Mark_OnWhite</title><g fill="#FFF" fill-rule="nonzero"><path d="M11.986 23.916c-6.589 0-11.93-5.341-11.93-11.93 0-6.589 5.341-11.93 11.93-11.93 6.589 0 11.93 5.341 11.93 11.93 0 6.589-5.341 11.93-11.93 11.93zm7.954-11.93c0-.963-.782-1.744-1.745-1.744-.474 0-.893.181-1.2.488-1.186-.85-2.832-1.41-4.646-1.479l.795-3.725 2.582.544a1.243 1.243 0 0 0 2.483-.056c0-.684-.558-1.242-1.242-1.242-.488 0-.907.28-1.102.698l-2.888-.614a.348.348 0 0 0-.237.042.34.34 0 0 0-.14.195l-.88 4.158c-1.855.056-3.515.6-4.715 1.48a1.76 1.76 0 0 0-1.2-.49c-.963 0-1.745.782-1.745 1.745 0 .712.42 1.312 1.033 1.59a3.265 3.265 0 0 0-.042.531c0 2.679 3.112 4.842 6.963 4.842s6.963-2.163 6.963-4.842c0-.181-.014-.349-.042-.516a1.805 1.805 0 0 0 1.005-1.605z"/><path d="M8.01 13.228c0-.684.557-1.242 1.241-1.242s1.242.558 1.242 1.242c0 .684-.558 1.242-1.242 1.242a1.245 1.245 0 0 1-1.242-1.242zm6.934 3.279c-.851.851-2.47.907-2.944.907-.474 0-2.107-.07-2.944-.907a.328.328 0 0 1 0-.46.328.328 0 0 1 .46 0c.53.53 1.675.725 2.498.725.823 0 1.953-.195 2.498-.725a.328.328 0 0 1 .46 0 .36.36 0 0 1-.028.46zm-.223-2.037a1.245 1.245 0 0 1-1.242-1.242c0-.684.558-1.242 1.242-1.242.684 0 1.242.558 1.242 1.242 0 .684-.558 1.242-1.242 1.242z"/></g></svg>