<svg width="84" height="101" viewBox="0 0 84 101" xmlns="http://www.w3.org/2000/svg"><title>Group 15</title><g stroke="#553580" fill="none" fill-rule="evenodd"><rect fill="#FFF" x="41.5" y="52.5" width="2" height="48" rx="1"/><rect fill="#FFF" transform="rotate(20 31.5 76.5)" x="30.5" y="52.5" width="2" height="48" rx="1"/><rect fill="#FFF" transform="rotate(-20 53.5 76.5)" x="52.5" y="52.5" width="2" height="48" rx="1"/><path d="M42 61.728a9 9 0 0 0 9-9c0-4.97-18-4.97-18 0a9 9 0 0 0 9 9z" stroke-width="2" fill="#FFF"/><path fill="#FFF" d="M5.5 5.5h74v45h-74z"/><rect fill="#553580" x="14.5" y="12.5" width="35" height="6" rx="2"/><rect fill="#553580" x="14.5" y="20.5" width="56" height="6" rx="2"/><rect fill="#553580" x="14.5" y="28.5" width="44" height="6" rx="2"/><rect fill="#553580" x="14.5" y="36.5" width="19" height="6" rx="2"/><rect stroke-width="2" fill="#FFF" x="1" y="1" width="82" height="4" rx="2"/><rect stroke-width="2" fill="#FFF" x="1" y="51" width="82" height="4" rx="2"/></g></svg>