<svg width="97" height="97" viewBox="0 0 97 97" xmlns="http://www.w3.org/2000/svg"><title>Icon</title><g fill="#553580" fill-rule="nonzero"><path d="M48.5 97C21.714 97 0 75.286 0 48.5S21.714 0 48.5 0 97 21.714 97 48.5 75.286 97 48.5 97zm0-8.487c22.098 0 40.013-17.915 40.013-40.013S70.597 8.487 48.5 8.487 8.487 26.402 8.487 48.5 26.402 88.513 48.5 88.513z"/><path d="M43.718 19.506a59.14 59.14 0 0 1-4.254-6.486 49.167 49.167 0 0 1-2.218-4.402 25.929 25.929 0 0 1-.744-1.85L44.582 4c.058.17.218.581.489 1.2a40.696 40.696 0 0 0 1.834 3.634 50.785 50.785 0 0 0 4.15 6.214A100.39 100.39 0 0 1 63.272 9.41a90.77 90.77 0 0 1 6.855-2.332 48.736 48.736 0 0 1 2.737-.736l1.896 8.31c-.072.017-.25.06-.525.13-.482.125-1.049.281-1.692.47a82.251 82.251 0 0 0-6.206 2.113 92.54 92.54 0 0 0-9.306 4.165C66.551 30.296 79.323 35.784 96 36.517l-.376 8.514c-19.741-.868-34.972-7.827-46.111-18.889l-.148-.147c-.649.424-1.293.86-1.932 1.304-3.197 2.227-6.148 4.618-8.833 7.183l45.87 41.442-5.736 6.317-45.898-41.468a56.094 56.094 0 0 0-7.087 11.46 62.142 62.142 0 0 1 4.735 3.633c10.859 9.188 18.735 22.158 22.348 39.389L44.47 97c-3.219-15.352-10.084-26.658-19.512-34.635a53.797 53.797 0 0 0-2.264-1.814c-1.432 5.116-2.205 10.624-2.256 16.543l-8.543-.074c.067-7.65 1.205-14.716 3.3-21.217a51.755 51.755 0 0 0-4.863-2.22 43.366 43.366 0 0 0-4.74-1.58A20.622 20.622 0 0 0 4 51.629l1.434-8.401c.485.082 1.288.255 2.362.54a51.883 51.883 0 0 1 5.683 1.892 60.324 60.324 0 0 1 4.885 2.187 64.687 64.687 0 0 1 8.125-12.81L14.054 23.803l5.734-6.316 12.465 11.261c3.123-3.03 6.563-5.84 10.29-8.436.39-.271.782-.54 1.175-.805z"/></g></svg>