<svg width="37" height="40" viewBox="0 0 37 40" xmlns="http://www.w3.org/2000/svg"><title>icon/automatedPayouts</title><g fill="none" fill-rule="evenodd"><path d="M34.5 8.5v-6h-32v6h32z" stroke="#553580"/><path d="M36.5 10.5V.5H.5v10h36z" stroke="#553580"/><path stroke="#553580" d="M29.125 4.333v34.445H10"/><path d="M27.5 3.494l-18.125-.21v33.883H27.5V3.494z" stroke="#553580"/><path d="M21.971 15.636l-2.007 1.234c-.516-.957-1.07-1.362-1.854-1.362-.727 0-1.281.497-1.281 1.178 0 2.246 5.715 1.951 5.715 5.78 0 2.136-1.223 3.516-3.135 3.903v1.62h-2.332v-1.657a4.53 4.53 0 0 1-3.421-3.46l2.007-1.216c.401 1.38 1.204 2.614 2.657 2.614 1.032 0 1.74-.497 1.74-1.675 0-2.135-5.602-1.712-5.602-5.799 0-1.62 1.052-2.945 2.62-3.369V11.79h2.331v1.675c1.147.313 2.027 1.068 2.562 2.172z" fill="#553580"/></g></svg>