<svg width="199" height="214" viewBox="0 0 199 214" xmlns="http://www.w3.org/2000/svg"><title>icon/opensource</title><g transform="translate(4 4)" fill="none" fill-rule="evenodd"><circle stroke="#553580" stroke-width="8" cx="90" cy="103" r="12"/><circle stroke="#553580" stroke-width="8" cx="182.5" cy="103.5" r="8.5"/><circle stroke="#553580" stroke-width="8" cx="142.5" cy="8.5" r="8.5"/><circle stroke="#553580" stroke-width="8" cx="46.5" cy="34.5" r="8.5"/><circle stroke="#553580" stroke-width="8" cx="8.5" cy="103.5" r="8.5"/><circle stroke="#553580" stroke-width="8" cx="43.5" cy="182.5" r="8.5"/><circle stroke="#553580" stroke-width="8" cx="141.5" cy="197.5" r="8.5"/><path d="M60.91 50.202l18.25 32.371a1 1 0 0 1-1.733 1L59.128 51.114l-1.937 7.232a1 1 0 0 1-1.932-.518l2.544-9.493a1 1 0 0 1 1.224-.708l9.494 2.544a1 1 0 0 1-.518 1.932l-7.093-1.9zM29.565 102.4H66.5a1 1 0 1 1 0 2H29.464l5.293 5.293a1 1 0 0 1-1.414 1.415l-6.95-6.95a1 1 0 0 1 0-1.414l6.95-6.95a1 1 0 1 1 1.414 1.414l-5.192 5.192zm24.308 61.524l23.467-40.647a1 1 0 0 1 1.733 1L55.555 165.01l7.23-1.937a1 1 0 0 1 .518 1.932l-9.494 2.543a1 1 0 0 1-1.225-.707l-2.543-9.493a1 1 0 1 1 1.931-.518l1.9 7.093zm76.716 13.733l-29.749-53.33a1 1 0 1 1 1.733-1l29.789 53.404 1.934-7.22a1 1 0 0 1 1.932.517l-2.544 9.494a1 1 0 0 1-1.225.707l-9.493-2.544a1 1 0 1 1 .518-1.932l7.105 1.904zM132.46 27.57l-7.463 2a1 1 0 1 1-.518-1.932l9.494-2.544a1 1 0 0 1 1.224.707l2.544 9.494a1 1 0 0 1-1.932.517l-1.837-6.858-31.312 54.67a1 1 0 1 1-1.733-1L132.46 27.57zm27.975 76.93H113.5a1 1 0 1 1 0-2h47.036l-5.293-5.293a1 1 0 1 1 1.414-1.414l6.95 6.95a1 1 0 0 1 0 1.414l-6.95 6.95a1 1 0 1 1-1.414-1.415l5.192-5.192z" fill="#553580" fill-rule="nonzero"/></g></svg>