<svg width="39" height="40" viewBox="0 0 39 40" xmlns="http://www.w3.org/2000/svg"><title>icon/userCreatedMarkets</title><g fill="#553580" fill-rule="nonzero"><path d="M5.679 27.423a.74.74 0 0 0-.74-.74H.822a.74.74 0 1 0 0 1.481h4.115a.74.74 0 0 0 .741-.74zM8.117 31.846L4.94 33.355a.74.74 0 0 0 .635 1.338l3.177-1.509a.74.74 0 0 0-.635-1.338zM33.579 33.355l-3.177-1.509a.741.741 0 0 0-.636 1.338l3.177 1.509a.739.739 0 0 0 .987-.351.741.741 0 0 0-.351-.987zM19.26 34.871a.74.74 0 0 0-.741.741v3.185a.74.74 0 1 0 1.481 0v-3.185a.74.74 0 0 0-.74-.74zM37.695 26.683H33.58a.74.74 0 0 0 0 1.481h4.115a.74.74 0 0 0 0-1.481zM30.084 23.072a.737.737 0 0 0 .315-.07l2.561-1.205a.741.741 0 0 0-.63-1.34l-2.561 1.204a.741.741 0 0 0 .315 1.411zM5.558 21.797l2.561 1.205a.738.738 0 0 0 .986-.355.74.74 0 0 0-.355-.986l-2.561-1.205a.741.741 0 0 0-.63 1.34zM19.26 7.991a3.757 3.757 0 0 0 3.752-3.752A3.757 3.757 0 0 0 19.26.486a3.757 3.757 0 0 0-3.752 3.753 3.757 3.757 0 0 0 3.752 3.752zm0-6.024a2.274 2.274 0 0 1 2.27 2.272 2.274 2.274 0 0 1-2.27 2.27 2.274 2.274 0 0 1-2.272-2.27 2.274 2.274 0 0 1 2.271-2.272zM23.15 22.273l.914-5.375c.203-1.741.337-3.743-.672-5.467-.82-1.4-2.328-2.203-4.138-2.203-1.839 0-3.36.826-4.174 2.267-1.07 1.892-.786 4.013-.535 5.883l.044.334c.108.818.335 1.985.554 3.114.094.484.189.973.275 1.438-4.145.77-7.033 2.76-7.033 5.16 0 3.088 4.776 5.507 10.874 5.507 6.098 0 10.875-2.42 10.875-5.508 0-2.39-2.865-4.372-6.983-5.15zm-6.553-1.73c-.215-1.107-.437-2.251-.539-3.024l-.045-.337c-.23-1.72-.469-3.499.356-4.958.745-1.318 2.127-1.515 2.885-1.515.746 0 2.11.191 2.859 1.47.778 1.33.663 2.975.485 4.509l-.912 5.364-.248 1.463-.538 3.163c-.159.195-.807.612-1.646.612-.837 0-1.484-.415-1.645-.611-.076-.56-.15-1.018-.225-1.472-.078-.48-.156-.957-.234-1.555l-.02-.143a36.18 36.18 0 0 0-.246-1.463c-.09-.486-.189-.997-.287-1.503zm2.662 10.906c-5.535 0-9.393-2.122-9.393-4.026 0-1.456 2.26-3.036 5.797-3.7l.018.122c.08.615.16 1.106.241 1.6.072.444.145.891.22 1.44.068.962 1.576 1.887 3.112 1.887 1.527 0 3.026-.914 3.11-1.87l.54-3.171c3.509.67 5.748 2.243 5.748 3.692 0 1.904-3.857 4.026-9.393 4.026z"/></g></svg>