<svg width="20" height="39" viewBox="0 0 20 39" xmlns="http://www.w3.org/2000/svg"><title>?</title><path d="M6.516 35.38c0-2.085 1.643-3.73 3.739-3.73 2.153 0 3.853 1.645 3.853 3.73 0 2.03-1.7 3.62-3.853 3.62-2.096 0-3.74-1.59-3.74-3.62zm11.331-13.384c-1.303 3.73-4.023 5.76-7.592 5.76-4.533 0-7.479-2.579-7.479-6.802 0-3.237 1.87-5.43 4.816-6.912 2.38-1.207 3.4-1.316 5.213-2.249C14.788 10.751 15.24 9.49 15.24 7.9c0-1.262-.397-2.194-1.19-2.853-.907-.768-1.926-1.151-3.683-1.151-2.946 0-5.099 2.084-5.949 5.046L0 8.228C.907 3.346 4.59 0 10.368 0c3.173 0 5.383.932 7.026 2.413C19.15 4.004 20 5.98 20 8.173c0 2.852-1.473 5.156-4.363 6.527l-5.722 2.688c-2.04 1.097-2.776 2.304-2.776 3.785 0 1.755 1.133 2.797 2.946 2.797 2.153 0 3.343-1.535 4.08-3.236l3.682 1.262z" fill="#553580" fill-rule="evenodd"/></svg>