<svg width="220" height="219" viewBox="0 0 220 219" xmlns="http://www.w3.org/2000/svg"><title>icon/decentralised</title><g transform="translate(5 5)" fill="none" fill-rule="evenodd"><path d="M63.5 116.5l75-70M139.5 45.5l-52-14M150.5 55.5l27 27M139.5 46.5l64-16M138.5 45.5l-2-40M62.5 116.5l-31-46M62.5 115.5l-56 18M62.5 115.5v59M62.5 116.5l75 17M138.5 133.5l15 40M152.5 173.5l-30 29M152.5 172.5l45 33" stroke="#553580" stroke-width="3" stroke-linecap="square"/><circle stroke="#FFF" stroke-width="5" fill="#553580" fill-rule="nonzero" cx="62" cy="116" r="14.5"/><circle stroke="#FFF" stroke-width="5" fill="#553580" fill-rule="nonzero" cx="184" cy="89" r="9.5"/><circle stroke="#FFF" stroke-width="5" fill="#553580" fill-rule="nonzero" cx="203" cy="30" r="9.5"/><circle stroke="#FFF" stroke-width="5" fill="#553580" fill-rule="nonzero" cx="137" cy="5" r="7.5"/><circle stroke="#FFF" stroke-width="5" fill="#553580" fill-rule="nonzero" cx="87.5" cy="31.5" r="9"/><circle stroke="#FFF" stroke-width="5" fill="#553580" fill-rule="nonzero" cx="31.5" cy="70.5" r="11"/><circle stroke="#FFF" stroke-width="5" fill="#553580" fill-rule="nonzero" cx="5.5" cy="133.5" r="8"/><circle stroke="#FFF" stroke-width="5" fill="#553580" fill-rule="nonzero" cx="62.5" cy="172.5" r="12"/><circle stroke="#FFF" stroke-width="5" fill="#553580" fill-rule="nonzero" cx="137.5" cy="133.5" r="12"/><circle stroke="#FFF" stroke-width="5" fill="#553580" fill-rule="nonzero" cx="153" cy="173" r="8.5"/><circle stroke="#FFF" stroke-width="5" fill="#553580" fill-rule="nonzero" cx="196.5" cy="204.5" r="7"/><circle stroke="#FFF" stroke-width="5" fill="#553580" fill-rule="nonzero" cx="123" cy="203" r="5.5"/><circle stroke="#FFF" stroke-width="5" fill="#553580" fill-rule="nonzero" cx="138.5" cy="45.5" r="15"/></g></svg>