<svg width="91" height="91" viewBox="0 0 91 91" xmlns="http://www.w3.org/2000/svg"><title>icon/weather</title><g stroke="#553580" stroke-width="2" fill="none" fill-rule="evenodd"><path d="M75.877 10.578c-2.453 0-4.433 1.954-4.433 4.362 0 2.407 1.98 4.361 4.433 4.361 2.452 0 4.432-1.954 4.432-4.352-.024-2.413-2.007-4.37-4.432-4.37z" fill="#553580" fill-rule="nonzero"/><path d="M84.025 14.404H90m-6.799 4.073l5.175 2.988m-7.961.138l2.988 5.175m-6.99-3.835v5.975m-4.146-6.78l-2.988 5.176m-.19-7.908l-5.176 2.987m3.815-6.917h-5.975m6.799-4.074l-5.175-2.987m7.961-.138L68.35 3.102m6.99 3.834V.961m4.146 6.78l2.988-5.175m.191 7.908l5.175-2.988" stroke-linecap="round"/><path d="M16.319 33.543c1.757-10.603 10.93-18.531 21.798-18.531a21.97 21.97 0 0 1 15.307 6.189 18.366 18.366 0 0 1 4.877-.656c10.168 0 18.412 8.275 18.43 18.486 6.173.52 11.01 5.702 11.01 12.023 0 6.663-5.376 12.066-12.01 12.066l-.19-.018L3.174 49.113v-.825c0-7.615 5.726-13.934 13.146-14.745z" fill="#FFF"/><path d="M59.623 90c-.109 0-.217 0-.326-.107-.435-.107-.76-.644-.76-1.073l1.955-14.583h-5.215c-.326 0-.652-.107-.869-.429-.217-.214-.326-.536-.217-.857l4.78-21.768c.109-.536.543-.858 1.086-.858l13.363.322c.326 0 .76.214.87.536.108.322.217.75 0 1.072l-7.062 14.476h5.866c.435 0 .761.215.978.536a.963.963 0 0 1 0 1.073L60.601 89.464c-.218.322-.544.536-.978.536z" fill="#553580" fill-rule="nonzero"/><path d="M8.845 48.344c1.2-6.212 6.729-10.814 13.254-10.814 3.453 0 6.703 1.29 9.175 3.556.9-.224 1.83-.339 2.775-.339 6.115 0 11.102 4.792 11.314 10.789 3.685.485 6.526 3.594 6.526 7.368 0 4.108-3.37 7.433-7.52 7.433l-34.829-.02C4.751 66.008 1 62.068 1 57.296c0-4.543 3.397-8.324 7.845-8.951z" fill="#FFF"/></g></svg>