<svg width="30" height="29" viewBox="0 0 30 29" xmlns="http://www.w3.org/2000/svg"><title>Fill 4</title><path d="M14.999 0C6.717 0 0 6.656 0 14.867c0 6.569 4.298 12.14 10.258 14.107.75.137 1.024-.323 1.024-.717 0-.352-.013-1.288-.02-2.528-4.172.898-5.053-1.993-5.053-1.993-.682-1.718-1.666-2.175-1.666-2.175-1.362-.922.104-.904.104-.904 1.505.105 2.297 1.533 2.297 1.533 1.338 2.271 3.511 1.615 4.366 1.235.136-.96.524-1.616.952-1.987-3.33-.375-6.833-1.651-6.833-7.348 0-1.623.585-2.95 1.545-3.99-.155-.375-.67-1.888.147-3.934 0 0 1.259-.4 4.124 1.524 1.196-.33 2.48-.495 3.755-.5 1.275.005 2.558.17 3.756.5 2.863-1.924 4.12-1.524 4.12-1.524.819 2.046.304 3.559.15 3.935.962 1.038 1.542 2.366 1.542 3.989 0 5.711-3.508 6.968-6.848 7.336.537.459 1.017 1.366 1.017 2.753 0 1.987-.018 3.59-.018 4.078 0 .398.27.86 1.031.716C25.706 27.003 30 21.434 30 14.867 30 6.657 23.283 0 14.999 0" fill="#553580" fill-rule="evenodd"/></svg>