<svg width="29" height="29" viewBox="0 0 29 29" xmlns="http://www.w3.org/2000/svg"><title>Reddit_Mark_OnWhite</title><g fill="#553580" fill-rule="nonzero"><path d="M14.5 29C6.492 29 0 22.508 0 14.5S6.492 0 14.5 0 29 6.492 29 14.5 22.508 29 14.5 29zm9.667-14.5c0-1.17-.95-2.12-2.12-2.12-.577 0-1.086.22-1.459.594-1.441-1.035-3.442-1.713-5.647-1.798l.967-4.528 3.137.661a1.511 1.511 0 0 0 3.019-.067c0-.831-.679-1.51-1.51-1.51-.593 0-1.102.34-1.34.848l-3.51-.746a.423.423 0 0 0-.288.05.413.413 0 0 0-.17.238l-1.068 5.054c-2.256.068-4.274.73-5.732 1.798a2.14 2.14 0 0 0-1.459-.594c-1.17 0-2.12.95-2.12 2.12 0 .865.509 1.594 1.255 1.933-.034.204-.05.424-.05.645 0 3.256 3.781 5.885 8.462 5.885 4.68 0 8.462-2.63 8.462-5.885 0-.22-.016-.424-.05-.628a2.194 2.194 0 0 0 1.22-1.95z"/><path d="M10 15.602c0-.882.702-1.602 1.561-1.602.86 0 1.562.72 1.562 1.602 0 .881-.702 1.601-1.562 1.601-.86 0-1.561-.72-1.561-1.601zm8.72 4.228C17.65 20.928 15.613 21 15.017 21c-.597 0-2.65-.09-3.702-1.17a.431.431 0 0 1 0-.593.406.406 0 0 1 .579 0c.666.683 2.105.935 3.14.935 1.035 0 2.456-.252 3.14-.935a.406.406 0 0 1 .58 0 .472.472 0 0 1-.036.593zm-.281-2.627c-.86 0-1.562-.72-1.562-1.601 0-.882.702-1.602 1.562-1.602.86 0 1.561.72 1.561 1.602 0 .881-.702 1.601-1.561 1.601z"/></g></svg>