<svg width="24" height="24" viewBox="0 0 24 24" xmlns="http://www.w3.org/2000/svg"><title>flogo-RGB-HEX-Blk-58</title><path d="M16.552 14.719h3.132v-.005h.02l.468-3.633h-3.6V8.768c0-.873.203-1.512 1.136-1.703a3.37 3.37 0 0 1 .644-.055h1.924V3.766a26.566 26.566 0 0 0-2.793-.141c-2.769 0-4.655 1.688-4.655 4.787v2.674H9.703v3.633h3.125V24H1.324A1.324 1.324 0 0 1 0 22.676V1.324C0 .593.593 0 1.324 0h21.352C23.407 0 24 .593 24 1.324v21.352c0 .731-.593 1.324-1.324 1.324h-6.124v-9.281z" fill="#FFF" fill-rule="nonzero"/></svg>