<svg width="26" height="24" viewBox="0 0 26 24" xmlns="http://www.w3.org/2000/svg"><title>Fill 4</title><path d="M12.52 0C5.608 0 0 5.509 0 12.304c0 5.436 3.588 10.047 8.563 11.674.627.113.855-.266.855-.593 0-.291-.01-1.065-.017-2.092-3.483.743-4.218-1.65-4.218-1.65-.57-1.421-1.39-1.8-1.39-1.8-1.137-.762.086-.747.086-.747 1.257.087 1.918 1.268 1.918 1.268 1.117 1.88 2.93 1.337 3.644 1.022.114-.795.438-1.337.795-1.644-2.78-.31-5.704-1.367-5.704-6.081 0-1.343.488-2.442 1.29-3.302-.13-.311-.56-1.563.122-3.256 0 0 1.051-.33 3.443 1.261.999-.273 2.07-.41 3.135-.414 1.064.005 2.135.14 3.135.414 2.39-1.592 3.44-1.261 3.44-1.261.683 1.693.253 2.945.125 3.256.803.86 1.287 1.959 1.287 3.302 0 4.726-2.928 5.766-5.717 6.07.449.38.85 1.131.85 2.28 0 1.644-.016 2.97-.016 3.374 0 .33.226.713.861.592 4.972-1.63 8.556-6.238 8.556-11.673C25.043 5.51 19.437 0 12.521 0" fill="#FFF" fill-rule="evenodd"/></svg>