<svg width="72" height="85" viewBox="0 0 72 85" xmlns="http://www.w3.org/2000/svg"><title>icon/compnay forecasting</title><g transform="translate(-16 -2)" fill="none" fill-rule="evenodd"><rect fill="#553580" width="2.966" height="86.011" rx="1.483"/><rect fill="#553580" transform="rotate(90 44.15 84.629)" x="42.667" y="41.623" width="2.966" height="86.011" rx="1.483"/><rect fill="#553580" x="5.933" y="76.125" width="3.955" height="8.898" rx="1.978"/><rect fill="#553580" x="15.573" y="69.699" width="3.955" height="15.324" rx="1.978"/><rect fill="#553580" x="25.213" y="67.021" width="3.955" height="18.001" rx="1.978"/><rect fill="#553580" x="34.854" y="64.785" width="3.955" height="20.237" rx="1.978"/><rect fill="#553580" x="44.494" y="53.386" width="3.955" height="31.636" rx="1.978"/><rect fill="#553580" x="54.135" y="52.892" width="3.955" height="32.131" rx="1.978"/><rect fill="#553580" x="63.775" y="48.443" width="3.955" height="36.58" rx="1.978"/><rect fill="#553580" x="73.416" y="40.534" width="3.955" height="44.489" rx="1.978"/><rect fill="#553580" x="83.056" y="35.591" width="3.955" height="49.432" rx="1.978"/><path stroke="#553580" stroke-linecap="round" stroke-linejoin="round" d="M7.416 62.778l10.382-6.426 15.326 1.978 8.898-13.841 23.236-1.483 20.27-21.256"/><rect fill="#553580" x="24.719" y="3.955" width="5.933" height="1.977" rx=".989"/><rect fill="#553580" x="33.618" y="3.955" width="18.787" height="1.977" rx=".989"/><rect fill="#553580" x="24.719" y="9.886" width="5.933" height="1.977" rx=".989"/><rect fill="#553580" x="33.618" y="9.886" width="18.787" height="1.977" rx=".989"/><rect fill="#553580" x="24.719" y="15.818" width="5.933" height="1.977" rx=".989"/><rect fill="#553580" x="33.618" y="15.818" width="18.787" height="1.977" rx=".989"/><path d="M67.714 6.52l-1.786 1.14c-.46-.884-.952-1.258-1.65-1.258-.646 0-1.14.459-1.14 1.088 0 2.075 5.087 1.803 5.087 5.341 0 1.973-1.089 3.249-2.79 3.606v1.497H63.36v-1.531c-1.633-.391-2.74-1.718-3.045-3.198l1.786-1.122c.357 1.275 1.071 2.415 2.364 2.415.919 0 1.548-.46 1.548-1.548 0-1.973-4.984-1.582-4.984-5.358 0-1.496.936-2.721 2.33-3.112V2.966h2.076v1.548c1.02.289 1.803.986 2.28 2.007z" fill="#553580"/></g></svg>