<svg width="104" height="112" viewBox="0 0 104 112" xmlns="http://www.w3.org/2000/svg"><title>noun_1473421_cc</title><path d="M70.042 62.996l.06.42c.753 5.832 3.022 7.536 8.65 10.022l20.45 8.999L53.11 108.68V93.66c0-5.512.333-6.5 5.236-9.204.963-.53 1.938-1.084 3.005-1.687l.666-.382c3.052-1.625 5.54-4.03 7.375-6.88.066-.105.557-.843.622-.949-.319-.153-.656-.418-1.053-.764-.263-.227-.652-.67-.844-1.034-1.606 3.117-4.045 5.754-7.167 7.47l-.755.431c-1.053.597-2.126 1.182-3.087 1.708-6.013 3.316-6.491 5.347-6.491 11.29v15.037L4.1 81.976l19.905-8.682 1.295-.556c.507-.246 2.099-.895 3.328-.932 1.254-.077 3.158.003 4.182 1.307l2.847 3.595c2.195 2.838 5.064 5.16 8.493 6.554.936.386 1.908.597 2.874.822.198-.38.511-.823.798-1.182.207-.259.517-.578.806-.877-1.457-.286-3.134-.747-4.44-1.372-2.61-1.24-4.861-2.97-6.592-5.196a5.58 5.58 0 0 1-.232-.307c-.174-.233-.35-.458-.513-.699a110.81 110.81 0 0 0-2.14-2.777c-.66-.835-1.58-1.385-2.56-1.738-1.054-.376-2.276-.544-3.609-.535-2.02.066-4.264 1.141-4.308 1.163l-.7.3-1.866.801-17.418 7.61L50.575 5.53v31.215c0 5.394-.396 6.572-5.343 9.3-.379.208-.781.4-1.195.594-.21.101-.424.21-.639.315-.162.072-.315.157-.473.234-6.5 3.112-11.03 9.415-11.426 16.773.427.115 1.072.298 1.432.407.264.079.662.276.998.456.064-6.799 4.18-12.664 10.124-15.495.405-.198.75-.363 1.092-.525.46-.22.902-.432 1.328-.667a29.324 29.324 0 0 0 2.291-1.397c.181-.118.334-.244.5-.362.362-.262.703-.53 1-.794.172-.15.33-.29.442-.428 1.98-2.005 2.369-4.261 2.369-8.411V5.515l46.468 74.43-20.51-9.033c-4.56-2.008-5.941-3.686-6.552-8.51-1.215-8.008-6.993-14.2-14.583-16.364-.518-.148-.926-.269-1.024-.295-.156.495-.38.916-.506 1.132-.265.45-.535.764-.81 1.066.116.026.84.182.955.21 6.823 1.666 12.1 7.019 13.351 13.786l.178 1.06zM52.905.582A1.252 1.252 0 0 0 51.84 0c-.438 0-.843.221-1.067.58L.18 81.114a1.156 1.156 0 0 0-.14.913c.077.31.281.578.569.742L51.2 111.831a1.285 1.285 0 0 0 1.271.002l50.482-28.74c.288-.165.49-.43.575-.74a1.152 1.152 0 0 0-.142-.916L52.905.582z" fill="#553580" fill-rule="evenodd"/></svg>