<svg width="35" height="40" viewBox="0 0 35 40" xmlns="http://www.w3.org/2000/svg"><title>Discord-Logo-Black</title><g fill-rule="nonzero" fill="none"><path d="M14.151 17C12.95 17 12 18.126 12 19.5s.97 2.5 2.151 2.5c1.202 0 2.151-1.126 2.151-2.5.021-1.374-.949-2.5-2.15-2.5zm7.698 0c-1.202 0-2.151 1.126-2.151 2.5s.97 2.5 2.15 2.5C23.052 22 24 20.874 24 19.5s-.949-2.5-2.151-2.5z" fill="#231A3A"/><path d="M30.9 0H4.1C1.84 0 0 1.84 0 4.12v27.04c0 2.28 1.84 4.12 4.1 4.12h22.68l-1.06-3.7 2.56 2.38 2.42 2.24L35 40V4.12C35 1.84 33.16 0 30.9 0zm-7.72 26.12s-.72-.86-1.32-1.62c2.62-.74 3.62-2.38 3.62-2.38-.82.54-1.6.92-2.3 1.18-1 .42-1.96.7-2.9.86-1.92.36-3.68.26-5.18-.02-1.14-.22-2.12-.54-2.94-.86-.46-.18-.96-.4-1.46-.68-.06-.04-.12-.06-.18-.1-.04-.02-.06-.04-.08-.06-.36-.2-.56-.34-.56-.34s.96 1.6 3.5 2.36c-.6.76-1.34 1.66-1.34 1.66-4.42-.14-6.1-3.04-6.1-3.04 0-6.44 2.88-11.66 2.88-11.66 2.88-2.16 5.62-2.1 5.62-2.1l.2.24c-3.6 1.04-5.26 2.62-5.26 2.62s.44-.24 1.18-.58c2.14-.94 3.84-1.2 4.54-1.26.12-.02.22-.04.34-.04 1.22-.16 2.6-.2 4.04-.04 1.9.22 3.94.78 6.02 1.92 0 0-1.58-1.5-4.98-2.54l.28-.32s2.74-.06 5.62 2.1c0 0 2.88 5.22 2.88 11.66 0 0-1.7 2.9-6.12 3.04z" fill="#553580"/></g></svg>