<svg width="30" height="24" viewBox="0 0 30 24" xmlns="http://www.w3.org/2000/svg"><title>Twitter_Logo_Blue</title><path d="M9.17 23.736c11.005 0 17.024-9.132 17.024-17.052 0-.26 0-.518-.018-.775a12.185 12.185 0 0 0 2.985-3.102c-1.092.484-2.25.802-3.436.943a6.012 6.012 0 0 0 2.63-3.315 11.977 11.977 0 0 1-3.799 1.454A5.981 5.981 0 0 0 17.368.71a6.003 6.003 0 0 0-3.008 6.646A16.976 16.976 0 0 1 2.03 1.094a6.004 6.004 0 0 0 1.852 8 5.93 5.93 0 0 1-2.716-.75v.076a5.993 5.993 0 0 0 4.8 5.875c-.88.24-1.805.276-2.701.103a5.991 5.991 0 0 0 5.59 4.162A11.992 11.992 0 0 1 0 21.044a16.916 16.916 0 0 0 9.17 2.688" fill="#FFF" fill-rule="nonzero"/></svg>