<svg width="127" height="118" viewBox="0 0 127 118" xmlns="http://www.w3.org/2000/svg"><title>metamask</title><g fill-rule="nonzero" fill="none"><g fill="#171820"><path d="M3.71 101.374l4.852 12.342h.071l4.852-12.342h3.639v16.082h-2.819v-5.474l.286-6.97h-.072l-4.994 12.444h-1.89l-4.995-12.41h-.071l.285 6.936v5.474H.036v-16.082zM31 110.214h-7.384v5.066h8.562v2.142h-11.38V101.34h11.309v2.142h-8.49v4.522H31zM46.34 103.55h-5.1v13.906H38.42V103.55H33.32v-2.142h12.985zM56.437 113.682h-6.6l-1.356 3.74h-2.854l6.208-16.082h2.675l6.136 16.082h-2.854l-1.355-3.74zm-5.78-2.21h4.995l-2.426-6.868h-.072l-2.497 6.868zM66.247 101.374l4.852 12.342h.07l4.853-12.342h3.638v16.082h-2.818v-5.474l.286-6.97h-.072l-4.994 12.444h-1.89l-4.995-12.41h-.072l.286 6.936v5.474h-2.819v-16.082zM92.503 113.682h-6.6l-1.355 3.74h-2.854L87.9 101.34h2.676l6.136 16.082h-2.854l-1.356-3.74zm-5.815-2.21h4.995l-2.426-6.868h-.072l-2.497 6.868zM107.772 113.308c0-.68-.25-1.224-.785-1.632-.535-.408-1.427-.816-2.747-1.156-1.89-.476-3.318-1.088-4.352-1.87-1-.782-1.534-1.802-1.534-3.06 0-1.292.57-2.346 1.676-3.196 1.106-.85 2.569-1.258 4.353-1.258 1.855 0 3.353.476 4.459 1.428 1.106.952 1.677 2.108 1.64 3.434l-.035.068h-2.711c0-.816-.285-1.496-.892-2.006-.606-.51-1.427-.782-2.497-.782-1.035 0-1.82.204-2.355.646-.535.442-.82.986-.82 1.666 0 .612.285 1.122.892 1.53.606.408 1.605.782 2.96 1.156 1.82.476 3.176 1.088 4.139 1.904.963.816 1.427 1.87 1.427 3.128 0 1.326-.57 2.414-1.677 3.196-1.106.782-2.604 1.19-4.423 1.19-1.748 0-3.318-.442-4.638-1.326-1.32-.884-1.962-2.108-1.926-3.672l.035-.068h2.711c0 .986.357 1.7 1.07 2.176.714.476 1.642.714 2.783.714 1.035 0 1.855-.204 2.426-.612.535-.374.82-.918.82-1.598zM118.296 110.486h-1.963v6.936h-2.818V101.34h2.818v6.8h1.606l5.28-6.8h3.317l-6.136 7.684 6.6 8.398h-3.425z"/></g><path stroke="#E2761B" fill="#E2761B" stroke-linecap="round" stroke-linejoin="round" d="M105 1L69 28l6.687-15.93z"/><g fill="#E4761B" stroke="#E4761B" stroke-linecap="round" stroke-linejoin="round"><path d="M22.036 1.142l35.25 26.503L51 11.907zM91.286 61.999L81.82 76.422l20.25 5.542 5.786-19.646zM18.286 62.318l5.75 19.646 20.25-5.542L34.857 62z"/><path d="M43.179 37.628l-5.643 8.49 20.071.889-.678-21.494zM82.929 37.628L69 25.228l-.5 21.779 20.071-.889zM44.286 76.422l12.107-5.861-10.429-8.1zM69.714 70.56l12.107 5.862-1.678-13.961z"/></g><g fill="#D7C1B3" stroke="#D7C1B3" stroke-linecap="round" stroke-linejoin="round"><path d="M82.892 77.29l-12.152-6 .968 8.037-.108 3.382zM45.215 77.29l11.293 5.42-.072-3.383.932-8.036z"/></g><path stroke="#233447" fill="#233447" stroke-linecap="round" stroke-linejoin="round" d="M56 58l-10-2.862L53.057 52zM71 58l2.933-6L81 55.138z"/><g fill="#CD6116" stroke="#CD6116" stroke-linecap="round" stroke-linejoin="round"><path d="M45.536 77.748l1.756-14.635-11.22.324zM81.457 63.113l1.756 14.635 9.5-14.31zM89.989 47l-20.147.901 1.864 10.418 2.975-6.272 7.17 3.28zM46.934 55.327l7.134-3.28 2.975 6.272L58.908 47.9 38.76 47z"/></g><g fill="#E4751F" stroke="#E4751F" stroke-linecap="round" stroke-linejoin="round"><path d="M38.248 47l8.358 16.727-.283-8.327zM80.819 55.4l-.319 8.327L88.858 47zM58.152 47.91L56.31 58.417l2.338 12.4.531-16.327zM68.954 47.91l-.92 6.545.424 16.363 2.338-12.4z"/></g><path stroke="#F6851B" fill="#F6851B" stroke-linecap="round" stroke-linejoin="round" d="M71.27 58.088L69 70.772 70.65 72l10.04-8.481L81 55zM46 55l.276 8.519L56.345 72 58 70.772l-2.276-12.684z"/><path stroke="#C0AD9E" fill="#C0AD9E" stroke-linecap="round" stroke-linejoin="round" d="M70.91 82.473l.106-3.416-.88-.808H56.864l-.845.808.07 3.416L45 77l3.873 3.306L56.758 86h13.484l7.885-5.694L82 77z"/><path stroke="#161616" fill="#161616" stroke-linecap="round" stroke-linejoin="round" d="M70.05 71.17L68.36 70h-9.754l-1.69 1.17L56 79l.845-.78H70.12L71 79z"/><g fill="#763D16" stroke="#763D16" stroke-linecap="round" stroke-linejoin="round"><path d="M104.872 28.918l2.986-14.4-4.48-13.377-34.195 25.2 13.152 11.047 18.591 5.4 4.088-4.764-1.777-1.271 2.843-2.577-2.168-1.694 2.844-2.153zM17.249 14.518l3.021 14.4-1.92 1.411 2.845 2.153-2.169 1.694 2.844 2.577-1.777 1.27 4.087 4.765 18.591-5.4 13.153-11.047-34.196-25.2z"/></g><path stroke="#F6851B" fill="#F6851B" stroke-linecap="round" stroke-linejoin="round" d="M102.686 43.472L83.814 38l5.701 8.548L81 63l11.258-.143H109zM44.182 38l-18.896 5.472L19 62.857h16.764L47 63l-8.526-16.452zM68.422 47.417l1.21-20.684L75 12H51l5.369 14.733 1.209 20.684.462 6.524L58.076 70h9.848l.036-16.06z"/></g></svg>