<svg width="171" height="44" viewBox="0 0 171 44" xmlns="http://www.w3.org/2000/svg"><title>trezor</title><path d="M42.29 13.466h18.898v5.505h-6.395v17.951h-6.074V18.971h-6.43v-5.505zm40.667 7.803c0 3.889-2.246 6.091-4.468 6.952l5.113 8.7h-6.966l-4.318-7.915H69.97v7.916H63.93V13.465h10.966c4.824 0 8.062 3.136 8.062 7.804zm-12.986-2.398v4.73h4.233c1.565 0 2.618-.952 2.618-2.367 0-1.412-1.053-2.363-2.618-2.363H69.97zm15.786 18.05V13.467h16.92v5.405h-10.88v3.437h10.65v5.405h-10.65v3.77h10.88v5.439h-16.92zm37.787-18.774l-9.722 13.27h9.722v5.505h-17.876v-4.715l9.719-13.238h-9.719v-5.503h17.876v4.68zm13.126-5.048c7.06 0 12.184 5.095 12.184 12.11 0 7.018-5.124 12.11-12.184 12.11-7.043 0-12.153-5.092-12.153-12.11 0-7.015 5.11-12.11 12.153-12.11zm0 18.681c3.54 0 6.014-2.702 6.014-6.57 0-3.869-2.474-6.572-6.014-6.572-3.578 0-5.982 2.641-5.982 6.571 0 3.87 2.46 6.571 5.982 6.571zm29.216-3.56L171 36.923h-6.965l-4.318-7.916h-2.349v7.916h-6.04V13.465h10.967c4.823 0 8.065 3.136 8.065 7.804 0 3.889-2.25 6.091-4.474 6.952zm-8.518-9.35v4.73h4.235c1.565 0 2.618-.95 2.618-2.366 0-1.412-1.053-2.363-2.618-2.363h-4.235zm-131.66-5.362h4.405v23.41h-.03L15.057 43.97.03 36.918H0v-23.41h4.407v-3.286C4.407 4.586 9.187 0 15.06 0c5.87 0 10.649 4.586 10.649 10.222v3.286zm-1.655 19.516V19.001H6.06v14.023l8.997 4.214 8.996-4.214zM9.87 10.222v3.286h10.375v-3.286c0-2.609-2.328-4.731-5.186-4.731-2.86 0-5.189 2.122-5.189 4.73z" fill="#000" fill-rule="nonzero"/></svg>