<?xml version="1.0" standalone="no"?>
<!DOCTYPE svg PUBLIC "-//W3C//DTD SVG 20010904//EN"
 "http://www.w3.org/TR/2001/REC-SVG-20010904/DTD/svg10.dtd">
<svg version="1.0" xmlns="http://www.w3.org/2000/svg"
 width="260.000000pt" height="260.000000pt" viewBox="0 0 260.000000 260.000000"
 preserveAspectRatio="xMidYMid meet">
<metadata>
Created by potrace 1.11, written by Peter Selinger 2001-2013
</metadata>
<g transform="translate(0.000000,260.000000) scale(0.100000,-0.100000)"
fill="#000000" stroke="none">
<path d="M10 1300 l0 -1290 1290 0 1290 0 0 1290 0 1290 -1290 0 -1290 0 0
-1290z m1339 1013 c12 -10 201 -341 421 -736 410 -735 420 -757 388 -800 -22
-28 -831 -507 -858 -507 -27 0 -836 479 -858 507 -32 43 -22 65 388 800 220
395 409 726 421 736 12 9 34 17 49 17 15 0 37 -8 49 -17z"/>
<path d="M1137 1943 c-63 -115 -219 -393 -345 -620 l-230 -412 52 29 c91 51
196 90 245 90 60 0 129 -33 216 -103 66 -54 113 -78 178 -92 l28 -6 -24 -29
c-14 -16 -27 -35 -29 -41 -9 -26 -128 29 -208 96 -67 56 -137 88 -180 82 -37
-5 -173 -66 -243 -110 l-39 -24 347 -206 c190 -114 348 -207 351 -207 2 0 4
73 4 163 0 157 1 164 24 196 29 39 74 74 139 107 65 33 119 84 148 139 13 25
26 45 29 45 3 0 16 -20 30 -44 l24 -44 -29 -42 c-37 -54 -79 -88 -165 -135
-115 -63 -114 -62 -118 -237 -2 -92 0 -149 6 -147 21 8 682 404 682 409 0 3
-70 40 -156 83 -129 66 -160 86 -186 120 -39 53 -60 104 -82 192 -31 128 -118
220 -234 247 l-50 12 26 38 c15 21 35 38 44 38 36 0 129 -50 179 -96 65 -62
93 -110 120 -209 24 -89 57 -162 85 -186 25 -22 267 -143 263 -131 -2 5 -159
287 -349 627 l-345 619 -5 -295 c-4 -207 -9 -300 -17 -316 -20 -34 -86 -86
-164 -129 -120 -65 -177 -169 -166 -301 2 -35 2 -63 -1 -63 -4 0 -26 8 -50 17
l-44 17 4 75 c10 153 88 272 227 345 38 20 83 52 100 71 l31 36 0 269 c0 149
-2 270 -4 270 -2 0 -55 -93 -119 -207z"/>
</g>
</svg>
