<?xml version="1.0" encoding="UTF-8"?>
<svg width="50px" height="50px" viewBox="0 0 1500 1500" version="1.1" xmlns="http://www.w3.org/2000/svg" xmlns:xlink="http://www.w3.org/1999/xlink">
  <path fill="#FFFFFF" d="M762.876,90.325c-2.568-4.298-7.217-6.926-12.244-6.926c-5.027,0-9.676,2.628-12.244,6.899l-580.801,958.644 c-1.973,3.243-2.568,7.183-1.622,10.872c0.892,3.689,3.243,6.879,6.541,8.831l580.801,345.943c2.243,1.345,4.811,2.013,7.325,2.013 c2.513,0,5.027-0.669,7.27-1.987l579.531-342.112c3.297-1.96,5.622-5.115,6.595-8.804c0.946-3.716,0.379-7.628-1.622-10.899 L762.876,90.325z M804.291,656.565c78.323,19.836,138.914,83.551,153.266,164.106l2.049,12.605l0.681,4.99 c8.649,69.428,34.704,89.719,99.301,119.301c0.135,0.061,0.27,0.034,0.406,0.088l234.358,107.037L765.227,1377.08v-178.803 c0-65.596,3.811-77.367,60.11-109.544c11.054-6.311,22.244-12.906,34.488-20.095l7.649-4.534 c35.044-19.347,63.598-47.983,84.667-81.914c0.771-1.241,6.391-10.023,7.141-11.278c-3.657-1.829-7.525-4.979-12.096-9.093 c-3.008-2.708-7.48-7.98-9.683-12.306c-18.433,37.096-46.434,68.489-82.273,88.908l-8.676,5.135 c-12.081,7.108-24.406,14.068-35.434,20.332c-69.029,39.467-74.516,63.651-74.516,134.389v178.992l-534.016-318.07l228.52-103.334 l14.865-6.622c5.811-2.932,24.082-10.649,38.19-11.095c14.406-0.919,36.26,0.041,48.017,15.555 c16.703,21.886,32.688,42.799,32.688,42.799c25.19,33.785,58.137,61.427,97.49,78.009c0,0,0.216,0.142,0.351,0.203 c0.027,0,0.027,0.014,0.027,0.014v-0.007c10.379,4.385,21.541,6.906,32.623,9.581c2.27-4.527,5.869-9.794,9.154-14.065 c2.374-3.087,5.936-6.886,9.26-10.448c-16.73-3.399-35.983-8.887-50.983-16.327l-0.054-0.041 c-29.893-14.717-55.748-35.317-75.614-61.811c-0.297-0.358-0.983-1.218-1.254-1.623c-0.027-0.034-0.784-1.122-1.405-2.041 c-2-2.77-4.027-5.446-5.892-8.311c-5.297-7.378-13.325-18.372-24.568-33.055c-7.568-9.946-18.136-16.487-29.379-20.69 c0.027,0.007,0.027,0.02,0.027,0.02c-12.136-4.5-26.163-6.493-41.461-6.385c-23.19,0.784-48.947,13.582-49.461,13.838l-8.027,3.575 h-0.027l-0.595,0.263l-20.811,9.271c-0.135,0.054-0.135,0.203-0.243,0.263l-199.709,90.32l531.8-877.824v371.565 c0,64.211-4.541,78.232-61.326,110.692c-4.352,2.487-8.973,4.764-13.73,7.081c-2.405,1.203-4.865,2.5-7.324,3.75 c-1.865,0.858-3.622,1.872-5.433,2.791c-0.027,0-0.081,0.013-0.081,0.027c0,0,0,0-0.027,0.014 c-74.516,36.994-126.517,112.03-131.058,199.607c4.892,1.372,12.298,3.554,16.433,4.845c3.027,0.939,7.595,3.291,11.46,5.433 c0.73-80.935,47.974-150.748,116.22-184.445c0.027-0.013,0.027-0.027,0.027-0.047c0.189-0.081,0.351-0.041,0.514-0.122 c4.108-2.189,8.081-4.149,12-6.081c5.271-2.608,10.352-5.135,15.244-7.933c10.189-5.811,18.622-11.271,26.298-16.636 c2.081-1.405,3.838-2.905,5.73-4.311c4.162-3.122,8.081-6.311,11.487-9.453c1.973-1.777,3.784-3.455,5.081-5.088 c22.73-23.866,27.19-50.731,27.19-100.125V149.056l533.448,885.966l-235.44-107.524c-0.027-0.027-0.081,0.013-0.135,0 c-52.218-23.899-68.089-43.874-75.09-101.302c-0.096-0.782-0.317-2.741-0.506-3.471c-13.449-91.849-79.779-165.544-166.904-191.307 c-5.952-1.76-10.635-3.203-11.763-3.518c-1.794,5.894-4.357,10.909-5.811,13.474c-3.039,5.363-6.134,9.099-9.297,12.694 C794.657,654.377,802.969,656.231,804.291,656.565z" />
</svg>
