<svg width="360" height="121" viewBox="0 0 360 121" fill="none" xmlns="http://www.w3.org/2000/svg">
<path fill-rule="evenodd" clip-rule="evenodd" d="M19.8606 52.1402L27.2977 56.9702C27.998 57.4202 28.9252 57.2002 29.3493 56.4802L53.367 15.7602C53.653 15.2802 54.3434 15.2802 54.6295 15.7602L78.6471 56.4802C79.0713 57.2002 80.0083 57.4202 80.6987 56.9702L88.1358 52.1402C88.8065 51.7102 89.0137 50.8102 88.6093 50.1202L59.9065 1.45024C59.3738 0.550245 58.4171 0.000244141 57.3814 0.000244141H50.615C49.5794 0.000244141 48.6226 0.550245 48.09 1.45024L19.3872 50.1202C18.9828 50.8102 19.1899 51.7102 19.8606 52.1402ZM167.845 35.7249C170.909 37.1179 173.27 39.0221 174.918 41.4575C176.565 43.8929 177.389 46.649 177.389 49.7458V81.2854C177.389 82.2976 176.877 82.7987 175.872 82.7987H167.896C166.881 82.7987 166.379 82.2976 166.379 81.2854V78.9202C166.379 78.6696 166.318 78.5293 166.188 78.4892C166.057 78.4591 165.907 78.5092 165.716 78.6295C162.3 81.9168 157.739 83.5504 152.043 83.5504C147.362 83.5504 143.514 82.3477 140.511 79.9524C137.507 77.5571 136 73.9893 136 69.2488C136 64.328 137.728 60.4895 141.174 57.7434C144.619 54.9974 149.482 53.6243 155.75 53.6243H165.816C166.198 53.6243 166.389 53.4339 166.389 53.0531V50.8783C166.389 48.4128 165.645 46.5087 164.159 45.1456C162.672 43.7927 160.472 43.1111 157.558 43.1111C155.338 43.1111 153.51 43.502 152.053 44.2938C150.597 45.0855 149.612 46.1779 149.11 47.561C148.859 48.4429 148.286 48.8538 147.402 48.7937L138.863 47.7514C138.351 47.6913 137.979 47.5509 137.728 47.3204C137.477 47.1 137.376 46.8294 137.447 46.5187C138.019 42.7303 140.119 39.6335 143.755 37.2382C147.392 34.8429 151.903 33.6403 157.287 33.6403C161.245 33.6403 164.781 34.3418 167.845 35.7249ZM163.053 72.3757C165.264 70.7321 166.379 68.6475 166.379 66.1219V61.7623C166.379 61.3815 166.188 61.191 165.806 61.191H157.93C154.575 61.191 151.913 61.8224 149.954 63.0852C147.995 64.348 147.01 66.152 147.01 68.4871C147.01 70.5116 147.774 72.0751 149.291 73.1775C150.808 74.2799 152.736 74.8311 155.077 74.8311C158.181 74.8411 160.833 74.0193 163.053 72.3757ZM216.367 34.4019H224.243C225.258 34.4019 225.76 34.913 225.76 35.9153V81.2853C225.76 82.2976 225.248 82.7987 224.243 82.7987H216.367C215.353 82.7987 214.85 82.2976 214.85 81.2853V78.8199C214.85 78.5694 214.77 78.409 214.609 78.3489C214.448 78.2887 214.308 78.3789 214.177 78.6295C211.646 81.8466 207.788 83.4601 202.594 83.4601C197.782 83.4601 193.754 82.0671 190.489 79.2909C187.224 76.5148 185.597 72.5661 185.597 67.4548V35.9153C185.597 34.903 186.099 34.4019 187.114 34.4019H195.09C196.105 34.4019 196.607 34.913 196.607 35.9153V64.3279C196.607 67.2945 197.38 69.6597 198.938 71.4336C200.485 73.1975 202.655 74.0895 205.437 74.0895C208.28 74.0895 210.561 73.2075 212.268 71.4336C213.976 69.6697 214.83 67.2945 214.83 64.3279V35.9153C214.85 34.903 215.353 34.4019 216.367 34.4019ZM273.347 34.4019H265.371C264.356 34.4019 263.854 34.903 263.834 35.9353V37.639C263.834 37.8896 263.773 38.0499 263.643 38.1101C263.522 38.1702 263.362 38.1101 263.171 37.9196C260.318 35.0834 256.46 33.6602 251.588 33.6602C247.409 33.6602 243.772 34.8128 240.668 37.1179C237.564 39.423 235.384 42.4997 234.118 46.3482C233.103 49.1244 232.601 53.1332 232.601 58.3748C232.601 63.0451 233.013 66.8635 233.837 69.83C235.173 74.1195 237.544 77.3065 240.959 79.3911C244.385 81.4757 248.142 82.518 252.261 82.518C256.942 82.518 260.589 81.165 263.181 78.4491C263.372 78.2586 263.522 78.1985 263.653 78.2586C263.784 78.3188 263.844 78.4791 263.844 78.7297V79.3009C263.844 83.7207 262.729 86.8576 260.478 88.7217C258.228 90.5858 254.702 91.5179 249.89 91.5179C249.066 91.5179 247.58 91.4577 245.43 91.3275C244.917 91.2573 244.506 91.3575 244.194 91.6081C243.883 91.8586 243.722 92.2094 243.722 92.6504L243.441 99.6558C243.441 100.728 243.883 101.299 244.767 101.36C246.605 101.55 248.413 101.64 250.181 101.64C257.525 101.64 263.482 99.9465 268.033 96.5289C272.584 93.1114 274.864 87.4589 274.864 79.5715V35.9152C274.864 34.913 274.362 34.4019 273.347 34.4019ZM263.854 58.2645C263.854 60.73 263.804 62.5139 263.713 63.6163C263.613 64.7188 263.442 65.751 263.191 66.7031C262.689 68.7176 261.674 70.3612 260.157 71.624C258.64 72.8868 256.651 73.5182 254.18 73.5182C251.839 73.5182 249.83 72.8667 248.152 71.5739C246.475 70.281 245.319 68.6274 244.686 66.6029C244.053 65.0294 243.742 62.2834 243.742 58.3647C243.742 54.5764 244.114 51.7902 244.877 50.0263C245.57 47.9417 246.706 46.2681 248.293 45.0053C249.87 43.7425 251.799 43.1111 254.079 43.1111C256.49 43.1111 258.469 43.7425 260.016 45.0053C261.563 46.2681 262.588 47.9417 263.1 50.0263C263.412 51.0386 263.623 52.0608 263.713 53.1031C263.804 54.1454 263.854 55.8692 263.854 58.2645ZM313.842 34.4019H321.718C322.732 34.4019 323.235 34.913 323.235 35.9153V81.2853C323.235 82.2976 322.722 82.7987 321.718 82.7987H313.842C312.827 82.7987 312.325 82.2976 312.325 81.2853V78.8199C312.325 78.5694 312.244 78.409 312.084 78.3489C311.923 78.2887 311.782 78.3789 311.652 78.6295C309.12 81.8466 305.263 83.4601 300.069 83.4601C295.257 83.4601 291.229 82.0671 287.964 79.2909C284.699 76.5148 283.071 72.5661 283.071 67.4548V35.9153C283.071 34.903 283.574 34.4019 284.588 34.4019H292.565C293.579 34.4019 294.082 34.913 294.082 35.9153V64.3279C294.082 67.2945 294.855 69.6597 296.412 71.4336C297.959 73.1975 300.129 74.0895 302.912 74.0895C305.755 74.0895 308.035 73.2075 309.743 71.4336C311.451 69.6697 312.305 67.2945 312.305 64.3279V35.9153C312.325 34.903 312.837 34.4019 313.842 34.4019ZM359.942 36.7667C360.133 35.8847 359.852 35.2534 359.088 34.8725C357.571 34.181 355.894 33.8302 354.055 33.8402C349.374 33.8402 345.707 35.8246 343.045 39.8034C342.914 40.0539 342.794 40.1441 342.663 40.084C342.533 40.0239 342.472 39.8635 342.472 39.613V35.9148C342.472 34.9126 341.97 34.4015 340.956 34.4015H332.979C331.964 34.4015 331.462 34.9026 331.462 35.9148V81.2749C331.462 82.2871 331.964 82.7882 332.979 82.7882H340.956C341.96 82.7882 342.472 82.2871 342.472 81.2749V54.8466C342.472 52.0705 343.367 49.8055 345.135 48.0716C346.903 46.3378 349.113 45.4058 351.775 45.2755C352.217 45.2153 352.82 45.1853 353.583 45.1853C354.849 45.1853 355.854 45.3156 356.617 45.5661C357.19 45.6964 357.622 45.6964 357.903 45.5661C358.184 45.4458 358.365 45.1352 358.425 44.624L359.942 36.7667ZM96.1647 62.9402L107.587 82.3102C108.395 83.6902 107.981 85.4802 106.659 86.3502L55.5961 119.53C54.6295 120.16 53.3867 120.16 52.4201 119.53L1.35668 86.3502C0.0152383 85.4802 -0.39903 83.6902 0.419641 82.3102L11.8416 62.9402C12.2657 62.2202 13.1929 62.0002 13.8932 62.4502L21.3303 67.2802C22.001 67.7102 22.2081 68.6102 21.8037 69.3002L15.2741 80.3702C15.0768 80.7102 15.1754 81.1602 15.5108 81.3802L53.6037 106.13C53.8404 106.29 54.1462 106.29 54.3928 106.13L92.4955 81.3802C92.8308 81.1602 92.9393 80.7202 92.7322 80.3702L86.2026 69.3002C85.7981 68.6102 86.0053 67.7102 86.676 67.2802L94.1131 62.4502C94.8035 62.0002 95.7406 62.2202 96.1647 62.9402Z" fill="white"/>
</svg>
