<svg width="224" height="222" viewBox="0 0 224 222" fill="none" xmlns="http://www.w3.org/2000/svg">
<path fill-rule="evenodd" clip-rule="evenodd" d="M154.165 62.9404L165.587 82.3104C166.395 83.6904 165.981 85.4804 164.659 86.3504L113.596 119.53C112.629 120.16 111.387 120.16 110.42 119.53L59.3567 86.3504C58.0152 85.4804 57.601 83.6904 58.4196 82.3104L69.8416 62.9404C70.2657 62.2204 71.1929 62.0004 71.8932 62.4504L79.3303 67.2804C80.001 67.7104 80.2081 68.6104 79.8037 69.3004L73.2741 80.3704C73.0768 80.7104 73.1754 81.1604 73.5108 81.3804L111.604 106.13C111.84 106.29 112.146 106.29 112.393 106.13L150.495 81.3804C150.831 81.1604 150.939 80.7204 150.732 80.3704L144.203 69.3004C143.798 68.6104 144.005 67.7104 144.676 67.2804L152.113 62.4504C152.804 62.0004 153.741 62.2204 154.165 62.9404ZM38.9177 161.458C37.2701 159.022 34.9094 157.118 31.8454 155.725C28.7814 154.342 25.2453 153.641 21.2872 153.641C15.9026 153.641 11.392 154.843 7.75541 157.238C4.11881 159.634 2.01922 162.731 1.44661 166.519C1.37629 166.83 1.47674 167.1 1.72789 167.321C1.97904 167.551 2.35072 167.691 2.86306 167.752L11.402 168.794C12.2861 168.854 12.8587 168.443 13.1099 167.561C13.6121 166.178 14.5966 165.086 16.0533 164.294C17.5099 163.502 19.3383 163.111 21.5584 163.111C24.4717 163.111 26.6718 163.793 28.1586 165.146C29.6453 166.509 30.3887 168.413 30.3887 170.879V173.053C30.3887 173.434 30.1979 173.625 29.8161 173.625H19.7502C13.4815 173.625 8.61934 174.998 5.17361 177.744C1.72788 180.49 0 184.328 0 189.249C0 193.99 1.50687 197.557 4.51058 199.953C7.5143 202.348 11.3619 203.551 16.0432 203.551C21.7393 203.551 26.3001 201.917 29.7157 198.63C29.9065 198.509 30.0572 198.459 30.1878 198.489C30.3184 198.53 30.3787 198.67 30.3787 198.92V201.286C30.3787 202.298 30.881 202.799 31.8956 202.799H39.872C40.8766 202.799 41.389 202.298 41.389 201.286V169.746C41.389 166.649 40.5652 163.893 38.9177 161.458ZM30.3787 186.122C30.3787 188.648 29.2636 190.732 27.0535 192.376C24.8334 194.02 22.1813 194.841 19.0771 194.831C16.7364 194.831 14.8076 194.28 13.2907 193.178C11.7737 192.075 11.0103 190.512 11.0103 188.487C11.0103 186.152 11.9948 184.348 13.9537 183.085C15.9126 181.823 18.5748 181.191 21.9301 181.191H29.8061C30.1878 181.191 30.3787 181.382 30.3787 181.763V186.122ZM88.2431 154.402H80.3671C79.3525 154.402 78.8502 154.903 78.8301 155.915V184.328C78.8301 187.295 77.9762 189.67 76.2684 191.434C74.5607 193.208 72.2802 194.09 69.4373 194.09C66.6546 194.09 64.4846 193.198 62.9376 191.434C61.3805 189.66 60.607 187.295 60.607 184.328V155.915C60.607 154.913 60.1046 154.402 59.09 154.402H51.1136C50.099 154.402 49.5967 154.903 49.5967 155.915V187.455C49.5967 192.566 51.2241 196.515 54.489 199.291C57.7539 202.067 61.7823 203.46 66.5943 203.46C71.788 203.46 75.6456 201.847 78.1772 198.63C78.3078 198.379 78.4484 198.289 78.6091 198.349C78.7699 198.409 78.8502 198.57 78.8502 198.82V201.286C78.8502 202.298 79.3525 202.799 80.3671 202.799H88.2431C89.2477 202.799 89.76 202.298 89.76 201.286V155.915C89.76 154.913 89.2577 154.402 88.2431 154.402ZM129.371 154.402H137.347C138.362 154.402 138.864 154.913 138.864 155.915V199.572C138.864 207.459 136.584 213.112 132.033 216.529C127.482 219.947 121.525 221.64 114.181 221.64C112.413 221.64 110.605 221.55 108.767 221.36C107.883 221.3 107.441 220.728 107.441 219.656L107.722 212.651C107.722 212.21 107.883 211.859 108.194 211.608C108.506 211.358 108.917 211.258 109.43 211.328C111.58 211.458 113.066 211.518 113.89 211.518C118.702 211.518 122.228 210.586 124.478 208.722C126.729 206.858 127.844 203.721 127.844 199.301V198.73C127.844 198.479 127.784 198.319 127.653 198.259C127.522 198.199 127.372 198.259 127.181 198.449C124.589 201.165 120.942 202.518 116.261 202.518C112.142 202.518 108.385 201.476 104.959 199.391C101.544 197.307 99.1729 194.12 97.8368 189.83C97.0131 186.864 96.6012 183.045 96.6012 178.375C96.6012 173.133 97.1035 169.125 98.1181 166.348C99.3839 162.5 101.564 159.423 104.668 157.118C107.772 154.813 111.409 153.66 115.588 153.66C120.46 153.66 124.318 155.084 127.171 157.92C127.362 158.11 127.522 158.17 127.643 158.11C127.773 158.05 127.834 157.89 127.834 157.639V155.936C127.854 154.903 128.356 154.402 129.371 154.402ZM127.713 183.617C127.804 182.514 127.854 180.73 127.854 178.265C127.854 175.869 127.804 174.146 127.713 173.103C127.623 172.061 127.412 171.039 127.1 170.027C126.588 167.942 125.563 166.268 124.016 165.006C122.469 163.743 120.49 163.111 118.079 163.111C115.799 163.111 113.87 163.743 112.293 165.006C110.706 166.268 109.57 167.942 108.877 170.027C108.114 171.79 107.742 174.577 107.742 178.365C107.742 182.284 108.053 185.03 108.686 186.603C109.319 188.628 110.475 190.281 112.152 191.574C113.83 192.867 115.839 193.518 118.18 193.518C120.651 193.518 122.64 192.887 124.157 191.624C125.674 190.361 126.689 188.718 127.191 186.703C127.442 185.751 127.613 184.719 127.713 183.617ZM185.718 154.402H177.842C176.837 154.402 176.325 154.903 176.305 155.915V184.328C176.305 187.295 175.451 189.67 173.743 191.434C172.035 193.208 169.755 194.09 166.912 194.09C164.129 194.09 161.959 193.198 160.412 191.434C158.855 189.66 158.082 187.295 158.082 184.328V155.915C158.082 154.913 157.579 154.402 156.565 154.402H148.588C147.574 154.402 147.071 154.903 147.071 155.915V187.455C147.071 192.566 148.699 196.515 151.964 199.291C155.229 202.067 159.257 203.46 164.069 203.46C169.263 203.46 173.12 201.847 175.652 198.63C175.782 198.379 175.923 198.289 176.084 198.349C176.244 198.409 176.325 198.57 176.325 198.82V201.286C176.325 202.298 176.827 202.799 177.842 202.799H185.718C186.722 202.799 187.235 202.298 187.235 201.286V155.915C187.235 154.913 186.732 154.402 185.718 154.402ZM223.088 154.873C223.852 155.254 224.133 155.885 223.942 156.767L222.425 164.624C222.365 165.135 222.184 165.446 221.903 165.566C221.622 165.697 221.19 165.697 220.617 165.566C219.854 165.316 218.849 165.186 217.583 165.186C216.82 165.186 216.217 165.216 215.775 165.276C213.113 165.406 210.903 166.338 209.135 168.072C207.367 169.806 206.472 172.071 206.472 174.847V201.275C206.472 202.287 205.96 202.788 204.956 202.788H196.979C195.964 202.788 195.462 202.287 195.462 201.275V155.915C195.462 154.903 195.964 154.402 196.979 154.402H204.956C205.97 154.402 206.472 154.913 206.472 155.915V159.613C206.472 159.864 206.533 160.024 206.663 160.084C206.794 160.144 206.914 160.054 207.045 159.804C209.707 155.825 213.374 153.84 218.055 153.84C219.894 153.83 221.571 154.181 223.088 154.873Z" fill="white"/>
<path d="M77.8606 52.1405L85.2977 56.9705C85.998 57.4205 86.9252 57.2005 87.3493 56.4805L111.367 15.7605C111.653 15.2805 112.343 15.2805 112.629 15.7605L136.647 56.4805C137.071 57.2005 138.008 57.4205 138.699 56.9705L146.136 52.1405C146.807 51.7105 147.014 50.8105 146.609 50.1205L117.906 1.45049C117.374 0.550489 116.417 0.000488281 115.381 0.000488281H108.615C107.579 0.000488281 106.623 0.550489 106.09 1.45049L77.3872 50.1205C76.9828 50.8105 77.1899 51.7105 77.8606 52.1405Z" fill="#2AE7A8"/>
</svg>
