<svg width="105" height="44" viewBox="0 0 105 44" xmlns="http://www.w3.org/2000/svg" xmlns:xlink="http://www.w3.org/1999/xlink"><title>Logo</title><defs><path id="a" d="M0 0h40.473v43.768H0z"/></defs><g fill="none" fill-rule="evenodd"><g><mask id="b" fill="#fff"><use xlink:href="#a"/></mask><path d="M27.302 24.204l.07.414.023.164c.294 2.279 1.18 2.945 3.38 3.916.005.002.01.001.014.003l7.977 3.514L20.755 42.47V36.6c0-2.153.13-2.54 2.046-3.596.376-.207.757-.423 1.174-.66l.26-.148c1.193-.636 2.165-1.575 2.882-2.69.026-.04.218-.329.243-.37a1.997 1.997 0 0 1-.411-.298 1.653 1.653 0 0 1-.33-.404c-.627 1.218-1.58 2.248-2.8 2.919l-.296.168c-.411.233-.83.462-1.206.668-2.35 1.295-2.537 2.09-2.537 4.412v5.876L1.602 32.035l7.779-3.393.506-.217c.198-.096.82-.35 1.3-.364.49-.03 1.234.001 1.635.51a3055.9 3055.9 0 0 0 1.112 1.405c.858 1.11 1.98 2.017 3.32 2.561a.099.099 0 0 0 .012.007c.353.144.733.227 1.11.315.078-.149.2-.322.312-.462.081-.101.202-.226.315-.343-.57-.111-1.225-.292-1.735-.536l-.002-.001c-1.018-.483-1.898-1.16-2.574-2.03a.939.939 0 0 1-.09-.12c-.069-.09-.138-.178-.201-.273-.18-.242-.454-.603-.837-1.085-.257-.326-.617-.541-1-.68l.001.002c-.413-.148-.89-.214-1.411-.21-.79.026-1.666.446-1.684.454l-.273.118-.021.008-.708.305c-.005.001-.005.006-.009.008L1.661 30.98 19.764 2.16V14.36c0 2.108-.155 2.569-2.088 3.634a8.262 8.262 0 0 1-.467.233l-.25.123c-.063.028-.123.061-.184.091l-.003.001h-.001c-2.536 1.215-4.307 3.679-4.461 6.554.166.045.418.116.559.159.103.03.259.108.39.178.025-2.657 1.633-4.949 3.956-6.055l.001-.001c.007-.003.012-.002.018-.005a14.2 14.2 0 0 1 .408-.2 9.82 9.82 0 0 0 1.414-.806c.071-.046.13-.095.195-.141.142-.103.275-.208.391-.31.068-.059.13-.114.173-.168.774-.783.926-1.665.926-3.287V2.155L38.9 31.241l-8.015-3.53h-.004c-1.778-.784-2.318-1.44-2.556-3.326-.004-.025-.011-.09-.017-.114-.458-3.015-2.716-5.434-5.682-6.28l-.4-.115a2.256 2.256 0 0 1-.198.442 2.387 2.387 0 0 1-.317.416l.373.083c2.667.65 4.73 2.742 5.218 5.387m13.1 7.62L20.675.227A.49.49 0 0 0 20.258 0a.49.49 0 0 0-.417.227L.071 31.697a.465.465 0 0 0 .168.647l19.77 11.358a.502.502 0 0 0 .496 0l19.728-11.23a.478.478 0 0 0 .225-.29.45.45 0 0 0-.056-.358" fill="#553580" mask="url(#b)"/></g><g opacity=".848" fill="#553580"><path d="M54.1 14.932l-3.991 10.586h.883l.945-2.572h5.057l.944 2.572h.884L54.83 14.932H54.1zm.365 1.07l2.27 6.23h-4.54l2.27-6.23zM65.748 25.607c-2.179 0-3.717-1.457-3.717-3.523v-7.152h.823v7.048c0 1.754 1.157 2.914 2.894 2.914 1.736 0 2.894-1.16 2.894-2.914v-7.048h.822v7.152c0 2.066-1.538 3.523-3.716 3.523M80.285 24.388a3.88 3.88 0 0 1-2.848 1.22 3.874 3.874 0 0 1-2.712-1.086c-.99-.967-1.005-1.903-1.005-4.297 0-2.393.016-3.33 1.005-4.296a3.874 3.874 0 0 1 2.712-1.085c1.904 0 3.366 1.219 3.701 3.091h-.822c-.32-1.456-1.417-2.378-2.88-2.378-.776 0-1.507.282-2.056.818-.776.758-.837 1.575-.837 3.85 0 2.275.061 3.093.837 3.85.549.536 1.28.819 2.057.819.853 0 1.69-.357 2.254-1.026.472-.565.655-1.19.655-2.097v-.951h-2.91v-.714h3.732v1.725c0 1.1-.243 1.888-.883 2.557M89.053 25.607c-2.179 0-3.717-1.457-3.717-3.523v-7.152h.823v7.048c0 1.754 1.157 2.914 2.894 2.914 1.736 0 2.894-1.16 2.894-2.914v-7.048h.822v7.152c0 2.066-1.538 3.523-3.716 3.523M101.388 15.646h-3.199v4.282h3.199c1.385 0 2.391-.684 2.391-2.141 0-1.457-1.006-2.14-2.391-2.14zm2.376 9.872l-2.59-4.877H98.19v4.877h-.823V14.933h4.128c1.767 0 3.107.996 3.107 2.84 0 1.575-.975 2.601-2.497 2.853l2.62 4.892h-.96z"/></g></g></svg>