<svg width="108" height="121" viewBox="0 0 108 121" fill="none" xmlns="http://www.w3.org/2000/svg">
<path fill-rule="evenodd" clip-rule="evenodd" d="M27.2977 56.9705L19.8606 52.1405C19.1899 51.7105 18.9828 50.8105 19.3872 50.1205L48.09 1.45049C48.6226 0.550489 49.5794 0.000488281 50.615 0.000488281H57.3814C58.4171 0.000488281 59.3738 0.550489 59.9065 1.45049L88.6093 50.1205C89.0137 50.8105 88.8065 51.7105 88.1358 52.1405L80.6987 56.9705C80.0083 57.4205 79.0713 57.2005 78.6471 56.4805L54.6295 15.7605C54.3434 15.2805 53.653 15.2805 53.367 15.7605L29.3493 56.4805C28.9252 57.2005 27.998 57.4205 27.2977 56.9705ZM96.1647 62.9404L107.587 82.3104C108.395 83.6904 107.981 85.4804 106.659 86.3504L55.5961 119.53C54.6295 120.16 53.3867 120.16 52.4201 119.53L1.35668 86.3504C0.0152383 85.4804 -0.39903 83.6904 0.419641 82.3104L11.8416 62.9404C12.2657 62.2204 13.1929 62.0004 13.8932 62.4504L21.3303 67.2804C22.001 67.7104 22.2081 68.6104 21.8037 69.3004L15.2741 80.3704C15.0768 80.7104 15.1754 81.1604 15.5108 81.3804L53.6037 106.13C53.8404 106.29 54.1462 106.29 54.3928 106.13L92.4955 81.3804C92.8308 81.1604 92.9393 80.7204 92.7322 80.3704L86.2026 69.3004C85.7981 68.6104 86.0053 67.7104 86.676 67.2804L94.1131 62.4504C94.8035 62.0004 95.7406 62.2204 96.1647 62.9404Z" fill="#0E0E21"/>
</svg>
