<svg width="108" height="121" viewBox="0 0 108 121" fill="none" xmlns="http://www.w3.org/2000/svg">
<path d="M19.8607 52.1405L27.2977 56.9705C27.998 57.4205 28.9252 57.2005 29.3493 56.4805L53.367 15.7605C53.653 15.2805 54.3435 15.2805 54.6295 15.7605L78.6472 56.4805C79.0713 57.2005 80.0083 57.4205 80.6988 56.9705L88.1358 52.1405C88.8066 51.7105 89.0137 50.8105 88.6093 50.1205L59.9065 1.45049C59.3739 0.550489 58.4171 0.000488281 57.3814 0.000488281H50.6151C49.5794 0.000488281 48.6226 0.550489 48.09 1.45049L19.3872 50.1205C18.9828 50.8105 19.1899 51.7105 19.8607 52.1405Z" fill="#2AE7A8"/>
<path d="M107.587 82.3104L96.1647 62.9404C95.7406 62.2204 94.8035 62.0004 94.1131 62.4504L86.676 67.2804C86.0053 67.7104 85.7981 68.6104 86.2026 69.3004L92.7322 80.3704C92.9393 80.7204 92.8308 81.1604 92.4955 81.3804L54.3928 106.13C54.1462 106.29 53.8404 106.29 53.6037 106.13L15.5108 81.3804C15.1754 81.1604 15.0768 80.7104 15.2741 80.3704L21.8037 69.3004C22.2081 68.6104 22.001 67.7104 21.3303 67.2804L13.8932 62.4504C13.1929 62.0004 12.2657 62.2204 11.8416 62.9404L0.419641 82.3104C-0.39903 83.6904 0.0152383 85.4804 1.35668 86.3504L52.4201 119.53C53.3867 120.16 54.6295 120.16 55.5961 119.53L106.659 86.3504C107.981 85.4804 108.395 83.6904 107.587 82.3104Z" fill="#0E0E21"/>
</svg>
