<svg width="186" height="152" viewBox="0 0 186 152" fill="none" xmlns="http://www.w3.org/2000/svg">
<path fill-rule="evenodd" clip-rule="evenodd" d="M116.71 18.6618C119.996 19.0895 123.007 16.7724 123.435 13.4864L123.668 11.6895C124.096 8.40349 121.779 5.39293 118.493 4.96521L117.595 4.84826C100.979 2.68543 88.0821 3.81208 77.4367 8.32581C66.7238 12.8682 59.1164 20.4925 52.4889 29.7035C47.6537 36.4236 43.0517 44.4321 38.1217 53.0116L38.1208 53.0131C36.4579 55.907 34.7575 58.866 32.9984 61.8624C29.5731 67.6965 25.8366 73.8378 21.5709 80.2368C21.1875 80.8121 20.2928 80.5097 20.33 79.8194C21.1473 64.6478 21.2768 45.2772 18.1437 30.1764L17.9596 29.2893C17.2864 26.0447 14.1104 23.9601 10.8658 24.6333L9.0915 25.0014C5.84689 25.6746 3.76235 28.8506 4.43554 32.0952L4.6196 32.9824C7.36872 46.2324 7.3447 64.0988 6.53786 79.0764C6.13915 86.4779 5.55947 93.0154 5.0796 97.6997C4.83986 100.04 4.62552 101.913 4.47198 103.194C4.39523 103.835 4.33371 104.327 4.29186 104.656C4.27094 104.82 4.25494 104.944 4.24441 105.024L4.2328 105.112L3.94209 107.279C3.23418 112.554 9.23575 116.071 13.4919 112.874L15.19 111.599L15.193 111.597C15.2097 111.585 15.2484 111.557 15.3093 111.515C15.4394 111.425 15.6707 111.269 16.0045 111.059C16.672 110.637 17.7493 109.997 19.2461 109.227C22.2381 107.688 26.9131 105.629 33.3516 103.773C46.2035 100.067 66.2263 97.1256 94.1066 100.868L95.0046 100.989C98.2888 101.43 101.309 99.1247 101.75 95.8405L101.991 94.0445C102.431 90.7602 100.126 87.7404 96.8422 87.2995L95.9443 87.179C76.5183 84.5712 60.4172 84.9764 47.4845 86.753C41.9823 87.5089 37.5193 81.102 40.4165 76.3637C41.9849 73.7987 43.4776 71.2941 44.9093 68.8554C46.8688 65.518 48.6891 62.351 50.4173 59.3444L50.4173 59.3443C55.2208 50.9874 59.3123 43.8691 63.7005 37.7704C69.5064 29.7012 75.2981 24.235 82.8285 21.042C90.4265 17.8205 100.617 16.567 115.812 18.5448L116.71 18.6618ZM69.2909 133.34C66.0049 132.912 62.9943 135.229 62.5666 138.515L62.3327 140.312C61.905 143.598 64.222 146.609 67.508 147.037L68.4065 147.154C85.0224 149.316 97.9191 148.19 108.564 143.676C119.277 139.134 126.885 131.509 133.512 122.298C138.347 115.578 142.949 107.57 147.879 98.9905L147.88 98.9902C149.543 96.0957 151.243 93.1363 153.003 90.1394C156.428 84.3053 160.165 78.164 164.43 71.765C164.814 71.1897 165.708 71.4921 165.671 72.1824C164.854 87.354 164.724 106.725 167.857 121.825L168.042 122.713C168.715 125.957 171.891 128.042 175.135 127.368L176.91 127C180.154 126.327 182.239 123.151 181.566 119.907L181.382 119.019C178.632 105.769 178.656 87.903 179.463 72.9254C179.862 65.5239 180.442 58.9864 180.922 54.3021C181.161 51.9618 181.376 50.0889 181.529 48.8075C181.606 48.1669 181.667 47.6745 181.709 47.3459C181.73 47.1815 181.746 47.0582 181.757 46.9778L181.768 46.8895L182.059 44.7231C182.767 39.4477 176.765 35.9311 172.509 39.1274L170.811 40.4027L170.808 40.4049C170.792 40.4169 170.753 40.4445 170.692 40.4866C170.562 40.5764 170.33 40.7323 169.997 40.943C169.329 41.3644 168.252 42.005 166.755 42.7748C163.763 44.3136 159.088 46.3724 152.65 48.2289C139.798 51.9346 119.775 54.8762 91.8946 51.1335L90.9966 51.0129C87.7124 50.5721 84.6926 52.8771 84.2517 56.1613L84.0106 57.9573C83.5697 61.2416 85.8747 64.2614 89.1589 64.7023L90.0569 64.8228C109.483 67.4306 125.584 67.0254 138.517 65.2488C144.019 64.4929 148.482 70.8998 145.585 75.6381C144.016 78.2031 142.524 80.7077 141.092 83.1464C139.133 86.4822 137.314 89.6477 135.586 92.653L135.584 92.6575C130.78 101.014 126.689 108.133 122.301 114.231C116.495 122.301 110.703 127.767 103.173 130.96C95.5747 134.181 85.3838 135.435 70.1893 133.457L69.2909 133.34Z" fill="#2C2F36"/>
<path d="M123.435 13.4864L126.409 13.8737L126.409 13.8737L123.435 13.4864ZM116.71 18.6618L116.323 21.6367L116.323 21.6367L116.71 18.6618ZM123.668 11.6895L120.694 11.3022L120.694 11.3022L123.668 11.6895ZM118.493 4.96521L118.106 7.94011L118.106 7.94011L118.493 4.96521ZM117.595 4.84826L117.982 1.87335L117.982 1.87335L117.595 4.84826ZM77.4367 8.32581L78.6078 11.0878L78.6078 11.0878L77.4367 8.32581ZM52.4889 29.7035L54.9241 31.4556L54.9241 31.4556L52.4889 29.7035ZM38.1217 53.0116L40.7226 54.5066L40.7228 54.5063L38.1217 53.0116ZM38.1208 53.0131L35.5199 51.518L35.5197 51.5184L38.1208 53.0131ZM32.9984 61.8624L30.4113 60.3435L30.4113 60.3435L32.9984 61.8624ZM21.5709 80.2368L24.0671 81.9009L24.0671 81.9009L21.5709 80.2368ZM20.33 79.8194L17.3343 79.658L17.3343 79.658L20.33 79.8194ZM18.1437 30.1764L15.2062 30.7859L15.2062 30.7859L18.1437 30.1764ZM17.9596 29.2893L20.8971 28.6798L20.8971 28.6798L17.9596 29.2893ZM10.8658 24.6333L10.2564 21.6959L10.2564 21.6959L10.8658 24.6333ZM9.0915 25.0014L9.70096 27.9389L9.70096 27.9389L9.0915 25.0014ZM4.43554 32.0952L7.37298 31.4858L7.37298 31.4858L4.43554 32.0952ZM4.6196 32.9824L1.68216 33.5918L1.68216 33.5918L4.6196 32.9824ZM6.53786 79.0764L3.54221 78.915L3.54221 78.915L6.53786 79.0764ZM5.0796 97.6997L8.06398 98.0054L8.06398 98.0054L5.0796 97.6997ZM4.47198 103.194L7.45068 103.551L7.45068 103.551L4.47198 103.194ZM4.29186 104.656L7.26783 105.035L7.26783 105.035L4.29186 104.656ZM4.24441 105.024L7.21877 105.415L7.21906 105.413L4.24441 105.024ZM4.2328 105.112L7.20616 105.511L7.20716 105.504L4.2328 105.112ZM3.94209 107.279L6.91544 107.678L6.91544 107.678L3.94209 107.279ZM13.4919 112.874L11.6903 110.476L11.6903 110.476L13.4919 112.874ZM15.19 111.599L13.4395 109.163L13.4138 109.181L13.3884 109.2L15.19 111.599ZM15.193 111.597L16.9435 114.033L16.9447 114.032L15.193 111.597ZM15.3093 111.515L13.6043 109.047L13.6042 109.047L15.3093 111.515ZM16.0045 111.059L14.4031 108.522L14.4031 108.522L16.0045 111.059ZM19.2461 109.227L17.874 106.559L17.874 106.559L19.2461 109.227ZM33.3516 103.773L34.1828 106.655L34.1828 106.655L33.3516 103.773ZM94.1066 100.868L93.7074 103.842L93.7074 103.842L94.1066 100.868ZM95.0046 100.989L95.4037 98.0155L95.4037 98.0155L95.0046 100.989ZM101.75 95.8405L104.723 96.2396L104.723 96.2396L101.75 95.8405ZM101.991 94.0445L104.964 94.4436L104.964 94.4436L101.991 94.0445ZM96.8422 87.2995L97.2414 84.3262L97.2414 84.3262L96.8422 87.2995ZM95.9443 87.179L95.5451 90.1523L95.5451 90.1523L95.9443 87.179ZM47.4845 86.753L47.8927 89.7251L47.8927 89.7251L47.4845 86.753ZM40.4165 76.3637L37.857 74.7987L37.857 74.7987L40.4165 76.3637ZM44.9093 68.8554L42.3223 67.3365L42.3223 67.3365L44.9093 68.8554ZM50.4173 59.3444L53.0182 60.8394L53.0291 60.8204L53.0398 60.8013L50.4173 59.3444ZM50.4173 59.3443L47.8164 57.8493L47.8055 57.8683L47.7949 57.8874L50.4173 59.3443ZM63.7005 37.7704L61.2653 36.0182L61.2653 36.0182L63.7005 37.7704ZM82.8285 21.042L83.9996 23.804L83.9996 23.804L82.8285 21.042ZM115.812 18.5448L116.199 15.5699L116.199 15.5699L115.812 18.5448ZM62.5666 138.515L59.5917 138.128L59.5917 138.128L62.5666 138.515ZM69.2909 133.34L69.6781 130.365L69.6781 130.365L69.2909 133.34ZM62.3327 140.312L65.3076 140.7L65.3076 140.7L62.3327 140.312ZM67.508 147.037L67.1208 150.011L67.1208 150.011L67.508 147.037ZM68.4065 147.154L68.7937 144.179L68.7937 144.179L68.4065 147.154ZM108.564 143.676L109.736 146.438L109.736 146.438L108.564 143.676ZM133.512 122.298L131.077 120.546L131.077 120.546L133.512 122.298ZM147.879 98.9905L150.481 100.485L150.524 100.41L150.563 100.332L147.879 98.9905ZM147.88 98.9902L145.278 97.4955L145.235 97.5708L145.196 97.6486L147.88 98.9902ZM153.003 90.1394L155.59 91.6583L155.59 91.6583L153.003 90.1394ZM164.43 71.765L166.926 73.429L166.926 73.4289L164.43 71.765ZM165.671 72.1824L168.667 72.3438L168.667 72.3438L165.671 72.1824ZM167.857 121.825L170.795 121.216L170.795 121.216L167.857 121.825ZM168.042 122.713L165.104 123.322L165.104 123.322L168.042 122.713ZM175.135 127.368L174.526 124.431L174.526 124.431L175.135 127.368ZM176.91 127L176.3 124.063L176.3 124.063L176.91 127ZM181.566 119.907L178.628 120.516L178.628 120.516L181.566 119.907ZM181.382 119.019L178.444 119.629L178.444 119.629L181.382 119.019ZM179.463 72.9254L176.468 72.764L176.468 72.7641L179.463 72.9254ZM180.922 54.3021L183.906 54.6078L183.906 54.6078L180.922 54.3021ZM181.529 48.8075L178.551 48.4505L178.551 48.4506L181.529 48.8075ZM181.709 47.3459L184.685 47.7249L184.685 47.7247L181.709 47.3459ZM181.757 46.9778L178.782 46.5863L178.782 46.589L181.757 46.9778ZM181.768 46.8895L178.795 46.4905L178.794 46.4981L181.768 46.8895ZM182.059 44.7231L179.086 44.3241L179.086 44.3241L182.059 44.7231ZM172.509 39.1274L174.311 41.5263L174.311 41.5263L172.509 39.1274ZM170.811 40.4027L172.562 42.8386L172.588 42.8204L172.613 42.8016L170.811 40.4027ZM170.808 40.4049L172.559 42.8412L172.559 42.8408L170.808 40.4049ZM170.692 40.4866L172.397 42.955L172.397 42.9548L170.692 40.4866ZM169.997 40.943L168.395 38.4062L168.395 38.4062L169.997 40.943ZM166.755 42.7748L165.383 40.107L165.383 40.107L166.755 42.7748ZM152.65 48.2289L151.818 45.3463L151.818 45.3463L152.65 48.2289ZM91.8946 51.1335L91.4955 54.1068L91.4955 54.1068L91.8946 51.1335ZM90.9966 51.0129L90.5975 53.9863L90.5975 53.9863L90.9966 51.0129ZM84.2517 56.1613L81.2783 55.7622L81.2783 55.7622L84.2517 56.1613ZM84.0106 57.9573L81.0372 57.5582L81.0372 57.5582L84.0106 57.9573ZM89.1589 64.7023L88.7598 67.6756L88.7598 67.6756L89.1589 64.7023ZM90.0569 64.8228L89.6578 67.7961L89.6578 67.7961L90.0569 64.8228ZM138.517 65.2488L138.925 68.2209L138.925 68.2209L138.517 65.2488ZM145.585 75.6381L148.144 77.2031L148.144 77.2031L145.585 75.6381ZM141.092 83.1464L143.679 84.6653L143.679 84.6653L141.092 83.1464ZM135.586 92.653L132.985 91.158L132.982 91.1646L135.586 92.653ZM135.584 92.6575L138.185 94.1525L138.189 94.1459L135.584 92.6575ZM122.301 114.231L124.736 115.984L124.736 115.984L122.301 114.231ZM103.173 130.96L104.344 133.722L104.344 133.722L103.173 130.96ZM70.1893 133.457L69.8021 136.432L69.8021 136.432L70.1893 133.457ZM120.46 13.0992C120.246 14.7422 118.741 15.9007 117.098 15.6869L116.323 21.6367C121.252 22.2783 125.768 18.8026 126.409 13.8737L120.46 13.0992ZM120.694 11.3022L120.46 13.0992L126.409 13.8737L126.643 12.0767L120.694 11.3022ZM118.106 7.94011C119.749 8.15397 120.907 9.65925 120.694 11.3022L126.643 12.0767C127.285 7.14773 123.809 2.63189 118.88 1.9903L118.106 7.94011ZM117.207 7.82316L118.106 7.94011L118.88 1.99031L117.982 1.87335L117.207 7.82316ZM78.6078 11.0878C88.5912 6.85477 100.9 5.70049 117.207 7.82316L117.982 1.87335C101.057 -0.329638 87.5731 0.769395 76.2656 5.56383L78.6078 11.0878ZM54.9241 31.4556C61.3732 22.4924 68.5863 15.337 78.6078 11.0878L76.2656 5.56383C64.8613 10.3993 56.8595 18.4926 50.0538 27.9513L54.9241 31.4556ZM40.7228 54.5063C45.6732 45.8914 50.1961 38.0267 54.9241 31.4556L50.0538 27.9513C45.1113 34.8205 40.4303 42.9727 35.5205 51.5169L40.7228 54.5063ZM40.7218 54.5081L40.7226 54.5066L35.5207 51.5166L35.5199 51.518L40.7218 54.5081ZM35.5854 63.3813C37.3528 60.3709 39.06 57.3999 40.722 54.5077L35.5197 51.5184C33.8557 54.4141 32.1622 57.3611 30.4113 60.3435L35.5854 63.3813ZM24.0671 81.9009C28.3755 75.4378 32.1435 69.2438 35.5854 63.3813L30.4113 60.3435C27.0028 66.1491 23.2978 72.2378 19.0747 78.5728L24.0671 81.9009ZM17.3343 79.658C17.1364 83.3327 21.9551 85.0692 24.0671 81.9009L19.0747 78.5728C20.4198 76.555 23.4492 77.6867 23.3256 79.9807L17.3343 79.658ZM15.2062 30.7859C18.256 45.4849 18.1493 64.529 17.3343 79.658L23.3256 79.9807C24.1452 64.7665 24.2976 45.0695 21.0811 29.567L15.2062 30.7859ZM15.0222 29.8987L15.2062 30.7859L21.0811 29.567L20.8971 28.6798L15.0222 29.8987ZM11.4753 27.5707C13.0976 27.2341 14.6856 28.2764 15.0222 29.8987L20.8971 28.6798C19.8873 23.8129 15.1233 20.6861 10.2564 21.6959L11.4753 27.5707ZM9.70096 27.9389L11.4753 27.5707L10.2564 21.6959L8.48204 22.064L9.70096 27.9389ZM7.37298 31.4858C7.03638 29.8635 8.07865 28.2755 9.70096 27.9389L8.48204 22.064C3.61513 23.0738 0.488311 27.8378 1.49809 32.7047L7.37298 31.4858ZM7.55704 32.3729L7.37298 31.4858L1.49809 32.7047L1.68216 33.5918L7.55704 32.3729ZM9.53352 79.2378C10.3426 64.2186 10.3896 46.0252 7.55704 32.3729L1.68216 33.5918C4.34782 46.4397 4.3468 63.979 3.54221 78.915L9.53352 79.2378ZM8.06398 98.0054C8.54753 93.2852 9.13163 86.6983 9.53352 79.2378L3.54221 78.915C3.14667 86.2575 2.57141 92.7456 2.09522 97.394L8.06398 98.0054ZM7.45068 103.551C7.60604 102.255 7.82232 100.365 8.06398 98.0054L2.09522 97.394C1.8574 99.7155 1.645 101.571 1.49329 102.837L7.45068 103.551ZM7.26783 105.035C7.31057 104.699 7.373 104.2 7.45068 103.551L1.49329 102.837C1.41745 103.47 1.35685 103.955 1.31589 104.277L7.26783 105.035ZM7.21906 105.413C7.23002 105.329 7.24646 105.203 7.26783 105.035L1.31589 104.277C1.29542 104.438 1.27985 104.558 1.26976 104.635L7.21906 105.413ZM7.20716 105.504L7.21877 105.415L1.27005 104.633L1.25844 104.721L7.20716 105.504ZM6.91544 107.678L7.20615 105.511L1.25945 104.713L0.968743 106.88L6.91544 107.678ZM11.6903 110.476C9.56227 112.074 6.56148 110.315 6.91544 107.678L0.968743 106.88C-0.0931281 114.793 8.90923 120.068 15.2934 115.273L11.6903 110.476ZM13.3884 109.2L11.6903 110.476L15.2934 115.273L16.9915 113.998L13.3884 109.2ZM13.4426 109.16L13.4395 109.163L16.9404 114.035L16.9435 114.033L13.4426 109.16ZM13.6042 109.047C13.5276 109.1 13.4733 109.138 13.4414 109.161L16.9447 114.032C16.946 114.031 16.9692 114.015 17.0144 113.984L13.6042 109.047ZM14.4031 108.522C14.0335 108.755 13.7677 108.934 13.6043 109.047L17.0143 113.984C17.1111 113.917 17.3079 113.784 17.6059 113.596L14.4031 108.522ZM17.874 106.559C16.2959 107.371 15.1421 108.055 14.4031 108.522L17.6059 113.596C18.2018 113.219 19.2027 112.623 20.6182 111.895L17.874 106.559ZM32.5205 100.89C25.885 102.804 21.0293 104.936 17.874 106.559L20.6182 111.895C23.4469 110.44 27.9412 108.455 34.1828 106.655L32.5205 100.89ZM94.5057 97.895C66.2191 94.0977 45.7772 97.0679 32.5205 100.89L34.1828 106.655C46.6298 103.067 66.2334 100.153 93.7074 103.842L94.5057 97.895ZM95.4037 98.0155L94.5057 97.895L93.7074 103.842L94.6054 103.962L95.4037 98.0155ZM98.7762 95.4413C98.5557 97.0835 97.0458 98.236 95.4037 98.0155L94.6054 103.962C99.5318 104.624 104.062 101.166 104.723 96.2396L98.7762 95.4413ZM99.0173 93.6454L98.7762 95.4413L104.723 96.2396L104.964 94.4436L99.0173 93.6454ZM96.4431 90.2729C98.0852 90.4933 99.2377 92.0032 99.0173 93.6454L104.964 94.4436C105.625 89.5173 102.168 84.9875 97.2414 84.3262L96.4431 90.2729ZM95.5451 90.1523L96.4431 90.2729L97.2414 84.3262L96.3434 84.2057L95.5451 90.1523ZM47.8927 89.7251C60.5502 87.9863 76.3797 87.5795 95.5451 90.1523L96.3434 84.2057C76.657 81.5629 60.2841 81.9666 47.0762 83.7809L47.8927 89.7251ZM37.857 74.7987C35.6701 78.3753 36.3584 82.4485 38.3274 85.3166C40.2905 88.176 43.8209 90.2845 47.8927 89.7251L47.0762 83.7809C45.6459 83.9774 44.1937 83.2604 43.2739 81.9207C42.3602 80.5898 42.2656 79.0904 42.9759 77.9287L37.857 74.7987ZM42.3223 67.3365C40.8973 69.7636 39.414 72.2524 37.857 74.7987L42.9759 77.9287C44.5557 75.345 46.0578 72.8246 47.4964 70.3743L42.3223 67.3365ZM47.8163 57.8494C46.0874 60.8573 44.2737 64.0127 42.3223 67.3365L47.4964 70.3743C49.4639 67.0232 51.2908 63.8447 53.0182 60.8394L47.8163 57.8494ZM47.7949 57.8874L47.7948 57.8875L53.0398 60.8013L53.0398 60.8012L47.7949 57.8874ZM61.2653 36.0182C56.7698 42.2662 52.5989 49.5289 47.8164 57.8493L53.0183 60.8393C57.8427 52.446 61.8548 45.4721 66.1356 39.5225L61.2653 36.0182ZM81.6574 18.2801C73.4359 21.766 67.2499 27.7008 61.2653 36.0182L66.1356 39.5225C71.763 31.7015 77.1602 26.704 83.9996 23.804L81.6574 18.2801ZM116.199 15.5699C100.696 13.5519 89.9171 14.7779 81.6574 18.2801L83.9996 23.804C90.9358 20.863 100.539 19.5821 115.425 21.5197L116.199 15.5699ZM117.098 15.6869L116.199 15.5699L115.425 21.5197L116.323 21.6367L117.098 15.6869ZM65.5415 138.903C65.7554 137.26 67.2606 136.101 68.9036 136.315L69.6781 130.365C64.7491 129.724 60.2333 133.199 59.5917 138.128L65.5415 138.903ZM65.3076 140.7L65.5415 138.903L59.5917 138.128L59.3578 139.925L65.3076 140.7ZM67.8953 144.062C66.2523 143.848 65.0937 142.343 65.3076 140.7L59.3578 139.925C58.7162 144.854 62.1918 149.37 67.1208 150.011L67.8953 144.062ZM68.7937 144.179L67.8953 144.062L67.1208 150.011L68.0193 150.128L68.7937 144.179ZM107.393 140.914C97.41 145.147 85.1011 146.301 68.7937 144.179L68.0193 150.128C84.9437 152.331 98.4281 151.232 109.736 146.438L107.393 140.914ZM131.077 120.546C124.628 129.509 117.415 136.665 107.393 140.914L109.736 146.438C121.14 141.602 129.142 133.509 135.947 124.05L131.077 120.546ZM145.278 97.4958C140.328 106.111 135.805 113.975 131.077 120.546L135.947 124.05C140.89 117.181 145.571 109.029 150.481 100.485L145.278 97.4958ZM145.196 97.6486L145.196 97.6488L150.563 100.332L150.563 100.332L145.196 97.6486ZM150.416 88.6205C148.648 91.6314 146.941 94.6028 145.278 97.4955L150.481 100.485C152.145 97.5887 153.839 94.6412 155.59 91.6583L150.416 88.6205ZM161.934 70.101C157.626 76.564 153.858 82.758 150.416 88.6205L155.59 91.6583C158.998 85.8527 162.703 79.764 166.926 73.429L161.934 70.101ZM168.667 72.3438C168.865 68.6693 164.046 66.9325 161.934 70.101L166.926 73.4289C165.581 75.447 162.552 74.3149 162.676 72.0211L168.667 72.3438ZM170.795 121.216C167.745 106.517 167.852 87.4728 168.667 72.3438L162.676 72.0211C161.856 87.2353 161.704 106.932 164.92 122.435L170.795 121.216ZM170.979 122.103L170.795 121.216L164.92 122.435L165.104 123.322L170.979 122.103ZM174.526 124.431C172.904 124.768 171.316 123.725 170.979 122.103L165.104 123.322C166.114 128.189 170.878 131.316 175.745 130.306L174.526 124.431ZM176.3 124.063L174.526 124.431L175.745 130.306L177.519 129.938L176.3 124.063ZM178.628 120.516C178.965 122.138 177.923 123.726 176.3 124.063L177.519 129.938C182.386 128.928 185.513 124.164 184.503 119.297L178.628 120.516ZM178.444 119.629L178.628 120.516L184.503 119.297L184.319 118.41L178.444 119.629ZM176.468 72.7641C175.659 87.7832 175.612 105.977 178.444 119.629L184.319 118.41C181.653 105.562 181.654 88.0228 182.459 73.0868L176.468 72.7641ZM177.937 53.9964C177.454 58.7166 176.87 65.3036 176.468 72.764L182.459 73.0868C182.855 65.7443 183.43 59.2562 183.906 54.6078L177.937 53.9964ZM178.551 48.4506C178.395 49.7472 178.179 51.6373 177.937 53.9964L183.906 54.6078C184.144 52.2863 184.356 50.4305 184.508 49.1644L178.551 48.4506ZM178.733 46.9669C178.691 47.3026 178.628 47.8023 178.551 48.4505L184.508 49.1644C184.584 48.5315 184.644 48.0464 184.685 47.7249L178.733 46.9669ZM178.782 46.589C178.771 46.6723 178.755 46.799 178.733 46.967L184.685 47.7247C184.706 47.5641 184.721 47.444 184.731 47.3666L178.782 46.589ZM178.794 46.4981L178.782 46.5863L184.731 47.3692L184.743 47.281L178.794 46.4981ZM179.086 44.3241L178.795 46.4905L184.742 47.2885L185.032 45.1221L179.086 44.3241ZM174.311 41.5263C176.439 39.9281 179.44 41.6864 179.086 44.3241L185.032 45.1221C186.094 37.209 177.092 31.9341 170.708 36.7286L174.311 41.5263ZM172.613 42.8016L174.311 41.5263L170.708 36.7286L169.01 38.0039L172.613 42.8016ZM172.559 42.8408L172.562 42.8386L169.06 37.9669L169.057 37.9691L172.559 42.8408ZM172.397 42.9548C172.474 42.9018 172.528 42.8635 172.559 42.8412L169.058 37.9687C169.055 37.9703 169.032 37.9872 168.987 38.0184L172.397 42.9548ZM171.598 43.4799C171.968 43.2466 172.234 43.0678 172.397 42.955L168.987 38.0182C168.89 38.0851 168.693 38.2181 168.395 38.4062L171.598 43.4799ZM168.127 45.4426C169.705 44.631 170.859 43.9464 171.598 43.4799L168.395 38.4062C167.799 38.7824 166.798 39.379 165.383 40.107L168.127 45.4426ZM153.481 51.1114C160.116 49.1982 164.972 47.0655 168.127 45.4426L165.383 40.107C162.554 41.5618 158.06 43.5466 151.818 45.3463L153.481 51.1114ZM91.4955 54.1068C119.782 57.9041 140.224 54.9339 153.481 51.1114L151.818 45.3463C139.371 48.9353 119.768 51.8483 92.2938 48.1602L91.4955 54.1068ZM90.5975 53.9863L91.4955 54.1068L92.2938 48.1602L91.3958 48.0396L90.5975 53.9863ZM87.225 56.5605C87.4454 54.9183 88.9554 53.7658 90.5975 53.9863L91.3958 48.0396C86.4694 47.3783 81.9397 50.8358 81.2783 55.7622L87.225 56.5605ZM86.9839 58.3564L87.225 56.5605L81.2783 55.7622L81.0372 57.5582L86.9839 58.3564ZM89.5581 61.7289C87.916 61.5085 86.7635 59.9986 86.9839 58.3564L81.0372 57.5582C80.3759 62.4845 83.8334 67.0143 88.7598 67.6756L89.5581 61.7289ZM90.4561 61.8495L89.5581 61.7289L88.7598 67.6756L89.6578 67.7961L90.4561 61.8495ZM138.108 62.2767C125.451 64.0155 109.622 64.4223 90.4561 61.8495L89.6578 67.7961C109.344 70.4389 125.717 70.0353 138.925 68.2209L138.108 62.2767ZM148.144 77.2031C150.331 73.6265 149.643 69.5533 147.674 66.6852C145.711 63.8258 142.18 61.7173 138.108 62.2767L138.925 68.2209C140.355 68.0244 141.808 68.7414 142.727 70.0811C143.641 71.412 143.736 72.9114 143.025 74.0731L148.144 77.2031ZM143.679 84.6653C145.104 82.2382 146.587 79.7494 148.144 77.2031L143.025 74.0731C141.445 76.6568 139.943 79.1772 138.505 81.6275L143.679 84.6653ZM138.187 94.148C139.916 91.1414 141.728 87.9875 143.679 84.6653L138.505 81.6275C136.538 84.977 134.712 88.154 132.985 91.158L138.187 94.148ZM138.189 94.1459L138.191 94.1414L132.982 91.1646L132.979 91.1691L138.189 94.1459ZM124.736 115.984C129.231 109.736 133.402 102.473 138.185 94.1525L132.983 91.1625C128.159 99.5558 124.146 106.53 119.866 112.479L124.736 115.984ZM104.344 133.722C112.565 130.236 118.751 124.301 124.736 115.984L119.866 112.479C114.238 120.3 108.841 125.298 102.002 128.198L104.344 133.722ZM69.8021 136.432C85.3056 138.45 96.0841 137.224 104.344 133.722L102.002 128.198C95.0654 131.139 85.4621 132.42 70.5766 130.482L69.8021 136.432ZM68.9036 136.315L69.8021 136.432L70.5766 130.482L69.6781 130.365L68.9036 136.315Z" fill="black"/>
</svg>
