  <svg viewBox="0 0 16 16" fill="none">
      <path
        fillRule="evenodd"
        clipRule="evenodd"
        d="M3.13103 2.3999H7.53696C10.217 2.3999 12.2484 3.8409 13.0042 5.93773H14.3767V7.20508H13.2932C13.3144 7.40537 13.3253 7.60939 13.3253 7.81669V7.84782C13.3253 8.08119 13.3116 8.31063 13.2848 8.53533H14.3767V9.80267H12.9781C12.2024 11.8703 10.1867 13.2976 7.53696 13.2976H3.13103V9.80267H1.6V8.53533H3.13103V7.20508H1.6V5.93773H3.13103V2.3999ZM4.36275 9.80267V12.1607H7.53696C9.49575 12.1607 10.9511 11.2163 11.6285 9.80267H4.36275ZM12.0058 8.53533H4.36275V7.20508H12.0078C12.0361 7.41443 12.0506 7.62902 12.0506 7.84782V7.87894C12.0506 8.10279 12.0355 8.32193 12.0058 8.53533ZM7.53696 3.53493C9.50477 3.53493 10.9644 4.50426 11.6378 5.93773H4.36275V3.53493H7.53696Z"
        fill="#D7DDE0"
      />
    <defs>
        <rect
          width="12.8"
          height="10.9147"
          fill="white"
          transform="translate(1.6 2.3999)"
        />
    </defs>
  </svg>