<svg width="32" height="32" viewBox="0 0 32 32" fill="none" xmlns="http://www.w3.org/2000/svg">
  <path
    d="M4.02796 10.428L5.53596 11.394C5.67796 11.484 5.86596 11.44 5.95196 11.296L10.822 3.152C10.88 3.056 11.02 3.056 11.078 3.152L15.948 11.296C16.034 11.44 16.224 11.484 16.364 11.394L17.872 10.428C18.008 10.342 18.05 10.162 17.968 10.024L12.148 0.29C12.04 0.11 11.846 0 11.636 0H10.264C10.054 0 9.85996 0.11 9.75196 0.29L3.93196 10.024C3.84996 10.162 3.89196 10.342 4.02796 10.428Z"
    fill="#2AE7A8"></path>
  <path
    d="M21.8161 16.462L19.4981 12.586C19.4121 12.442 19.2221 12.398 19.0821 12.488L17.5741 13.454C17.4381 13.54 17.3961 13.72 17.4781 13.858L18.8021 16.072C18.8441 16.142 18.8221 16.23 18.7541 16.274L11.0301 21.224C10.9801 21.256 10.9181 21.256 10.8701 21.224L3.14611 16.274C3.07811 16.23 3.05811 16.14 3.09811 16.072L4.42211 13.858C4.50411 13.72 4.46211 13.54 4.32611 13.454L2.81811 12.488C2.67611 12.398 2.48811 12.442 2.40211 12.586L0.0841132 16.462C-0.0818868 16.738 0.00211318 17.096 0.274113 17.27L10.6281 23.906C10.8241 24.032 11.0761 24.032 11.2721 23.906L21.6261 17.27C21.8961 17.096 21.9801 16.738 21.8161 16.462Z"
    fill="white"></path>
</svg>