<svg width="24" height="24" viewBox="0 0 24 24" fill="none" xmlns="http://www.w3.org/2000/svg">
<circle cx="12" cy="12" r="12" fill="#3A76C3"/>
<path d="M9.88805 19.968C9.88805 20.256 9.69605 20.352 9.40805 20.352C5.85605 19.2 3.36005 15.936 3.36005 12.096C3.36005 8.25604 5.85605 4.99204 9.40805 3.84004C9.69605 3.74404 9.88805 3.93604 9.88805 4.22404V4.89604C9.88805 5.08804 9.79205 5.28004 9.60005 5.37604C6.81605 6.43204 4.89605 9.02404 4.89605 12.096C4.89605 15.168 6.91205 17.856 9.60005 18.816C9.79205 18.912 9.88805 19.104 9.88805 19.296V19.968Z" fill="white"/>
<path d="M12.768 17.5681C12.768 17.7601 12.576 17.9521 12.384 17.9521H11.616C11.424 17.9521 11.232 17.7601 11.232 17.5681V16.4161C9.69601 16.2241 8.92801 15.3601 8.64001 14.1121C8.64001 13.9201 8.73601 13.7281 8.92801 13.7281H9.79201C9.98401 13.7281 10.08 13.8241 10.176 14.0161C10.368 14.6881 10.752 15.2641 12 15.2641C12.96 15.2641 13.632 14.7841 13.632 14.0161C13.632 13.2481 13.248 12.9601 11.904 12.7681C9.88801 12.4801 8.92801 11.9041 8.92801 10.2721C8.92801 9.02406 9.88802 8.06406 11.232 7.87206V6.72006C11.232 6.52806 11.424 6.33606 11.616 6.33606H12.384C12.576 6.33606 12.768 6.52806 12.768 6.72006V7.87206C13.92 8.06406 14.688 8.73606 14.88 9.79206C14.88 9.98406 14.784 10.1761 14.592 10.1761H13.824C13.632 10.1761 13.536 10.0801 13.44 9.88806C13.248 9.21606 12.768 8.92806 11.904 8.92806C10.944 8.92806 10.464 9.40806 10.464 10.0801C10.464 10.7521 10.752 11.1361 12.192 11.3281C14.208 11.6161 15.168 12.1921 15.168 13.8241C15.168 15.0721 14.208 16.1281 12.768 16.4161V17.5681Z" fill="white"/>
<path d="M14.5921 20.352C14.3041 20.448 14.1121 20.256 14.1121 19.968V19.296C14.1121 19.104 14.2081 18.912 14.4001 18.816C17.1841 17.76 19.1041 15.168 19.1041 12.096C19.1041 9.02403 17.0881 6.33603 14.4001 5.37603C14.2081 5.28003 14.1121 5.08803 14.1121 4.89603V4.22403C14.1121 3.93603 14.3041 3.84003 14.5921 3.84003C18.0481 4.99203 20.6401 8.25603 20.6401 12.096C20.6401 15.936 18.1441 19.2 14.5921 20.352Z" fill="white"/>
<defs>
<clipPath id="clip0">
<rect width="19.2" height="19.2" fill="white" transform="translate(2.40002 2.40002)"/>
</clipPath>
</defs>
</svg>
