<svg viewBox="0 0 24 24" fill="none" xmlns="http://www.w3.org/2000/svg">
<circle cx="12" cy="12" r="12" fill="#6BAC95"/>
<path d="M13.4229 9.89337V8.18578H17.3462V5.58398H6.66274V8.18578H10.5866V9.89199C7.39764 10.0378 4.99988 10.6664 4.99988 11.4194C4.99988 12.1724 7.3988 12.801 10.5866 12.9477V18.4173H13.4238V12.9472C16.607 12.801 18.9999 12.1728 18.9999 11.4205C18.9999 10.6682 16.607 10.0401 13.4238 9.89383L13.4229 9.89337ZM13.4238 12.4839V12.4825C13.3437 12.4876 12.9325 12.5121 12.0167 12.5121C11.2846 12.5121 10.7695 12.4915 10.588 12.4821V12.4844C7.77063 12.3602 5.66765 11.8719 5.66765 11.2876C5.66765 10.7033 7.77086 10.2157 10.588 10.0913V11.9979C10.7725 12.0105 11.3003 12.0415 12.0287 12.0415C12.9036 12.0415 13.3435 12.0052 13.4242 11.9979V10.0913C16.236 10.2159 18.3342 10.7047 18.3342 11.2869C18.3342 11.8691 16.2351 12.3581 13.4242 12.4828" fill="white"/>
<defs>
    <rect width="14" height="14" fill="white" transform="translate(4.99988 5)"/>
  </defs>
</svg>
