
<svg width="20px" height="20px" viewBox="0 0 20 20" version="1.1" xmlns="http://www.w3.org/2000/svg" xmlns:xlink="http://www.w3.org/1999/xlink">
    <!-- Generator: Sketch 51.2 (57519) - http://www.bohemiancoding.com/sketch -->
    <desc>Created with Sketch.</desc>
    <defs></defs>
    <g id="Design" stroke="none" stroke-width="1" fill="none" fill-rule="evenodd">
        <g id="02-Add-New-Network-Dropdown-menu---Hover-State" transform="translate(-296.000000, -24.000000)" fill="#FFFFFF" fill-rule="nonzero">
            <g id="Settings" transform="translate(296.000000, 24.000000)">
                <path d="M5.875,7 C4.64349005,6.99809776 3.56086528,7.81517306 3.225,9 L0.125,9 L0.125,10.5 L3.225,10.5 C3.55521979,11.6908364 4.63922641,12.5151531 5.875,12.5151531 C7.11077359,12.5151531 8.19478021,11.6908364 8.525,10.5 L19.875,10.5 L19.875,9 L8.525,9 C8.18913472,7.81517306 7.10650995,6.99809776 5.875,7 Z M5.875,11 C5.18464406,11 4.625,10.4403559 4.625,9.75 C4.625,9.05964406 5.18464406,8.5 5.875,8.5 C6.56535594,8.5 7.125,9.05964406 7.125,9.75 C7.125,10.4403559 6.56535594,11 5.875,11 Z" id="Shape"></path>
                <path d="M14.125,0.125 C12.8934901,0.123097759 11.8108653,0.940173057 11.475,2.125 L0.125,2.125 L0.125,3.625 L11.475,3.625 C11.8052198,4.81583637 12.8892264,5.64015308 14.125,5.64015308 C15.3607736,5.64015308 16.4447802,4.81583637 16.775,3.625 L19.875,3.625 L19.875,2.125 L16.775,2.125 C16.4391347,0.940173057 15.3565099,0.123097759 14.125,0.125 Z M14.125,4.125 C13.4346441,4.125 12.875,3.56535594 12.875,2.875 C12.875,2.18464406 13.4346441,1.625 14.125,1.625 C14.8153559,1.625 15.375,2.18464406 15.375,2.875 C15.375,3.56535594 14.8153559,4.125 14.125,4.125 Z" id="Shape"></path>
                <path d="M14.125,13.875 C12.8934901,13.8730978 11.8108653,14.6901731 11.475,15.875 L0.125,15.875 L0.125,17.375 L11.475,17.375 C11.8052198,18.5658364 12.8892264,19.3901531 14.125,19.3901531 C15.3607736,19.3901531 16.4447802,18.5658364 16.775,17.375 L19.875,17.375 L19.875,15.875 L16.775,15.875 C16.4391347,14.6901731 15.3565099,13.8730978 14.125,13.875 Z M14.125,17.875 C13.4346441,17.875 12.875,17.3153559 12.875,16.625 C12.875,15.9346441 13.4346441,15.375 14.125,15.375 C14.8153559,15.375 15.375,15.9346441 15.375,16.625 C15.375,17.3153559 14.8153559,17.875 14.125,17.875 Z" id="Shape"></path>
            </g>
        </g>
    </g>
</svg>