<svg width="360" height="121" viewBox="0 0 360 121" fill="none" xmlns="http://www.w3.org/2000/svg">
<path fill-rule="evenodd" clip-rule="evenodd" d="M174.918 41.4575C173.27 39.0221 170.909 37.1179 167.845 35.7249C164.781 34.3418 161.245 33.6403 157.287 33.6403C151.903 33.6403 147.392 34.8429 143.755 37.2382C140.119 39.6335 138.019 42.7303 137.447 46.5187C137.376 46.8294 137.477 47.1 137.728 47.3204C137.979 47.5509 138.351 47.6913 138.863 47.7514L147.402 48.7937C148.286 48.8538 148.859 48.4429 149.11 47.561C149.612 46.1779 150.597 45.0855 152.053 44.2938C153.51 43.502 155.338 43.1111 157.558 43.1111C160.472 43.1111 162.672 43.7927 164.159 45.1456C165.645 46.5087 166.389 48.4128 166.389 50.8783V53.0531C166.389 53.4339 166.198 53.6243 165.816 53.6243H155.75C149.482 53.6243 144.619 54.9974 141.174 57.7434C137.728 60.4895 136 64.328 136 69.2488C136 73.9893 137.507 77.5571 140.511 79.9524C143.514 82.3477 147.362 83.5504 152.043 83.5504C157.739 83.5504 162.3 81.9168 165.716 78.6295C165.907 78.5092 166.057 78.4591 166.188 78.4892C166.318 78.5293 166.379 78.6696 166.379 78.9202V81.2854C166.379 82.2976 166.881 82.7987 167.896 82.7987H175.872C176.877 82.7987 177.389 82.2976 177.389 81.2854V49.7458C177.389 46.649 176.565 43.8929 174.918 41.4575ZM166.379 66.1219C166.379 68.6475 165.264 70.7321 163.053 72.3757C160.833 74.0193 158.181 74.8412 155.077 74.8311C152.736 74.8311 150.808 74.2799 149.291 73.1775C147.774 72.075 147.01 70.5116 147.01 68.4871C147.01 66.152 147.995 64.348 149.954 63.0852C151.913 61.8224 154.575 61.191 157.93 61.191H165.806C166.188 61.191 166.379 61.3815 166.379 61.7623V66.1219ZM224.243 34.4019H216.367C215.353 34.4019 214.85 34.903 214.83 35.9153V64.3279C214.83 67.2945 213.976 69.6697 212.268 71.4336C210.561 73.2075 208.28 74.0895 205.437 74.0895C202.655 74.0895 200.485 73.1975 198.938 71.4336C197.38 69.6597 196.607 67.2945 196.607 64.3279V35.9153C196.607 34.913 196.105 34.4019 195.09 34.4019H187.114C186.099 34.4019 185.597 34.903 185.597 35.9153V67.4548C185.597 72.5661 187.224 76.5148 190.489 79.2909C193.754 82.0671 197.782 83.4601 202.594 83.4601C207.788 83.4601 211.646 81.8466 214.177 78.6295C214.308 78.3789 214.448 78.2887 214.609 78.3489C214.77 78.409 214.85 78.5694 214.85 78.8199V81.2853C214.85 82.2976 215.353 82.7987 216.367 82.7987H224.243C225.248 82.7987 225.76 82.2976 225.76 81.2853V35.9153C225.76 34.913 225.258 34.4019 224.243 34.4019ZM265.371 34.4019H273.347C274.362 34.4019 274.864 34.913 274.864 35.9152V79.5715C274.864 87.4589 272.584 93.1114 268.033 96.5289C263.482 99.9465 257.525 101.64 250.181 101.64C248.413 101.64 246.605 101.55 244.767 101.36C243.883 101.299 243.441 100.728 243.441 99.6558L243.722 92.6504C243.722 92.2094 243.883 91.8586 244.194 91.6081C244.506 91.3575 244.917 91.2573 245.43 91.3275C247.58 91.4577 249.066 91.5179 249.89 91.5179C254.702 91.5179 258.228 90.5858 260.478 88.7217C262.729 86.8576 263.844 83.7207 263.844 79.3009V78.7297C263.844 78.4791 263.784 78.3188 263.653 78.2586C263.522 78.1985 263.372 78.2586 263.181 78.4491C260.589 81.165 256.942 82.518 252.261 82.518C248.142 82.518 244.385 81.4757 240.959 79.3911C237.544 77.3065 235.173 74.1195 233.837 69.83C233.013 66.8635 232.601 63.0451 232.601 58.3748C232.601 53.1332 233.103 49.1244 234.118 46.3482C235.384 42.4997 237.564 39.423 240.668 37.1179C243.772 34.8128 247.409 33.6602 251.588 33.6602C256.46 33.6602 260.318 35.0834 263.171 37.9196C263.362 38.1101 263.522 38.1702 263.643 38.1101C263.773 38.0499 263.834 37.8896 263.834 37.639V35.9353C263.854 34.903 264.356 34.4019 265.371 34.4019ZM263.713 63.6163C263.804 62.5139 263.854 60.73 263.854 58.2645C263.854 55.8692 263.804 54.1454 263.713 53.1031C263.623 52.0608 263.412 51.0386 263.1 50.0264C262.588 47.9418 261.563 46.2681 260.016 45.0053C258.469 43.7425 256.49 43.1111 254.079 43.1111C251.799 43.1111 249.87 43.7425 248.293 45.0053C246.706 46.2681 245.57 47.9418 244.877 50.0264C244.114 51.7902 243.742 54.5764 243.742 58.3647C243.742 62.2834 244.053 65.0294 244.686 66.6029C245.319 68.6274 246.475 70.281 248.152 71.5739C249.83 72.8667 251.839 73.5182 254.18 73.5182C256.651 73.5182 258.64 72.8868 260.157 71.624C261.674 70.3612 262.689 68.7176 263.191 66.7031C263.442 65.751 263.613 64.7188 263.713 63.6163ZM321.718 34.4019H313.842C312.837 34.4019 312.325 34.903 312.305 35.9153V64.3279C312.305 67.2945 311.451 69.6697 309.743 71.4336C308.035 73.2075 305.755 74.0895 302.912 74.0895C300.129 74.0895 297.959 73.1975 296.412 71.4336C294.855 69.6597 294.082 67.2945 294.082 64.3279V35.9153C294.082 34.913 293.579 34.4019 292.565 34.4019H284.588C283.574 34.4019 283.071 34.903 283.071 35.9153V67.4548C283.071 72.5661 284.699 76.5148 287.964 79.2909C291.229 82.0671 295.257 83.4601 300.069 83.4601C305.263 83.4601 309.12 81.8466 311.652 78.6295C311.782 78.3789 311.923 78.2887 312.084 78.3489C312.244 78.409 312.325 78.5694 312.325 78.8199V81.2853C312.325 82.2976 312.827 82.7987 313.842 82.7987H321.718C322.722 82.7987 323.235 82.2976 323.235 81.2853V35.9153C323.235 34.913 322.732 34.4019 321.718 34.4019ZM359.088 34.8725C359.852 35.2534 360.133 35.8847 359.942 36.7667L358.425 44.624C358.365 45.1352 358.184 45.4458 357.903 45.5661C357.622 45.6964 357.19 45.6964 356.617 45.5661C355.854 45.3156 354.849 45.1853 353.583 45.1853C352.82 45.1853 352.217 45.2153 351.775 45.2755C349.113 45.4057 346.903 46.3378 345.135 48.0716C343.367 49.8055 342.472 52.0705 342.472 54.8466V81.2749C342.472 82.2871 341.96 82.7882 340.956 82.7882H332.979C331.964 82.7882 331.462 82.2871 331.462 81.2749V35.9148C331.462 34.9026 331.964 34.4015 332.979 34.4015H340.956C341.97 34.4015 342.472 34.9126 342.472 35.9148V39.613C342.472 39.8635 342.533 40.0239 342.663 40.084C342.794 40.1441 342.914 40.0539 343.045 39.8034C345.707 35.8246 349.374 33.8402 354.055 33.8402C355.894 33.8302 357.571 34.181 359.088 34.8725ZM96.1647 62.9402L107.587 82.3102C108.395 83.6902 107.981 85.4802 106.659 86.3502L55.5961 119.53C54.6295 120.16 53.3867 120.16 52.4201 119.53L1.35667 86.3502C0.015242 85.4802 -0.399034 83.6902 0.419646 82.3102L11.8416 62.9402C12.2657 62.2202 13.1929 62.0002 13.8932 62.4502L21.3303 67.2802C22.001 67.7102 22.2081 68.6102 21.8037 69.3002L15.2741 80.3702C15.0768 80.7102 15.1754 81.1602 15.5108 81.3802L53.6037 106.13C53.8404 106.29 54.1462 106.29 54.3928 106.13L92.4955 81.3802C92.8308 81.1602 92.9393 80.7202 92.7322 80.3702L86.2026 69.3002C85.7981 68.6102 86.0053 67.7102 86.676 67.2802L94.1131 62.4502C94.8035 62.0002 95.7406 62.2202 96.1647 62.9402Z" fill="white"/>
<path d="M19.8606 52.1402L27.2977 56.9702C27.998 57.4202 28.9252 57.2002 29.3493 56.4802L53.367 15.7602C53.653 15.2802 54.3434 15.2802 54.6295 15.7602L78.6471 56.4802C79.0713 57.2002 80.0083 57.4202 80.6987 56.9702L88.1358 52.1402C88.8065 51.7102 89.0137 50.8102 88.6093 50.1202L59.9065 1.45024C59.3738 0.550245 58.4171 0.000244141 57.3814 0.000244141H50.615C49.5794 0.000244141 48.6226 0.550245 48.09 1.45024L19.3872 50.1202C18.9828 50.8102 19.1899 51.7102 19.8606 52.1402Z" fill="#2AE7A8"/>
</svg>
