<svg width="224" height="222" viewBox="0 0 224 222" fill="none" xmlns="http://www.w3.org/2000/svg">
<path fill-rule="evenodd" clip-rule="evenodd" d="M31.8454 155.725C34.9094 157.118 37.2701 159.023 38.9177 161.458C40.5652 163.893 41.389 166.649 41.389 169.746V201.286C41.389 202.298 40.8766 202.799 39.872 202.799H31.8956C30.881 202.799 30.3787 202.298 30.3787 201.286V198.921C30.3787 198.67 30.3184 198.53 30.1878 198.49C30.0572 198.459 29.9065 198.51 29.7157 198.63C26.3001 201.917 21.7393 203.551 16.0432 203.551C11.3619 203.551 7.5143 202.348 4.51058 199.953C1.50687 197.558 0 193.99 0 189.249C0 184.328 1.72788 180.49 5.17361 177.744C8.61934 174.998 13.4815 173.625 19.7502 173.625H29.8161C30.1979 173.625 30.3887 173.434 30.3887 173.053V170.879C30.3887 168.413 29.6453 166.509 28.1586 165.146C26.6718 163.793 24.4717 163.112 21.5584 163.112C19.3383 163.112 17.5099 163.502 16.0533 164.294C14.5966 165.086 13.6121 166.178 13.1099 167.561C12.8587 168.443 12.2861 168.854 11.402 168.794L2.86306 167.752C2.35072 167.692 1.97904 167.551 1.72789 167.321C1.47674 167.1 1.37629 166.83 1.44661 166.519C2.01922 162.731 4.11881 159.634 7.75541 157.239C11.392 154.843 15.9026 153.641 21.2872 153.641C25.2453 153.641 28.7814 154.342 31.8454 155.725ZM27.0535 192.376C29.2636 190.732 30.3787 188.648 30.3787 186.122V181.763C30.3787 181.382 30.1878 181.191 29.8061 181.191H21.9301C18.5748 181.191 15.9126 181.823 13.9537 183.086C11.9948 184.348 11.0103 186.152 11.0103 188.488C11.0103 190.512 11.7737 192.075 13.2907 193.178C14.8076 194.28 16.7364 194.831 19.0771 194.831C22.1813 194.842 24.8334 194.02 27.0535 192.376ZM80.3671 154.402H88.2431C89.2577 154.402 89.76 154.913 89.76 155.916V201.286C89.76 202.298 89.2477 202.799 88.2431 202.799H80.3671C79.3525 202.799 78.8502 202.298 78.8502 201.286V198.82C78.8502 198.57 78.7699 198.409 78.6091 198.349C78.4484 198.289 78.3078 198.379 78.1772 198.63C75.6456 201.847 71.788 203.461 66.5943 203.461C61.7823 203.461 57.7539 202.067 54.489 199.291C51.2241 196.515 49.5967 192.566 49.5967 187.455V155.916C49.5967 154.903 50.099 154.402 51.1136 154.402H59.09C60.1046 154.402 60.607 154.913 60.607 155.916V184.328C60.607 187.295 61.3805 189.66 62.9376 191.434C64.4846 193.198 66.6546 194.09 69.4373 194.09C72.2802 194.09 74.5607 193.208 76.2684 191.434C77.9762 189.67 78.8301 187.295 78.8301 184.328V155.916C78.8502 154.903 79.3525 154.402 80.3671 154.402ZM137.347 154.402H129.371C128.356 154.402 127.854 154.903 127.834 155.936V157.639C127.834 157.89 127.773 158.05 127.643 158.11C127.522 158.171 127.362 158.11 127.171 157.92C124.318 155.084 120.46 153.661 115.588 153.661C111.409 153.661 107.772 154.813 104.668 157.118C101.564 159.423 99.3839 162.5 98.1181 166.349C97.1035 169.125 96.6012 173.134 96.6012 178.375C96.6012 183.045 97.0131 186.864 97.8368 189.83C99.1729 194.12 101.544 197.307 104.959 199.391C108.385 201.476 112.142 202.518 116.261 202.518C120.942 202.518 124.589 201.165 127.181 198.449C127.372 198.259 127.522 198.199 127.653 198.259C127.784 198.319 127.844 198.479 127.844 198.73V199.301C127.844 203.721 126.729 206.858 124.478 208.722C122.228 210.586 118.702 211.518 113.89 211.518C113.066 211.518 111.58 211.458 109.43 211.328C108.917 211.258 108.506 211.358 108.194 211.608C107.883 211.859 107.722 212.21 107.722 212.651L107.441 219.656C107.441 220.729 107.883 221.3 108.767 221.36C110.605 221.55 112.413 221.641 114.181 221.641C121.525 221.641 127.482 219.947 132.033 216.529C136.584 213.112 138.864 207.459 138.864 199.572V155.916C138.864 154.913 138.362 154.402 137.347 154.402ZM127.854 178.265C127.854 180.73 127.804 182.514 127.713 183.617C127.613 184.719 127.442 185.751 127.191 186.704C126.689 188.718 125.674 190.362 124.157 191.624C122.64 192.887 120.651 193.519 118.18 193.519C115.839 193.519 113.83 192.867 112.152 191.574C110.475 190.281 109.319 188.628 108.686 186.603C108.053 185.03 107.742 182.284 107.742 178.365C107.742 174.577 108.114 171.791 108.877 170.027C109.57 167.942 110.706 166.268 112.293 165.006C113.87 163.743 115.799 163.111 118.079 163.111C120.49 163.111 122.469 163.743 124.016 165.006C125.563 166.268 126.588 167.942 127.1 170.027C127.412 171.039 127.623 172.061 127.713 173.104C127.804 174.146 127.854 175.87 127.854 178.265ZM177.842 154.402H185.718C186.732 154.402 187.235 154.913 187.235 155.916V201.286C187.235 202.298 186.722 202.799 185.718 202.799H177.842C176.827 202.799 176.325 202.298 176.325 201.286V198.82C176.325 198.57 176.244 198.409 176.084 198.349C175.923 198.289 175.782 198.379 175.652 198.63C173.12 201.847 169.263 203.461 164.069 203.461C159.257 203.461 155.229 202.067 151.964 199.291C148.699 196.515 147.071 192.566 147.071 187.455V155.916C147.071 154.903 147.574 154.402 148.588 154.402H156.565C157.579 154.402 158.082 154.913 158.082 155.916V184.328C158.082 187.295 158.855 189.66 160.412 191.434C161.959 193.198 164.129 194.09 166.912 194.09C169.755 194.09 172.035 193.208 173.743 191.434C175.451 189.67 176.305 187.295 176.305 184.328V155.916C176.325 154.903 176.837 154.402 177.842 154.402ZM223.942 156.767C224.133 155.885 223.852 155.254 223.088 154.873C221.571 154.181 219.894 153.831 218.055 153.841C213.374 153.841 209.707 155.825 207.045 159.804C206.914 160.054 206.794 160.145 206.663 160.084C206.533 160.024 206.472 159.864 206.472 159.613V155.915C206.472 154.913 205.97 154.402 204.956 154.402H196.979C195.964 154.402 195.462 154.903 195.462 155.915V201.275C195.462 202.287 195.964 202.789 196.979 202.789H204.956C205.96 202.789 206.472 202.287 206.472 201.275V174.847C206.472 172.071 207.367 169.806 209.135 168.072C210.903 166.338 213.113 165.406 215.775 165.276C216.217 165.216 216.82 165.186 217.583 165.186C218.849 165.186 219.854 165.316 220.617 165.566C221.19 165.697 221.622 165.697 221.903 165.566C222.184 165.446 222.365 165.136 222.425 164.624L223.942 156.767Z" fill="#0E0E21"/>
<path d="M77.8606 52.1405L85.2977 56.9705C85.998 57.4205 86.9252 57.2005 87.3493 56.4805L111.367 15.7605C111.653 15.2805 112.343 15.2805 112.629 15.7605L136.647 56.4805C137.071 57.2005 138.008 57.4205 138.699 56.9705L146.136 52.1405C146.807 51.7105 147.014 50.8105 146.609 50.1205L117.906 1.45049C117.374 0.550489 116.417 0.000488281 115.381 0.000488281H108.615C107.579 0.000488281 106.623 0.550489 106.09 1.45049L77.3872 50.1205C76.9828 50.8105 77.1899 51.7105 77.8606 52.1405Z" fill="#0E0E21"/>
<path d="M165.587 82.3104L154.165 62.9404C153.741 62.2204 152.804 62.0004 152.113 62.4504L144.676 67.2804C144.005 67.7104 143.798 68.6104 144.203 69.3004L150.732 80.3704C150.939 80.7204 150.831 81.1604 150.495 81.3804L112.393 106.13C112.146 106.29 111.84 106.29 111.604 106.13L73.5108 81.3804C73.1754 81.1604 73.0768 80.7104 73.2741 80.3704L79.8037 69.3004C80.2081 68.6104 80.001 67.7104 79.3303 67.2804L71.8932 62.4504C71.1929 62.0004 70.2657 62.2204 69.8416 62.9404L58.4196 82.3104C57.601 83.6904 58.0152 85.4804 59.3567 86.3504L110.42 119.53C111.387 120.16 112.629 120.16 113.596 119.53L164.659 86.3504C165.981 85.4804 166.395 83.6904 165.587 82.3104Z" fill="#0E0E21"/>
</svg>
