<?xml version="1.0" standalone="yes"?><svg xmlns="http://www.w3.org/2000/svg" width="224" height="222" viewBox="0 0 224 222" fill="none" style="zoom: 1;"><path d="M301.860596,383.140503 L309.297699,387.97052 C309.997986,388.420502 310.925201,388.2005 311.349304,387.480499 L335.367004,346.760498 C335.653015,346.280518 336.343018,346.280518 336.628998,346.760498 L360.647003,387.480499 C361.070984,388.2005 362.007996,388.420502 362.699005,387.97052 L370.135986,383.140503 C370.807007,382.71051 371.014008,381.810486 370.609009,381.120483 L341.906006,332.4505 C341.373993,331.550476 340.416992,331.000488 339.380981,331.000488 H332.61499 C331.57901,331.000488 330.622986,331.550476 330.089996,332.4505 L301.387207,381.120483 C300.982788,381.810486 301.189911,382.71051 301.860596,383.140503 M255.845398,486.725006 C258.909393,488.117981 261.270081,490.02301 262.917694,492.458008 C264.565186,494.893005 265.389008,497.648987 265.389008,500.746002 V532.286011 C265.389008,533.297974 264.876587,533.799011 263.872009,533.799011 H255.895599 C254.880997,533.799011 254.378693,533.297974 254.378693,532.286011 V529.921021 C254.378693,529.669983 254.31839,529.530029 254.187805,529.48999 C254.05719,529.460022 253.906494,529.51001 253.715698,529.630005 C250.30011,532.916992 245.739304,534.551025 240.043198,534.551025 C235.361908,534.551025 231.514297,533.348022 228.51059,530.953003 C225.506866,528.557983 224,524.98999 224,520.249023 C224,515.328003 225.727875,511.48999 229.173615,508.744019 C232.619339,505.997986 237.481506,504.625 243.750198,504.625 H253.816101 C254.197906,504.625 254.388702,504.434021 254.388702,504.052979 V501.878998 C254.388702,499.412994 253.645294,497.509003 252.1586,496.145996 C250.671799,494.792999 248.47171,494.112 245.558395,494.112 C243.338303,494.112 241.509903,494.502014 240.053299,495.294006 C238.596603,496.085999 237.612091,497.177979 237.109894,498.561005 C236.858704,499.442993 236.286102,499.854004 235.402008,499.794006 L226.863068,498.752014 C226.350723,498.692017 225.979034,498.550995 225.72789,498.320984 C225.476746,498.100006 225.376282,497.830017 225.446609,497.518982 C226.019226,493.731018 228.118805,490.634003 231.755402,488.239014 C235.391998,485.843018 239.902603,484.640991 245.287201,484.640991 C249.2453,484.640991 252.781403,485.34198 255.845398,486.725006 M251.053497,523.375977 C253.263596,521.731995 254.378693,519.64801 254.378693,517.122009 V512.763 C254.378693,512.382019 254.187805,512.190979 253.806091,512.190979 H245.930099 C242.574799,512.190979 239.912598,512.822998 237.953705,514.085999 C235.994797,515.348022 235.0103,517.151978 235.0103,519.488037 C235.0103,521.511963 235.773697,523.075012 237.290695,524.177979 C238.807602,525.280029 240.736404,525.830994 243.077103,525.830994 C246.181305,525.84198 248.833405,525.02002 251.053497,523.375977 M304.367096,485.401978 H312.243103 C313.25769,485.401978 313.76001,485.912994 313.76001,486.916016 V532.286011 C313.76001,533.297974 313.247711,533.799011 312.243103,533.799011 H304.367096 C303.352509,533.799011 302.850189,533.297974 302.850189,532.286011 V529.820007 C302.850189,529.570007 302.769897,529.408997 302.6091,529.348999 C302.448395,529.289001 302.3078,529.379028 302.177185,529.630005 C299.645599,532.846985 295.787994,534.460022 290.594299,534.460022 C285.782288,534.460022 281.753906,533.067017 278.489014,530.291016 C275.224091,527.515015 273.59668,523.565979 273.59668,518.455017 V486.916016 C273.59668,485.903015 274.098999,485.401978 275.113586,485.401978 H283.089996 C284.104614,485.401978 284.606995,485.912994 284.606995,486.916016 V515.328003 C284.606995,518.294983 285.380493,520.660034 286.937592,522.434021 C288.484589,524.197998 290.654602,525.089966 293.437317,525.089966 C296.280212,525.089966 298.560699,524.208008 300.268402,522.434021 C301.976196,520.669983 302.830109,518.294983 302.830109,515.328003 V486.916016 C302.850189,485.903015 303.352509,485.401978 304.367096,485.401978 M361.346985,485.401978 H353.371002 C352.356018,485.401978 351.854004,485.903015 351.833984,486.936005 V488.639008 C351.833984,488.890015 351.77301,489.049988 351.643005,489.109985 C351.522003,489.171021 351.362,489.109985 351.17099,488.919983 C348.317993,486.083984 344.459991,484.661011 339.588013,484.661011 C335.408997,484.661011 331.772003,485.812988 328.667999,488.117981 C325.563995,490.423004 323.383911,493.5 322.118103,497.348999 C321.103516,500.125 320.601196,504.134003 320.601196,509.375 C320.601196,514.044983 321.013092,517.864014 321.836792,520.830017 C323.172913,525.119995 325.544006,528.307007 328.958984,530.390991 C332.38501,532.476013 336.141998,533.518005 340.260986,533.518005 C344.942017,533.518005 348.588989,532.164978 351.181,529.448975 C351.372009,529.259033 351.522003,529.198975 351.653015,529.259033 C351.783997,529.31897 351.843994,529.479004 351.843994,529.72998 V530.301025 C351.843994,534.721008 350.729004,537.858032 348.477997,539.721985 C346.227997,541.585999 342.701996,542.518005 337.890015,542.518005 C337.06601,542.518005 335.580017,542.458008 333.429993,542.328003 C332.916992,542.257996 332.505981,542.358032 332.194,542.608032 C331.882996,542.859009 331.721985,543.210022 331.721985,543.651001 L331.44101,550.656006 C331.44101,551.729004 331.882996,552.299988 332.766998,552.359985 C334.605011,552.549988 336.412994,552.640991 338.181,552.640991 C345.524994,552.640991 351.481995,550.947021 356.03302,547.528992 C360.583984,544.112 362.864014,538.458984 362.864014,530.572021 V486.916016 C362.864014,485.912994 362.362,485.401978 361.346985,485.401978 M351.854004,509.265015 C351.854004,511.72998 351.804016,513.514038 351.713013,514.617004 C351.613007,515.718994 351.442017,516.750977 351.19101,517.703979 C350.688995,519.718018 349.674011,521.362 348.156982,522.624023 C346.640015,523.886963 344.651001,524.518982 342.179993,524.518982 C339.838989,524.518982 337.830017,523.867004 336.152008,522.573975 C334.475006,521.281006 333.319,519.627991 332.686005,517.603027 C332.053009,516.030029 331.742004,513.283997 331.742004,509.36499 C331.742004,505.576996 332.114014,502.791016 332.877014,501.026978 C333.570007,498.942017 334.705994,497.268005 336.292999,496.005981 C337.869995,494.742981 339.799011,494.110992 342.07901,494.110992 C344.48999,494.110992 346.468994,494.742981 348.015991,496.005981 C349.562988,497.268005 350.588013,498.942017 351.100006,501.026978 C351.411987,502.039001 351.622986,503.061005 351.713013,504.104004 C351.804016,505.145996 351.854004,506.869995 351.854004,509.265015 M401.84198,485.401978 H409.718018 C410.731995,485.401978 411.234985,485.912994 411.234985,486.916016 V532.286011 C411.234985,533.297974 410.721985,533.799011 409.718018,533.799011 H401.84198 C400.826996,533.799011 400.325012,533.297974 400.325012,532.286011 V529.820007 C400.325012,529.570007 400.244019,529.408997 400.083984,529.348999 C399.923004,529.289001 399.781982,529.379028 399.651978,529.630005 C397.119995,532.846985 393.263,534.460022 388.069,534.460022 C383.257019,534.460022 379.229004,533.067017 375.963989,530.291016 C372.699005,527.515015 371.070984,523.565979 371.070984,518.455017 V486.916016 C371.070984,485.903015 371.574005,485.401978 372.588013,485.401978 H380.565002 C381.578979,485.401978 382.082001,485.912994 382.082001,486.916016 V515.328003 C382.082001,518.294983 382.85498,520.660034 384.411987,522.434021 C385.958984,524.197998 388.128998,525.089966 390.911987,525.089966 C393.755005,525.089966 396.035004,524.208008 397.742981,522.434021 C399.450989,520.669983 400.304993,518.294983 400.304993,515.328003 V486.916016 C400.325012,485.903015 400.837006,485.401978 401.84198,485.401978 M447.942017,487.766998 C448.132996,486.88501 447.85199,486.253998 447.088013,485.872986 C445.570984,485.181 443.893982,484.830994 442.054993,484.841003 C437.373993,484.841003 433.707001,486.825012 431.044983,490.804016 C430.914001,491.054016 430.794006,491.14502 430.662994,491.083984 C430.53302,491.023987 430.471985,490.864014 430.471985,490.613007 V486.914978 C430.471985,485.912994 429.970001,485.401978 428.955994,485.401978 H420.979004 C419.963989,485.401978 419.462006,485.903015 419.462006,486.914978 V532.275024 C419.462006,533.286987 419.963989,533.789001 420.979004,533.789001 H428.955994 C429.960022,533.789001 430.471985,533.286987 430.471985,532.275024 V505.846985 C430.471985,503.070984 431.367004,500.806 433.13501,499.072021 C434.903015,497.338013 437.113007,496.406006 439.774994,496.276001 C440.21698,496.216003 440.820007,496.186005 441.583008,496.186005 C442.848999,496.186005 443.854004,496.315979 444.617004,496.565979 C445.190002,496.697021 445.622009,496.697021 445.903015,496.565979 C446.184021,496.445984 446.36499,496.135986 446.424988,495.623993 L447.942017,487.766998 M378.164978,393.940491 L389.587006,413.310486 C390.39502,414.690491 389.981018,416.480499 388.658997,417.350494 L337.596008,450.529999 C336.628998,451.160004 335.386993,451.160004 334.419983,450.529999 L283.356689,417.350494 C282.015198,416.480499 281.601013,414.690491 282.419617,413.310486 L293.841614,393.940491 C294.265686,393.22052 295.192902,393.000488 295.893188,393.4505 L303.330292,398.280518 C304.001007,398.71051 304.208099,399.610504 303.803711,400.300507 L297.274109,411.370483 C297.076782,411.71051 297.175415,412.160492 297.510803,412.380493 L335.604004,437.130005 C335.839996,437.290009 336.145996,437.290009 336.393005,437.130005 L374.494995,412.380493 C374.830994,412.160492 374.938995,411.72049 374.731995,411.370483 L368.203003,400.300507 C367.798004,399.610504 368.005005,398.71051 368.675995,398.280518 L376.113007,393.4505 C376.804016,393.000488 377.740997,393.22052 378.164978,393.940491 " fill-rule="evenodd" fill="white" clip-rule="evenodd"></path></svg>