<?xml version="1.0" encoding="UTF-8"?>
<svg width="25px" height="23px" viewBox="0 0 25 23" version="1.1" xmlns="http://www.w3.org/2000/svg" xmlns:xlink="http://www.w3.org/1999/xlink">
    <!-- Generator: Sketch 50.2 (55047) - http://www.bohemiancoding.com/sketch -->
    <title>Combined Shape</title>
    <desc>Created with Sketch.</desc>
    <defs></defs>
    <g id="Symbols" stroke="none" stroke-width="1" fill="none" fill-rule="evenodd">
        <g id="Header---Not-Connected" transform="translate(-987.000000, -25.000000)" fill="#FF0068" fill-rule="nonzero">
            <g id="btn/reset" transform="translate(901.000000, 16.000000)">
                <g id="icon/reset" transform="translate(98.257777, 19.461378) rotate(21.000000) translate(-98.257777, -19.461378) translate(85.257777, 7.961378)">
                    <path d="M3.50110151,11.717622 C3.5003674,11.6651259 3.5,11.6125844 3.5,11.56 C3.5,5.45209763 8.45209763,0.5 14.56,0.5 C20.6679024,0.5 25.62,5.45209763 25.62,11.56 C25.62,17.6679024 20.6679024,22.62 14.56,22.62 C11.9263172,22.62 9.4335278,21.6955742 7.45674951,20.0375431 C7.24517619,19.8600851 7.21752027,19.5447129 7.39497827,19.3331396 C7.57243627,19.1215663 7.88780847,19.0939104 8.09938179,19.2713684 C9.89772431,20.7797357 12.1635654,21.62 14.56,21.62 C20.1156176,21.62 24.62,17.1156176 24.62,11.56 C24.62,6.00438237 20.1156176,1.5 14.56,1.5 C9.00438237,1.5 4.5,6.00438237 4.5,11.56 C4.5,11.6877137 4.5023778,11.8151271 4.50712101,11.942198 L7.29837976,9.15093922 C7.4936419,8.95567708 7.81022439,8.95567708 8.00548654,9.15093922 C8.20074868,9.34620137 8.20074868,9.66278386 8.00548654,9.858046 L4.46995263,13.3935799 C4.27469049,13.5888421 3.958108,13.5888421 3.76284585,13.3935799 L0.227311944,9.858046 C0.0320497983,9.66278386 0.0320497983,9.34620137 0.227311944,9.15093922 C0.42257409,8.95567708 0.739156579,8.95567708 0.934418725,9.15093922 L3.50110151,11.717622 Z" id="Combined-Shape"></path>
                </g>
            </g>
        </g>
    </g>
</svg>